<svg width="32" height="26" viewBox="0 0 32 26" fill="none" xmlns="http://www.w3.org/2000/svg">
<path d="M0.536456 4.62707C0.320308 4.35569 0.220615 4.00967 0.259245 3.66489C0.297875 3.32011 0.471673 3.00473 0.742519 2.78792C2.16989 1.74177 3.79009 0.988262 5.50985 0.570783C8.16175 -0.0923581 12.2609 -0.257405 16.7279 2.72082C23.6732 7.35116 29.3821 2.97332 29.6216 2.78481C29.8942 2.57189 30.2398 2.47518 30.5834 2.51572C30.9269 2.55625 31.2405 2.73076 31.4561 3.00128C31.6716 3.27181 31.7716 3.61649 31.7344 3.96038C31.6972 4.30427 31.5258 4.61957 31.2573 4.83772C29.83 5.88386 28.2099 6.63737 26.4902 7.05486C25.4324 7.3198 24.3462 7.45408 23.2558 7.45469C20.9524 7.45469 18.1909 6.85077 15.2719 4.90482C8.32663 0.27465 2.61808 4.65233 2.37855 4.84084C2.10553 5.05574 1.75856 5.15388 1.41342 5.11383C1.06828 5.07378 0.753009 4.89878 0.536456 4.62707ZM29.6215 11.9721C29.3819 12.1608 23.6734 16.5385 16.7279 11.9082C12.2609 8.93043 8.16175 9.09482 5.50985 9.75829C3.79009 10.1758 2.16989 10.9293 0.742519 11.9754C0.470264 12.1924 0.295343 12.5086 0.256237 12.8545C0.217132 13.2004 0.317044 13.5477 0.533995 13.82C0.750946 14.0922 1.06717 14.2672 1.41309 14.3063C1.75901 14.3454 2.10629 14.2455 2.37855 14.0285C2.61808 13.8398 8.32663 9.46199 15.2719 14.0925C18.1909 16.0383 20.9522 16.6422 23.2558 16.6422C26.1316 16.6314 28.931 15.7159 31.2575 14.0254C31.3923 13.918 31.5046 13.785 31.5881 13.6342C31.6715 13.4834 31.7245 13.3176 31.7438 13.1463C31.7632 12.975 31.7486 12.8016 31.701 12.6359C31.6533 12.4702 31.5735 12.3156 31.4661 12.1808C31.3587 12.0459 31.2257 11.9336 31.0749 11.8502C30.9241 11.7667 30.7583 11.7138 30.587 11.6944C30.4157 11.675 30.2423 11.6896 30.0766 11.7373C29.9109 11.7849 29.7563 11.8647 29.6215 11.9721ZM29.6215 21.1597C29.3819 21.3483 23.6734 25.7258 16.7279 21.0957C12.2609 18.1174 8.16175 18.2825 5.50985 18.9458C3.79009 19.3633 2.16989 20.1168 0.742519 21.1629C0.470264 21.3799 0.295343 21.6961 0.256237 22.042C0.217132 22.3879 0.317044 22.7352 0.533995 23.0075C0.750946 23.2797 1.06717 23.4547 1.41309 23.4938C1.75901 23.5329 2.10629 23.433 2.37855 23.216C2.61808 23.0273 8.32663 18.6493 15.2719 23.28C18.1909 25.2258 20.9522 25.8297 23.2558 25.8297C26.1316 25.8189 28.931 24.9034 31.2575 23.2129C31.5298 22.9959 31.7047 22.6797 31.7438 22.3338C31.7829 21.9878 31.683 21.6405 31.4661 21.3683C31.2491 21.096 30.9329 20.921 30.587 20.8819C30.241 20.8428 29.8937 20.9427 29.6215 21.1597Z" fill="white"/>
</svg>
