<svg width="64" height="64" viewBox="0 0 64 64" fill="none" xmlns="http://www.w3.org/2000/svg">
<path d="M16.5366 23.6266C16.3204 23.3552 16.2207 23.0092 16.2594 22.6644C16.298 22.3196 16.4718 22.0042 16.7426 21.7874C18.17 20.7413 19.7902 19.9878 21.51 19.5703C24.1619 18.9072 28.261 18.7421 32.7281 21.7203C39.6733 26.3507 45.3822 21.9728 45.6217 21.7843C45.8943 21.5714 46.24 21.4747 46.5835 21.5152C46.927 21.5558 47.2406 21.7303 47.4562 22.0008C47.6717 22.2713 47.7718 22.616 47.7346 22.9599C47.6973 23.3038 47.5259 23.6191 47.2574 23.8372C45.8301 24.8834 44.21 25.6369 42.4903 26.0544C41.4326 26.3193 40.3463 26.4536 39.256 26.4542C36.9525 26.4542 34.191 25.8503 31.272 23.9043C24.3268 19.2742 18.6182 23.6518 18.3787 23.8404C18.1056 24.0553 17.7587 24.1534 17.4135 24.1133C17.0684 24.0733 16.7531 23.8983 16.5366 23.6266ZM45.6216 30.9717C45.382 31.1603 39.6735 35.538 32.7281 30.9077C28.261 27.9299 24.1619 28.0943 21.51 28.7578C19.7902 29.1753 18.17 29.9288 16.7426 30.9749C16.4704 31.1919 16.2955 31.5081 16.2564 31.854C16.2173 32.2 16.3172 32.5472 16.5341 32.8195C16.7511 33.0918 17.0673 33.2667 17.4132 33.3058C17.7591 33.3449 18.1064 33.245 18.3787 33.028C18.6182 32.8393 24.3268 28.4615 31.272 33.092C34.191 35.0378 36.9524 35.6417 39.256 35.6417C42.1317 35.6309 44.9311 34.7154 47.2576 33.0249C47.3924 32.9175 47.5048 32.7846 47.5882 32.6337C47.6717 32.4829 47.7246 32.3171 47.7439 32.1458C47.7633 31.9745 47.7488 31.8011 47.7011 31.6354C47.6535 31.4697 47.5736 31.3151 47.4662 31.1803C47.3588 31.0454 47.2259 30.9331 47.075 30.8497C46.9242 30.7662 46.7584 30.7133 46.5871 30.6939C46.4158 30.6746 46.2424 30.6891 46.0767 30.7368C45.9111 30.7844 45.7564 30.8642 45.6216 30.9717ZM45.6216 40.1592C45.382 40.3478 39.6735 44.7254 32.7281 40.0952C28.261 37.117 24.1619 37.282 21.51 37.9453C19.7902 38.3628 18.17 39.1163 16.7426 40.1624C16.4704 40.3794 16.2955 40.6956 16.2564 41.0415C16.2173 41.3875 16.3172 41.7347 16.5341 42.007C16.7511 42.2793 17.0673 42.4542 17.4132 42.4933C17.7591 42.5324 18.1064 42.4325 18.3787 42.2155C18.6182 42.0269 24.3268 37.6488 31.272 42.2795C34.191 44.2253 36.9524 44.8292 39.256 44.8292C42.1317 44.8184 44.9311 43.9029 47.2576 42.2124C47.5299 41.9955 47.7048 41.6792 47.7439 41.3333C47.7831 40.9874 47.6832 40.64 47.4662 40.3678C47.2493 40.0955 46.933 39.9206 46.5871 39.8814C46.2412 39.8423 45.8939 39.9422 45.6216 40.1592Z" fill="black"/>
</svg>
