<svg width="164" height="55" viewBox="0 0 164 55" fill="none" xmlns="http://www.w3.org/2000/svg">
<path d="M150.94 5.66797e-05H13.0673C12.5647 5.66797e-05 12.0682 5.66798e-05 11.567 0.00280668C11.1474 0.00555668 10.7312 0.0135454 10.3076 0.0202692C9.38728 0.0311342 8.46917 0.112362 7.5612 0.263245C6.65451 0.417414 5.77622 0.708066 4.95604 1.12537C4.13686 1.54621 3.38836 2.09304 2.73768 2.74603C2.08358 3.39718 1.53834 4.14983 1.12292 4.97503C0.706358 5.79858 0.417511 6.6811 0.266357 7.59209C0.113767 8.50194 0.0316564 9.42227 0.0207631 10.3448C0.00804485 10.7664 0.00670176 11.1894 0 11.611V43.3931C0.00670176 43.8201 0.00804485 44.2337 0.0207631 44.6607C0.0316597 45.5833 0.11377 46.5036 0.266357 47.4134C0.417093 48.3249 0.705957 49.2079 1.12292 50.0318C1.53815 50.8543 2.08347 51.6039 2.73768 52.2514C3.38589 52.9073 4.13488 53.4545 4.95604 53.8721C5.77622 54.2906 6.65441 54.583 7.5612 54.7395C8.46933 54.8892 9.38734 54.9704 10.3076 54.9826C10.7312 54.992 11.1474 54.9973 11.567 54.9973C12.0682 55.0001 12.5648 55.0001 13.0673 55.0001H150.94C151.433 55.0001 151.933 55.0001 152.426 54.9973C152.843 54.9973 153.272 54.992 153.689 54.9826C154.608 54.9711 155.524 54.8898 156.43 54.7395C157.34 54.5819 158.221 54.2895 159.045 53.8721C159.866 53.4543 160.614 52.9071 161.262 52.2514C161.914 51.6014 162.461 50.8523 162.881 50.0318C163.295 49.2073 163.581 48.3244 163.73 47.4134C163.882 46.5034 163.967 45.5834 163.984 44.6607C163.989 44.2337 163.989 43.8201 163.989 43.3931C164 42.8936 164 42.3968 164 41.8892V13.1122C164 12.6087 164 12.1092 163.989 11.611C163.989 11.1894 163.989 10.7664 163.984 10.3448C163.967 9.42214 163.882 8.50201 163.73 7.59204C163.581 6.68157 163.295 5.79912 162.881 4.97497C162.035 3.32095 160.694 1.97459 159.045 1.12525C158.221 0.708962 157.34 0.418387 156.43 0.263122C155.524 0.111573 154.608 0.0303174 153.689 0.0200767C153.272 0.0133667 152.843 0.00530918 152.426 0.00262793C151.933 -0.00012207 151.433 -0.00012207 150.94 -0.00012207V5.66797e-05Z" fill="#A6A6A6"/>
<path d="M11.5737 53.7969C11.1561 53.7969 10.7486 53.7915 10.3343 53.7822C9.47611 53.7709 8.61988 53.696 7.77268 53.5579C6.98271 53.4214 6.21744 53.1675 5.50211 52.8045C4.79335 52.4446 4.14689 51.9726 3.58752 51.4067C3.02005 50.8475 2.54761 50.1988 2.18891 49.4865C1.82626 48.7696 1.57528 48.0011 1.44473 47.2079C1.30373 46.3555 1.22745 45.4937 1.21654 44.6298C1.20785 44.3398 1.19647 43.3742 1.19647 43.3742V11.611C1.19647 11.611 1.20859 10.6603 1.2166 10.381C1.22706 9.51841 1.30289 8.6579 1.44346 7.80688C1.57426 7.01147 1.82543 6.24078 2.18828 5.52149C2.54566 4.80967 3.01548 4.16056 3.57953 3.59931C4.14295 3.03273 4.79147 2.55833 5.50144 2.19341C6.21513 1.83163 6.97895 1.57951 7.76732 1.4455C8.61731 1.30602 9.47651 1.23062 10.3377 1.21991L11.5743 1.20312H152.419L153.67 1.22059C154.524 1.23076 155.375 1.30549 156.217 1.44415C157.014 1.57984 157.785 1.83372 158.507 2.19744C159.93 2.93286 161.087 4.09635 161.817 5.52485C162.174 6.23917 162.421 7.00357 162.551 7.79211C162.693 8.65011 162.772 9.51739 162.789 10.387C162.793 10.7764 162.793 11.1947 162.793 11.611C162.804 12.1266 162.804 12.6174 162.804 13.1122V41.8891C162.804 42.3886 162.804 42.8761 162.793 43.3675C162.793 43.8147 162.793 44.2243 162.787 44.6458C162.771 45.5 162.693 46.3518 162.553 47.1944C162.425 47.9934 162.176 48.7678 161.813 49.4907C161.452 50.1952 160.982 50.8382 160.421 51.396C159.861 51.9649 159.214 52.4397 158.503 52.8019C157.784 53.1677 157.013 53.4225 156.217 53.5579C155.37 53.6967 154.514 53.7717 153.656 53.7822C153.254 53.7915 152.834 53.7969 152.426 53.7969L150.94 53.7996L11.5737 53.7969Z" fill="black"/>
<path d="M33.9459 27.9134C33.9606 26.7658 34.2645 25.6405 34.8292 24.6423C35.3939 23.6441 36.201 22.8055 37.1756 22.2044C36.5565 21.3173 35.7397 20.5872 34.7902 20.0722C33.8407 19.5572 32.7845 19.2714 31.7057 19.2375C29.4043 18.9952 27.1732 20.6192 26.0004 20.6192C24.805 20.6192 22.9993 19.2616 21.0549 19.3017C19.7973 19.3425 18.5716 19.7094 17.4973 20.3668C16.423 21.0241 15.5367 21.9494 14.9248 23.0526C12.2742 27.6566 14.2513 34.4231 16.7903 38.1447C18.0606 39.967 19.5453 42.0027 21.4879 41.9305C23.3889 41.8514 24.0989 40.7143 26.3935 40.7143C28.6668 40.7143 29.3329 41.9305 31.315 41.8846C33.3548 41.8513 34.64 40.0541 35.8657 38.2145C36.7785 36.916 37.4808 35.4809 37.9467 33.9623C36.7616 33.4594 35.7503 32.6177 35.0389 31.542C34.3274 30.4664 33.9473 29.2044 33.9459 27.9134Z" fill="white"/>
<path d="M30.2022 16.79C31.3144 15.4504 31.8623 13.7287 31.7296 11.9904C30.0305 12.1694 28.4609 12.9842 27.3336 14.2723C26.7825 14.9016 26.3604 15.6337 26.0914 16.4268C25.8225 17.2198 25.712 18.0583 25.7662 18.8942C26.6161 18.903 27.4569 18.7182 28.2253 18.3537C28.9937 17.9892 29.6696 17.4545 30.2022 16.79Z" fill="white"/>
<path d="M57.9755 37.3169H51.4884L49.9305 41.932H47.1828L53.3273 24.8573H56.1821L62.3266 41.932H59.532L57.9755 37.3169ZM52.1602 35.1873H57.3024L54.7675 27.6973H54.6965L52.1602 35.1873Z" fill="white"/>
<path d="M75.5966 35.7084C75.5966 39.5769 73.5329 42.0624 70.4184 42.0624C69.6295 42.1038 68.8449 41.9214 68.1544 41.5362C67.464 41.1511 66.8956 40.5786 66.5144 39.8844H66.4554V46.0504H63.9085V29.4833H66.3738V31.5538H66.4207C66.8194 30.8629 67.3974 30.2934 68.0931 29.9059C68.7888 29.5183 69.5763 29.3273 70.3716 29.353C73.5208 29.353 75.5966 31.8506 75.5966 35.7084ZM72.9788 35.7084C72.9788 33.188 71.6805 31.531 69.6997 31.531C67.7537 31.531 66.4448 33.2229 66.4448 35.7084C66.4448 38.2167 67.7537 39.8965 69.6997 39.8965C71.6805 39.8965 72.9788 38.2516 72.9788 35.7084Z" fill="white"/>
<path d="M89.2535 35.7084C89.2535 39.5769 87.1897 42.0623 84.0753 42.0623C83.2864 42.1038 82.5018 41.9214 81.8113 41.5362C81.1209 41.151 80.5525 40.5786 80.1712 39.8843H80.1123V46.0504H77.5654V29.4832H80.0307V31.5538H80.0775C80.4763 30.8629 81.0542 30.2934 81.75 29.9059C82.4457 29.5183 83.2331 29.3273 84.0284 29.353C87.1777 29.353 89.2535 31.8506 89.2535 35.7084ZM86.6356 35.7084C86.6356 33.188 85.3374 31.531 83.3566 31.531C81.4106 31.531 80.1016 33.2229 80.1016 35.7084C80.1016 38.2167 81.4106 39.8965 83.3566 39.8965C85.3374 39.8965 86.6356 38.2516 86.6356 35.7084H86.6356Z" fill="white"/>
<path d="M98.2796 37.1746C98.4683 38.8679 100.108 39.9796 102.348 39.9796C104.495 39.9796 106.04 38.8678 106.04 37.3411C106.04 36.0158 105.108 35.2222 102.902 34.6784L100.697 34.1453C97.5716 33.388 96.1208 31.9216 96.1208 29.5422C96.1208 26.5962 98.6798 24.5726 102.313 24.5726C105.91 24.5726 108.375 26.5962 108.458 29.5422H105.887C105.733 27.8383 104.329 26.8097 102.277 26.8097C100.226 26.8097 98.8216 27.8504 98.8216 29.365C98.8216 30.5722 99.7183 31.2825 101.912 31.8263L103.787 32.2882C107.279 33.1167 108.73 34.5239 108.73 37.0214C108.73 40.2159 106.193 42.2166 102.16 42.2166C98.3853 42.2166 95.837 40.2629 95.6724 37.1745L98.2796 37.1746Z" fill="white"/>
<path d="M114.226 26.5372V29.4833H116.586V31.5068H114.226V38.3698C114.226 39.4359 114.699 39.9327 115.736 39.9327C116.016 39.9278 116.296 39.9081 116.574 39.8736V41.8851C116.108 41.9725 115.634 42.0121 115.159 42.0033C112.647 42.0033 111.667 41.0566 111.667 38.6423V31.5068H109.863V29.4833H111.667V26.5372H114.226Z" fill="white"/>
<path d="M117.952 35.7084C117.952 31.7915 120.252 29.3302 123.837 29.3302C127.435 29.3302 129.724 31.7914 129.724 35.7084C129.724 39.636 127.447 42.0865 123.837 42.0865C120.229 42.0865 117.952 39.636 117.952 35.7084ZM127.128 35.7084C127.128 33.0215 125.901 31.4357 123.837 31.4357C121.774 31.4357 120.548 33.0336 120.548 35.7084C120.548 38.406 121.774 39.9797 123.837 39.9797C125.901 39.9797 127.128 38.406 127.128 35.7084H127.128Z" fill="white"/>
<path d="M131.823 29.4833H134.253V31.6021H134.312C134.476 30.9404 134.862 30.3555 135.406 29.9459C135.949 29.5364 136.617 29.327 137.296 29.353C137.59 29.352 137.882 29.3839 138.169 29.4483V31.8385C137.798 31.7249 137.412 31.6727 137.024 31.6841C136.654 31.669 136.286 31.7345 135.943 31.8759C135.601 32.0174 135.293 32.2315 135.041 32.5036C134.789 32.7757 134.598 33.0993 134.482 33.4523C134.367 33.8052 134.328 34.179 134.37 34.5482V41.9321H131.823L131.823 29.4833Z" fill="white"/>
<path d="M149.912 38.2758C149.569 40.5356 147.375 42.0865 144.569 42.0865C140.959 42.0865 138.719 39.6601 138.719 35.7675C138.719 31.8627 140.971 29.3302 144.462 29.3302C147.895 29.3302 150.054 31.6962 150.054 35.4707V36.3462H141.29V36.5006C141.249 36.9588 141.307 37.4203 141.458 37.8546C141.609 38.2889 141.85 38.6859 142.166 39.0194C142.481 39.3529 142.864 39.6152 143.289 39.7889C143.713 39.9626 144.17 40.0436 144.628 40.0267C145.23 40.0833 145.834 39.9434 146.35 39.628C146.866 39.3125 147.267 38.8382 147.493 38.2757L149.912 38.2758ZM141.302 34.5603H147.505C147.528 34.1484 147.466 33.7361 147.322 33.3495C147.179 32.9628 146.957 32.6101 146.672 32.3134C146.386 32.0167 146.042 31.7825 145.662 31.6254C145.281 31.4684 144.873 31.3919 144.462 31.4008C144.047 31.3983 143.636 31.4782 143.252 31.636C142.868 31.7938 142.519 32.0262 142.226 32.32C141.932 32.6137 141.699 32.9629 141.54 33.3475C141.382 33.732 141.301 34.1442 141.302 34.5603V34.5603Z" fill="white"/>
</svg>
