<svg width="134" height="111" viewBox="0 0 134 111" fill="none" xmlns="http://www.w3.org/2000/svg">
<path d="M124.86 12.0599C124.353 12.1866 124.29 13.0099 124.86 13.0732C126 13.2632 127.267 13.1999 128.407 13.5166C132.903 14.7199 131.953 19.0899 128.66 21.2432C127.077 22.2566 125.367 22.5099 123.593 23.1432C119.793 24.4732 116.437 26.8166 113.397 29.4132C110.61 31.8199 108.14 34.5432 105.86 37.3932C104.023 39.7366 102.567 42.5866 100.667 44.8032C99.7166 43.4732 98.7666 42.5232 97.1833 41.9532C96.6133 41.7632 93.89 41.4466 93.9533 40.4333C94.08 38.1532 92.6866 36.3799 90.7866 35.3032C93.9533 33.2132 100.983 27.7032 102.82 26.1832C103.707 25.8666 104.593 25.4866 105.48 25.1066C104.087 26.3732 102.693 27.5766 101.363 28.8432C99.9066 30.1732 98.45 31.4399 96.9933 32.7699C96.2966 33.2132 95.6 33.6566 94.9033 34.1632C94.84 34.1632 94.9033 34.2266 94.9666 34.2266C95.2833 34.0999 95.6633 33.9099 95.98 33.7832C91.1666 38.3433 93.1933 37.2033 98.07 32.7699C112.193 25.7399 115.043 21.9399 100.097 30.8699C102.187 28.9066 104.593 26.8166 107.317 24.2832C111.37 22.2566 113.65 20.7366 109.027 22.6366C109.343 22.3199 109.66 22.0666 109.977 21.7499C110.103 21.6232 109.913 21.3699 109.723 21.4966C109.027 22.0666 108.393 22.6366 107.697 23.2066C106.62 23.6499 105.607 24.1566 104.53 24.7266C105.29 24.0299 106.05 23.2699 106.747 22.5732C116.31 17.6332 114.473 17.2532 108.077 21.1166C108.203 20.9899 108.267 20.8632 108.393 20.7366C109.597 19.9766 110.99 18.6466 111.813 17.1266C116.183 15.7332 116.5 14.7832 112.257 16.1766C113.523 12.6932 110.23 10.2232 106.747 11.1099C107.38 8.25991 108.267 3.88991 106.303 1.54658C104.403 -0.606759 101.997 0.786574 100.223 2.24324C93.2566 7.87991 85.5933 12.3132 77.0433 14.8466C75.27 11.6799 70.71 11.8066 67.67 11.8699C49.3033 12.1866 26.8833 -7.70009 8.70663 15.5432C3.5133 19.9132 1.0433 28.1466 0.599968 34.4166C0.0299676 42.3333 2.81663 50.2499 8.51663 55.8233C13.7733 61.0166 19.8533 63.2966 27.2633 63.0433C29.48 62.9799 31.8233 62.5999 33.9766 61.9032C30.05 66.6533 27.8333 72.2266 27.6433 78.4966C27.5166 82.6766 27.96 87.1099 30.1133 90.7833C32.3933 94.6466 35.94 97.8766 39.36 100.663C50.57 109.973 67.4166 114.977 79.5766 104.527C84.4533 100.347 87.6833 94.5199 90.1533 88.6933C92.8766 82.3599 95.22 75.6466 96.9933 68.9966C98.9566 61.5866 100.857 49.1732 100.92 48.4766C101.553 47.3999 104.087 42.5866 109.217 36.6966C113.333 32.0099 118.337 27.3232 124.29 25.1699C128.027 23.8399 132.27 22.6366 133.093 18.0132C133.727 13.5166 128.597 11.1732 124.86 12.0599ZM89.6466 34.7966C85.0866 33.1499 80.4633 35.7466 75.7133 37.8999C73.6233 38.8499 71.3433 39.7366 69.19 40.8132C74.1933 36.5066 82.11 34.9232 79.3866 28.7166C82.87 27.5132 85.6566 25.1699 93.89 23.5866C97.1833 22.9532 100.793 23.1432 104.15 22.3832C101.237 24.6632 90.09 34.4166 89.6466 34.7966ZM77.2966 20.6099C77.6766 19.8499 78.3733 19.2799 79.45 18.8999C82.5533 17.8232 85.5933 16.4932 88.5066 15.0366C88.6966 14.9732 88.57 14.6566 88.38 14.7199C84.8966 15.7966 81.2233 17.0632 77.93 18.7732C77.9933 18.0132 77.8666 17.1899 77.6133 16.4299C79.7666 16.1132 86.6066 13.6432 92.75 9.96991C92.75 10.0966 92.8133 10.1599 92.94 10.2232C93.6366 10.4132 94.3966 10.6032 95.0933 10.7932C94.7133 11.0466 94.27 11.2366 93.89 11.4899C93.13 11.2999 92.37 11.1099 91.61 10.9832C91.2933 10.9199 91.23 11.2999 91.4833 11.4266C92.0533 11.6166 92.6233 11.8066 93.1933 11.9332C92.6866 12.2499 92.2433 12.6299 91.7366 13.0099C91.4833 13.0099 91.42 13.0099 91.6733 13.0732C90.5333 13.9599 91.04 13.7699 92.18 13.1999C92.8766 13.3899 93.5733 13.5799 94.27 13.7066C90.0266 16.2399 90.7866 16.6832 94.84 13.8332C95.4733 13.9599 96.0433 14.0232 96.6766 14.0866C95.1566 14.5932 93.7 15.3532 92.3066 16.0499C92.0533 16.1766 92.2433 16.5566 92.4966 16.4932C94.2066 15.7966 95.98 15.0999 97.5633 14.0866C97.69 14.0232 97.69 13.8332 97.5 13.8332C96.93 13.6432 96.2966 13.4532 95.6633 13.3899C97.2466 12.2499 96.8666 12.3766 95.1566 13.3266C94.27 13.1999 93.3833 13.1366 92.4966 13.1366C93.0033 12.8832 93.5733 12.5666 94.08 12.2499C94.46 12.3132 94.84 12.3766 95.22 12.3766C95.3466 12.3766 95.41 12.1866 95.2833 12.1232C95.0933 12.0599 94.9033 11.9332 94.7133 11.8699C95.0933 11.6166 95.4733 11.3632 95.8533 11.0466C99.78 11.9966 100.223 11.8066 96.36 10.6666C96.6133 10.4766 96.8666 10.2866 97.1833 10.0332C97.31 9.90658 97.12 9.77991 96.9933 9.84324C96.55 10.0332 96.17 10.2866 95.7266 10.4766C94.84 10.2232 94.0166 9.96991 93.13 9.77991C101.363 4.71324 99.8433 3.95324 103.137 3.44658C104.467 2.68658 105.1 2.87658 105.1 4.07991C105.733 5.78991 105.163 9.14658 105.29 11.6799C105.163 11.7432 104.973 11.8699 104.847 11.9966C104.467 12.3132 104.72 12.9466 105.1 13.0732C107 13.5799 107.38 12.6932 108.71 14.6566C109.723 16.1766 109.533 16.6832 108.647 17.5066C108.393 17.5699 108.14 17.6332 108.203 17.8866C104.087 21.3699 99.97 20.4832 94.84 21.3066C89.8366 22.1299 82.5533 23.9666 78.6266 27.7666C78.4366 27.3866 78.1833 26.9432 77.93 26.5632C80.8433 25.1699 85.4666 23.7132 87.6833 21.2432C85.34 21.4332 82.68 23.3332 80.6533 24.4099C78.0566 25.8032 77.36 26.3732 76.8533 23.1432C76.9166 22.1299 76.98 21.3066 77.2966 20.6099ZM9.33997 53.4799C8.2633 52.3399 7.3133 51.0732 6.48997 49.8066C7.56663 50.1866 8.6433 50.5033 9.71997 50.6299C10.3533 51.7066 11.1766 52.7832 12 53.7332C11.3033 53.7332 10.5433 53.7332 9.7833 53.6699C9.71997 53.6699 9.65664 53.7966 9.71997 53.7966C10.6066 54.3033 11.62 54.4932 12.6966 54.4932C13.0133 54.8099 13.33 55.1266 13.6466 55.4432C14.1533 55.8866 14.7233 56.3299 15.3566 56.8366C14.85 56.9632 14.3433 57.0899 13.7733 57.2166C12.2533 56.1399 10.67 54.8733 9.33997 53.4799ZM18.27 56.3932C19.3466 57.0266 20.55 57.5966 21.8166 57.9766C21.4366 58.1666 20.9933 58.2933 20.6133 58.4832C20.4866 58.4199 20.4233 58.4199 20.2966 58.3566C19.2833 57.9133 18.27 57.4066 17.32 56.8366C17.6366 56.7732 17.9533 56.5832 18.27 56.3932ZM16.4966 56.3932C15.61 55.8232 14.7233 55.1899 13.9633 54.4932C13.9 54.4932 13.9 54.4299 13.8366 54.3666C14.28 54.3032 14.7233 54.1766 15.1033 54.0499C15.5466 54.4299 15.99 54.8733 16.4966 55.1899C16.8133 55.4433 17.1933 55.6966 17.51 55.8866C17.1933 56.1399 16.8766 56.2666 16.4966 56.3932ZM19.0933 55.8233C19.5366 55.5066 19.98 55.1266 20.4233 54.6833C20.4233 54.6833 20.4233 54.6199 20.4866 54.6199C22.0066 55.5699 23.6533 56.2666 25.3 56.7099C24.6666 56.8999 24.0333 57.1533 23.4 57.4066C21.88 56.9633 20.4866 56.5199 19.0933 55.8233ZM18.46 55.5066C18.1433 55.3166 17.8266 55.1899 17.5733 54.9366C17.0033 54.5566 16.4966 54.1766 15.9266 53.7332C16.6233 53.4166 17.2566 52.9733 17.8266 52.4666C18.5233 53.1632 19.3466 53.7966 20.17 54.3666C19.6 54.8099 19.03 55.1899 18.46 55.5066ZM15.1666 53.1633C14.28 52.4033 13.4566 51.5166 12.76 50.6299C13.7733 50.5033 14.7233 50.2499 15.7366 49.8066C16.18 50.6299 16.75 51.3899 17.4466 52.0866C16.6233 52.5299 15.8633 52.8466 15.1666 53.1633ZM14.47 53.3532C14.0266 53.4799 13.5833 53.5433 13.0766 53.6066C12.1266 52.7199 11.3033 51.7066 10.5433 50.6299C11.1766 50.6933 11.81 50.6299 12.4433 50.5666C12.95 51.5799 13.6466 52.5299 14.47 53.3532ZM18.7133 59.4333C17.3833 58.9899 16.0533 58.4199 14.85 57.7233C15.2933 57.6599 15.8 57.5332 16.2433 57.3433C17.1933 57.9766 18.2066 58.6099 19.2833 59.1166C19.0933 59.2433 18.9033 59.3066 18.7133 59.4333ZM19.6633 59.6866C19.79 59.6232 19.98 59.5599 20.1066 59.4966C20.8033 59.8133 21.5633 60.0666 22.26 60.2566C21.3733 60.1299 20.55 59.9399 19.6633 59.6866ZM25.9333 59.8133C24.4766 59.4966 23.02 59.2433 21.6266 58.8633C22.07 58.6733 22.45 58.4832 22.8933 58.2932C24.0333 58.5466 25.1733 58.6099 26.3133 58.4832C26.5033 58.4832 26.5666 58.1666 26.3766 58.1032C25.68 57.9132 24.9833 57.7866 24.2866 57.5966C24.73 57.3433 25.1733 57.1533 25.6166 56.8999C25.68 56.8999 25.68 56.8366 25.68 56.7733C26.7566 57.0266 27.8333 57.1532 28.8466 57.1532C28.34 58.2299 27.4533 59.1166 25.9333 59.8133ZM21.69 54.3666C20.4866 53.7332 19.41 52.9099 18.3333 52.0233C18.46 51.8966 18.5866 51.7066 18.7133 51.5799C18.84 51.3899 18.5233 51.1999 18.3966 51.3266C18.27 51.4532 18.08 51.5799 17.9533 51.6432C17.2566 51.0099 16.56 50.3766 15.9266 49.6799C16.2433 49.5533 16.4966 49.4266 16.8133 49.2366C16.94 49.1732 16.8766 48.9199 16.6866 48.9832C16.3066 49.1099 15.99 49.2366 15.61 49.3633C15.5466 49.2999 15.42 49.1732 15.3566 49.1099C15.3566 49.1099 15.2933 49.1099 15.2933 49.1733C15.3566 49.2366 15.42 49.3632 15.42 49.4266C14.4066 49.7432 13.3933 49.9966 12.3166 50.1233C11.6833 49.2366 11.1133 48.2866 10.7333 47.3366C10.7333 47.2732 11.1766 48.5399 12.1266 50.1866C11.4933 50.2499 10.86 50.3133 10.2266 50.3133C8.57997 47.9066 7.3133 45.1833 6.86997 42.3966C7.3133 45.2466 8.13663 47.9066 9.52997 50.3133C8.51663 50.2499 7.5033 50.0599 6.48997 49.8066C2.81663 43.8532 1.54997 36.1266 3.7033 28.5266C4.71664 27.0699 5.34997 26.3099 6.7433 25.1066C4.01997 30.4899 5.9833 35.7466 5.91997 34.1632C5.7933 31.1232 5.9833 27.7032 7.1233 24.7266C8.0733 23.9666 9.08663 23.2066 10.1 22.5099C10.2266 22.4466 10.2266 22.3199 10.2266 22.1932C13.33 22.0666 15.5466 24.8532 16.37 27.7032C17.4466 31.5666 16.18 35.7466 17.7633 39.5466C19.0933 42.7132 21.88 44.8032 24.4133 47.0832C24.35 47.0832 24.2866 47.0833 24.2866 47.1466C23.8433 47.3366 23.4633 47.5266 23.02 47.7799C22.83 47.8433 22.7666 48.0332 22.7033 48.1599C22.64 47.8432 22.3866 47.6532 22.0066 47.6532C20.9933 47.6532 20.9933 49.2366 22.0066 49.2366C22.45 49.2366 22.7033 48.9199 22.7666 48.5399C22.8933 48.8566 23.2733 49.1732 23.7166 48.9199C24.16 48.7299 24.54 48.4766 24.9833 48.2866C25.1733 48.2232 25.2366 48.0332 25.3 47.8432C27.8966 50.2499 30.1766 53.9232 29.2266 56.8999C26.5033 56.2033 24.0333 55.5699 21.69 54.3666ZM29.1 60.3833C29.9233 59.6232 30.5566 58.6099 30.8733 57.5332C32.6466 55.7599 34.3566 53.7966 35.8766 51.8332C36.0033 51.6432 35.75 51.4533 35.56 51.5799C34.04 52.9733 32.5833 54.5566 31.19 56.1399C31.3166 55.2533 31.3166 54.4299 31.1266 53.6066C29.9866 46.8932 22.0066 44.5499 19.6633 38.5332C17.51 32.9599 20.4866 26.0566 14.9133 21.7499C11.81 19.3432 8.8333 19.9766 6.29997 21.8132C11.43 12.2499 19.8533 7.43658 27.3266 6.61324C36.8266 5.59991 45.9466 9.84324 54.94 12.2499C69.19 16.1132 72.6733 11.6166 73.8133 17.8866C69.6966 18.3299 66.0866 18.3932 62.0333 17.7599C61.9066 17.5699 61.7166 17.5699 61.5266 17.6966C56.27 16.8099 51.33 15.3532 45.6933 14.5932C47.7833 12.7566 47.53 13.1366 45.5033 14.5932C40.1833 13.8966 34.7366 13.9599 29.9233 16.4299C29.86 16.4299 29.9233 16.4932 29.9233 16.4932C34.7366 14.7199 39.6766 14.5932 44.6166 15.2266C43.2233 16.1766 41.7666 17.1899 40.4366 18.2666C29.67 19.2166 30.4933 19.7866 39.55 19.0266C37.46 20.8632 37.9033 21.1799 40.8166 18.8999C43.7933 18.6466 43.6666 18.6466 46.7066 18.3932C45.5033 19.4066 45.63 20.4832 47.8466 18.3299C49.1133 18.2032 50.38 18.1399 51.6466 17.9499C48.48 20.1032 48.0366 20.2932 47.4033 21.0532C44.11 21.0532 40.88 21.4332 37.5866 22.0032C38.6633 20.9266 38.6 20.9899 37.46 22.0032C34.61 22.5099 31.8233 23.2699 29.29 24.4732C29.2266 24.5366 29.29 24.5999 29.3533 24.5999C31.76 24.0932 34.1033 23.4599 36.51 22.9532C33.2166 25.9299 32.52 26.3099 31.76 27.4499C31.6966 27.5766 31.8233 27.7666 32.0133 27.7032C33.1533 26.9432 33.47 26.3732 36.7633 22.9532C38.8533 22.5099 40.5 22.1932 42.4633 22.0032C41.5133 22.6999 40.5633 23.3332 39.6133 24.0299C38.5366 24.7899 37.27 25.5499 36.4466 26.5632C36.2566 26.7532 36.51 27.0699 36.7633 26.9432C37.9666 26.3732 38.98 25.3599 40.0566 24.5366C41.1333 23.6499 42.21 22.7632 43.35 21.8766C48.6066 21.4332 59.3733 22.0032 52.66 21.3066C53.04 21.1799 53.42 20.9266 53.8 20.7366C54.6233 20.7366 55.3833 20.6732 56.2066 20.6732C56.1433 20.7999 56.27 20.9899 56.3966 20.9266C56.7133 20.8632 56.9666 20.7366 57.2833 20.6732C58.1066 20.6732 58.93 20.6732 59.69 20.6099C59.1833 20.9899 59.31 21.3066 60.9566 20.6099C71.85 20.4199 75.3333 19.4066 70.5833 19.3432C71.7233 19.2799 72.9266 19.0899 74.0033 18.8366C74.3833 21.9399 74.0666 23.5866 76.0933 27.0066C74.32 28.0833 74.32 28.2099 76.2833 27.3232C76.9166 28.3999 77.6766 29.2232 77.8666 30.1733C78.3733 33.0866 75.3333 34.6066 72.4833 36.5699C72.61 36.3166 72.8 36.1266 72.9266 35.8733C72.99 35.7466 72.8633 35.6832 72.7366 35.7466C72.42 36.1899 72.1033 36.5699 71.7866 37.0132C70.3933 38.0266 69 38.9766 67.7333 40.1166C68.4933 39.1032 69.19 38.0266 69.8233 36.9499C77.1066 31.9466 76.6633 31.0599 75.9666 31.5033C73.2433 33.2766 70.71 35.4299 67.9866 37.3299C68.3666 36.8232 68.6833 36.3166 69.0633 35.8099C74.3833 31.8199 75.5233 29.6666 74.7 30.2366C73.2433 31.3132 71.7866 32.4532 70.3933 33.5932C70.3933 33.5932 66.72 36.5699 63.68 38.5332C64.25 37.6466 64.7566 36.7599 65.2633 35.8099C67.3533 34.3532 69.38 32.7066 71.1533 30.8699C71.28 30.7432 71.09 30.4899 70.9633 30.6166C69.38 31.7566 67.7333 32.9599 66.15 34.0999C66.9733 32.4532 66.2766 33.3399 65.1366 34.7966C64.06 35.5566 62.92 36.3166 61.78 37.0766C62.2866 36.1266 62.6666 35.1133 62.9833 34.0999C63.0466 33.9732 62.8566 33.9099 62.7933 34.0366C62.0333 35.3666 61.21 36.6966 60.45 37.9632C59.31 38.6599 58.1066 39.3566 56.9666 40.0532C57.1566 39.6099 57.2833 39.1032 57.41 38.6599C57.4733 38.5332 57.22 38.4699 57.22 38.5966C56.9666 39.2299 56.7133 39.7999 56.3966 40.4333C55.1933 41.1299 53.9266 41.7632 52.66 42.3332C52.9766 41.4466 53.2933 40.5599 53.4833 39.6733C53.4833 39.6099 53.3566 39.4832 53.2933 39.6099C52.85 40.6866 52.3433 41.6999 51.8366 42.7133C50.8233 43.1566 49.8733 43.5366 48.86 43.9166C49.81 43.5999 50.8233 43.2199 51.7733 42.8399C51.2666 43.8532 50.6966 44.8032 50.1266 45.7532C49.1133 46.1332 48.1633 46.5132 47.15 46.8932C48.1 45.1832 48.7966 43.4099 49.3033 41.4466C49.3033 41.3833 49.1766 41.3199 49.1766 41.3832C48.48 43.4099 47.53 45.3099 46.39 47.1466C46.3266 47.1466 46.2 47.2099 46.1366 47.2099C46.2 47.2099 46.2633 47.1466 46.3266 47.1466C45.6933 48.2233 44.9333 49.2366 44.11 50.2499C43.6666 50.4399 43.16 50.6932 42.7166 50.8833C43.0966 50.3766 43.54 49.8699 43.92 49.2999C43.9833 49.1732 43.8566 49.0466 43.73 49.1733C43.0333 49.8699 42.3366 50.5666 41.7033 51.3266C41.45 51.4532 41.26 51.5166 41.0066 51.6432C40.88 51.7066 41.0066 51.8332 41.07 51.8332C41.1333 51.8332 41.26 51.7699 41.3233 51.7699C40.0566 53.1632 38.8533 54.6199 37.7766 56.0766C37.08 56.5199 36.3833 56.9632 35.6233 57.3433C36.2566 57.0266 36.9533 56.7099 37.5866 56.3299C37.27 56.7733 36.89 57.2799 36.5733 57.7233C34.23 59.1166 31.6966 60.0033 29.1 60.3833ZM52.5966 20.6732C52.47 20.7999 52.1533 21.0532 52.1533 21.1799C51.0133 21.0532 49.81 20.9899 48.67 20.9899C48.7966 20.9266 53.04 17.7599 53.1666 17.6966C53.3566 17.6966 55.1933 17.5066 55.2566 17.3166C55.9533 17.5066 56.7133 17.6332 57.41 17.8232C52.7233 20.5466 53.1033 20.2932 52.7233 20.6732C49.81 20.7999 49.7466 20.7999 52.5966 20.6732ZM50.19 16.1132C51.33 16.3666 52.3433 16.5566 53.2933 16.8099C53.1666 16.8732 53.04 16.9999 52.9133 17.0632C51.5833 17.1266 50.2533 17.2532 48.86 17.3799C48.9233 17.3166 50.1266 16.2399 50.19 16.1132ZM47.8466 17.5066C45.5033 17.7599 44.49 17.8866 41.83 18.0766C42.9066 17.1899 43.9833 16.1766 45.06 15.2266C46.58 15.4166 48.1 15.6699 49.5566 15.9866C48.9866 16.4932 48.4166 16.9999 47.8466 17.5066ZM53.8633 17.0632V16.9999C53.99 16.9999 54.0533 17.0632 54.18 17.0632C54.0533 17.0632 53.99 17.0632 53.8633 17.0632ZM58.0433 17.9499C58.74 18.0766 59.5 18.2666 60.1966 18.3932C58.9933 18.9632 57.7266 19.5332 56.65 20.2932C55.7633 20.3566 54.94 20.4832 54.0533 20.5466C54.4966 20.2299 57.0933 18.5199 58.0433 17.9499ZM61.2733 18.5832C61.78 18.6466 62.35 18.7732 62.8566 18.8366C62.16 19.1532 61.4 19.4699 60.7666 19.8499C60.0066 19.9132 59.2466 19.9766 58.4233 20.1032C59.4366 19.5966 60.3866 19.0899 61.2733 18.5832ZM63.9966 18.9632C65.4533 19.1532 66.9733 19.2799 68.4933 19.2799C66.9733 19.3432 65.0733 19.4699 62.6666 19.6599C63.11 19.4699 63.5533 19.2166 63.9966 18.9632ZM66.2766 41.5099C65.96 41.8266 65.6433 42.1432 65.3266 42.4599C64.82 42.6499 64.3133 42.8399 63.7433 43.0299C64.7566 41.6999 65.77 40.4333 66.72 39.1033C67.9233 38.3433 67.6066 38.5333 68.6833 37.7733C68.5566 37.9633 66.0866 41.2566 66.2766 41.5099ZM39.17 55.0633C40.2466 53.9233 41.26 52.7199 42.2733 51.4532C42.6533 51.3266 43.0333 51.1999 43.4133 51.0732C42.1466 52.5299 40.69 53.8599 39.17 55.0633ZM40.3733 54.4299C39.2966 55.6333 38.0933 56.6466 36.8266 57.4699C37.46 56.8366 38.03 56.2666 38.6633 55.6333C39.2333 55.2533 39.8033 54.8733 40.3733 54.4299ZM44.3 50.7566C44.9966 50.5033 45.6933 50.2499 46.39 49.9966C44.9333 51.3266 43.4133 52.5299 41.83 53.7332C41.83 53.7332 41.83 53.7966 41.83 53.7332C44.1733 52.7832 46.3266 51.1999 48.1633 49.2366C49.3666 48.7299 50.5066 48.1599 51.71 47.5899C51.3933 47.9699 51.0766 48.2866 50.76 48.6666C47.72 50.3132 44.8066 52.2132 42.02 54.3666C41.8933 54.0499 41.5133 53.7966 41.1966 53.8599C42.3366 52.8466 43.35 51.8333 44.3 50.7566ZM61.8433 39.7366C61.1466 40.1799 60.7033 40.4332 58.9933 41.3832C59.7533 40.4332 60.45 39.4832 61.02 38.4699C61.9066 37.9632 62.7933 37.4566 63.68 36.8866C63.0466 37.8366 62.4133 38.7866 61.8433 39.7366ZM62.7933 39.9266C64.44 38.9766 66.0233 37.8999 67.6066 36.8232C67.2266 37.3299 66.8466 37.8366 66.4666 38.3432C64.9466 39.3566 63.4266 40.3699 61.8433 41.3199C62.16 40.8766 62.4766 40.4332 62.7933 39.9266ZM57.4733 42.1432C56.7766 42.5232 56.08 42.8399 55.4466 43.1566C55.89 42.3332 56.3333 41.5099 56.65 40.6233C57.6633 40.1799 58.6133 39.6732 59.5633 39.1666C58.93 40.2433 58.2333 41.1932 57.4733 42.1432ZM56.5866 43.2832C56.0166 43.9799 55.3833 44.6766 54.75 45.3732C54.4333 45.5633 54.0533 45.6899 53.7366 45.8799C54.1166 45.3733 54.4966 44.8666 55.0033 44.0432C55.51 43.7899 56.08 43.5366 56.5866 43.2832ZM54.56 43.6633C53.42 44.1699 52.3433 44.7399 51.2033 45.1832C51.71 44.2966 52.1533 43.3466 52.5333 42.4599C53.7366 42.0166 54.8766 41.5099 56.08 41.0033C55.5733 41.8899 55.0666 42.7766 54.56 43.6633ZM54.0533 44.4232C53.61 45.0566 53.1666 45.6899 52.7233 46.3232C51.5833 46.8932 50.4433 47.3999 49.3033 47.9066C49.8733 47.2099 50.38 46.4499 50.8866 45.6266C51.9633 45.2466 53.04 44.8666 54.0533 44.4232ZM48.67 47.5266C48.3533 47.9066 48.0366 48.2866 47.6566 48.6666C46.77 49.0466 45.9466 49.4266 45.06 49.8066C45.7566 48.9199 46.39 47.9699 46.96 46.9566C47.91 46.7033 48.7966 46.3866 49.7466 46.0699C49.43 46.5766 49.05 47.0199 48.67 47.5266ZM52.5966 47.1466C55.0033 45.9433 57.3466 44.6766 59.69 43.3466C59.3733 43.8533 59.12 44.3599 58.8033 44.8032C56.46 45.7532 54.4333 46.6399 51.5833 48.1599C51.9633 47.8432 52.28 47.5266 52.5966 47.1466ZM55.5733 44.9299C56.3966 44.2333 57.1566 43.4733 57.8533 42.7133C58.93 42.1433 60.07 41.5733 61.1466 40.9399C60.8933 41.3833 60.5766 41.8266 60.3233 42.3332C59.6266 42.7132 58.4233 43.4099 55.5733 44.9299ZM61.02 42.5866C62.4766 41.7632 63.9333 40.8766 65.3266 39.9899C64.5666 41.0666 63.7433 42.2066 62.9833 43.2832C61.9066 43.6632 60.83 44.1066 59.7533 44.4866C60.1333 43.8532 60.5766 43.2199 61.02 42.5866ZM64.6933 108.137C64.63 108.137 64.63 108.137 64.5666 108.137C64.63 108.073 64.6933 108.073 64.7566 108.01C64.6933 108.073 64.6933 108.137 64.6933 108.137ZM60.0066 107.947C59.9433 107.947 59.88 108.01 59.88 108.01C58.74 107.883 57.6 107.63 56.3966 107.377C59.8166 107.25 63.3 105.477 65.8333 103.133C65.3266 106.3 62.9833 107.567 60.0066 107.947ZM61.78 105.033C60.26 104.843 58.74 104.717 57.22 104.527C58.17 104.147 59.0566 103.703 59.88 103.07C60.3233 103.007 60.7666 102.88 61.1466 102.753C61.4 102.69 61.3366 102.31 61.0833 102.31C60.9566 102.31 60.8933 102.31 60.7666 102.31C61.4 101.74 61.97 101.043 62.4766 100.347C62.6033 100.22 62.35 100.03 62.2233 100.157C61.4 100.98 60.5766 101.677 59.6266 102.31C59.2466 102.31 58.93 102.31 58.55 102.31C58.55 102.183 58.4233 102.057 58.2333 102.057C58.0433 102.057 57.98 102.183 57.9166 102.31C56.7133 102.31 55.51 102.247 54.3066 102.057C53.4833 101.93 52.66 101.677 51.9 101.487C51.9 101.423 51.8366 101.36 51.7733 101.297C51.6466 101.17 51.5833 101.043 51.4566 100.917C51.5833 100.853 51.71 100.853 51.7733 100.79C53.99 101.55 56.7766 101.993 58.74 101.043C58.9933 100.917 58.8666 100.537 58.6133 100.537C57.3466 100.41 56.0166 100.663 54.75 100.537C54.1166 100.473 53.5466 100.347 52.9766 100.22C55.13 99.0166 57.03 97.2433 58.2333 95.4066C58.36 95.2799 58.1066 95.0899 57.98 95.2166C56.5233 96.8633 54.8766 98.3199 52.9766 99.4599C52.66 99.6499 52.28 99.8399 51.9633 99.9666C51.5833 99.8399 51.14 99.7133 50.76 99.5233C49.9366 99.1433 49.1766 98.7633 48.48 98.2566C49.62 97.6866 50.76 97.1166 51.9 96.4833C52.1533 96.7366 52.4066 96.9899 52.66 97.3066C53.04 97.7499 53.42 98.3833 53.9266 98.6999C54.0533 98.7633 54.2433 98.6366 54.18 98.4466C53.8633 97.9399 53.23 97.6233 52.7866 97.1799C52.5333 96.9266 52.28 96.6733 51.9633 96.4199C52.7866 95.9766 53.61 95.4699 54.4333 95.0266C54.6233 94.8999 54.4966 94.6466 54.3066 94.7099C53.3566 95.0899 52.4066 95.5333 51.4566 95.9133C51.3933 95.8499 51.33 95.7866 51.2666 95.7233C51.2666 95.7233 51.2033 95.7233 51.2666 95.7233C51.33 95.7866 51.3933 95.8499 51.4566 95.9133C50.2533 96.4833 48.9866 97.0533 47.7833 97.6866C46.58 96.7366 45.5033 95.6599 44.4266 94.5199C44.9966 95.9133 45.8833 97.0533 47.0233 98.0666C46.6433 98.2566 46.2633 98.4466 45.8833 98.6999C43.0966 96.7999 40.9433 94.3299 38.79 91.6066C38.79 91.5433 38.7266 91.6066 38.7266 91.6699C39.36 93.4433 40.5 95.0899 41.8933 96.4833H41.83C41.45 96.4833 41.26 96.7999 41.3233 97.1166C37.08 93.1899 33.7233 87.8066 32.3933 82.2333C33.85 89.0099 37.0166 94.8999 42.4633 99.2699C42.78 99.5233 43.16 99.8399 43.54 100.093C43.35 100.22 43.16 100.347 42.97 100.473C42.9066 100.537 42.97 100.663 43.0333 100.6C43.2866 100.473 43.6033 100.41 43.8566 100.283C46.6433 102.247 49.9366 103.957 53.42 104.97C52.7866 105.097 52.09 105.16 51.3933 105.223C52.47 105.413 53.5466 105.413 54.56 105.287C56.3966 105.73 58.2333 105.92 60.0066 105.92C58.55 106.49 57.03 106.807 55.4466 107.25C51.3933 106.173 47.4666 104.273 43.9833 101.74C40.6266 99.3333 37.5866 96.5466 34.8633 93.5066C31.3166 89.5799 29.86 85.5899 29.86 80.2699C29.7966 74.9499 31.19 70.1999 34.1033 65.7666C34.6733 64.9433 35.4966 64.4366 35.4966 65.8299C35.4966 66.7166 34.9266 67.7933 34.7366 68.6166C34.42 70.3266 34.5466 72.0366 35.2433 73.6199C37.08 77.7999 40.88 81.4733 44.4266 84.1966C48.48 87.3633 53.1666 89.2633 57.6 91.7966C60.0066 93.1899 62.35 94.7099 64.25 96.8633C64.5033 97.1799 64.82 97.5599 65.1366 98.0666C65.6433 99.5233 66.0233 101.107 65.96 102.563C64.5666 103.387 63.2366 104.273 61.78 105.033ZM45.6933 99.4599C46.4533 99.9666 47.2766 100.41 48.1 100.853C48.29 100.917 48.4166 101.043 48.6066 101.107C48.2266 101.233 47.8466 101.297 47.53 101.423C46.6433 100.917 45.7566 100.41 44.87 99.8399C45.1233 99.7133 45.3766 99.5866 45.6933 99.4599ZM44.3633 99.4599C43.7933 99.0799 43.2233 98.6366 42.6533 98.1933C42.3366 97.9399 42.02 97.6866 41.7033 97.3699H41.7666C42.1466 97.3699 42.3366 97.0533 42.2733 96.7366C43.16 97.5599 44.0466 98.3199 45.06 99.0166C44.87 99.2066 44.6166 99.3333 44.3633 99.4599ZM46.58 99.0166C46.96 98.8266 47.34 98.6999 47.72 98.5099C48.6066 99.2066 49.62 99.7766 50.6333 100.22C50.6333 100.22 50.6966 100.22 50.76 100.283C50.57 100.283 50.38 100.347 50.2533 100.473C50.2533 100.473 50.2533 100.537 50.19 100.537C50.0633 100.6 49.9366 100.6 49.81 100.663C49.3033 100.473 48.7966 100.22 48.29 99.9666C47.6566 99.7133 47.0866 99.3966 46.58 99.0166ZM49.4933 101.487C49.9366 101.677 50.4433 101.867 50.8866 102.057C50.95 102.057 50.95 102.12 51.0133 102.12C51.2033 102.247 51.3933 102.31 51.52 102.247C53.61 102.943 55.89 103.387 58.0433 103.26C57.2833 103.64 56.5233 104.02 55.7633 104.273C54.4966 104.083 53.2933 103.767 52.0266 103.387C50.6333 102.943 49.24 102.31 47.9733 101.677C48.48 101.613 48.9866 101.613 49.4933 101.487ZM80.9066 100.22C77.2333 104.463 72.7366 106.87 67.9233 107.82C68.81 106.933 69.1266 105.603 69.0633 104.147C71.4066 103.513 73.75 102.69 76.03 101.867C75.27 102.437 74.51 103.007 73.8766 103.703C73.8133 103.767 73.8766 103.83 73.94 103.767C75.3966 103.26 76.79 102.183 78.0566 101.043C79.1333 100.6 80.21 100.157 81.2866 99.7133C81.16 99.8399 81.0333 100.03 80.9066 100.22ZM98.64 48.3499C98.64 48.4766 98.5766 48.6032 98.5766 48.7932C97.9433 55.3799 96.6133 62.0933 94.9033 68.4899C92.1166 78.9399 88.4433 91.0366 81.4766 99.5233C81.4766 99.4599 81.4133 99.3966 81.35 99.4599C80.59 99.7133 79.7666 99.9666 79.0066 100.22C79.7033 99.5233 80.3366 98.8899 80.9066 98.2566C80.97 98.1299 81.0966 98.0666 81.16 97.9399C81.54 97.7499 81.9833 97.5599 82.3633 97.3699C82.49 97.3066 82.4266 97.0533 82.2366 97.1166C82.11 97.1799 81.92 97.1799 81.7933 97.2433C82.5533 96.3566 83.3133 95.4066 84.01 94.4566C84.01 94.4566 84.0733 94.4566 84.0733 94.3933C84.1366 94.3299 84.1366 94.2666 84.1366 94.2033C85.0233 92.9999 85.8466 91.6699 86.5433 90.4033C89.5833 84.8299 91.4833 78.4333 91.1033 72.0366C91.1033 71.8466 90.85 71.8466 90.85 72.0366C90.7866 73.3033 90.66 74.5699 90.47 75.8366C90.47 75.7732 90.4066 75.7733 90.3433 75.7733C89.5833 76.0266 88.8233 76.2799 88.1266 76.5966C88.2533 75.9633 88.38 75.3932 88.5066 74.7599C88.5066 74.5699 88.2533 74.5066 88.19 74.6966C87.8733 75.4566 87.62 76.2166 87.3666 76.9766C86.2266 77.4833 85.0866 78.0533 83.9466 78.5599C83.6933 78.6866 83.8833 79.0666 84.2 78.9399C85.15 78.4966 86.1 78.1166 87.1133 77.6733C86.6066 78.9399 86.1633 80.2699 85.6566 81.5366C84.1366 82.2966 82.68 83.0566 81.16 83.8166C81.0966 83.8166 81.0966 83.8799 81.0966 83.8799C81.35 82.9933 81.4766 82.1066 81.6666 81.1566C81.6666 81.0299 81.4766 80.9666 81.4133 81.0933C80.7166 83.6899 79.7666 86.1599 78.6266 88.5033C77.8033 88.6933 77.0433 88.8833 76.1566 89.0099C76.8533 89.0733 77.6133 89.0733 78.31 89.0099C77.36 90.9099 76.3466 92.6833 75.2066 94.4566C74.6366 94.5833 74.0033 94.6466 73.4333 94.7099C73.18 94.7099 73.18 95.0899 73.4333 95.0899C73.94 95.0266 74.3833 95.0266 74.89 94.9633C74.13 96.1033 73.3066 97.2433 72.42 98.3833C73.6866 97.3066 74.7633 96.1033 75.7766 94.8366C76.7266 94.7099 77.6133 94.4566 78.5 94.2033C77.74 95.2166 76.98 96.1666 76.22 97.1166C75.0166 97.6233 73.75 98.1933 72.5466 98.6999C72.3566 98.7633 72.4833 99.0799 72.6733 99.0166C73.6233 98.6366 74.5733 98.3199 75.5233 97.9399C74.89 98.6999 74.2566 99.3966 73.6233 100.093C74.4466 99.3333 75.27 98.5099 76.0933 97.6866C78.3733 96.7999 80.6533 95.9133 82.87 94.8999C82.1733 95.7866 81.54 96.6099 80.78 97.4333C77.4233 98.5733 73.94 100.03 70.9 101.74C73.8766 100.917 76.9166 99.7766 79.7666 98.5099C79.07 99.2066 78.31 99.9666 77.55 100.663C74.7 101.677 71.85 102.753 69.1266 104.083C69.0633 102.437 68.5566 100.663 68.05 99.5233C67.48 98.1933 66.7833 96.9899 65.8966 95.8499C65.6433 95.4066 65.39 94.9633 65.1366 94.5833C65.01 94.3299 64.82 94.2666 64.5666 94.2666C63.87 93.5066 63.0466 92.7466 62.2233 92.1133C61.8433 88.1233 58.4866 85.1466 55.2566 82.8666C55.32 82.4233 55.2566 81.9166 55.2566 81.4733C55.32 81.5366 55.4466 81.5999 55.51 81.6633C55.7 81.7899 55.89 81.5366 55.7633 81.3466C55.5733 81.1566 55.3833 80.9033 55.1933 80.7133C55.13 80.2699 55.0666 79.8266 55.0033 79.3199C55.7 80.0166 56.46 80.6499 57.1566 81.2833C57.2833 81.3466 57.4733 81.2833 57.3466 81.1566C55.6366 78.8766 53.4833 76.6599 51.33 74.6966C51.2666 74.2533 51.2033 73.7466 51.2033 73.3033C51.2033 72.9866 50.6333 72.9866 50.6966 73.3033C50.6966 73.5566 50.76 73.8733 50.76 74.1899C50.6333 74.1266 50.57 73.9999 50.4433 73.9366C50.3166 73.8099 50.19 73.9999 50.2533 74.1266C50.4433 74.3166 50.57 74.5699 50.76 74.7599C50.76 75.5199 50.8233 76.3433 50.8866 77.1666C50.8233 77.1033 50.6966 77.0399 50.6333 76.9766C50.1266 76.5332 49.62 76.0899 49.05 75.7099C48.9866 75.1399 48.9233 74.6333 48.86 74.0633C48.67 72.6699 48.67 71.1499 48.1 69.8199C47.8466 71.3399 48.1 72.8599 48.2266 74.3799C48.2266 74.6333 48.29 74.8232 48.29 75.0766C47.4666 74.4433 46.6433 73.8099 45.7566 73.2399C46.58 74.1899 47.4666 75.0133 48.3533 75.8366C48.4166 76.9133 48.5433 77.9899 48.86 79.0666C48.86 79.0666 48.86 79.0666 48.86 79.1299C47.9733 78.5599 47.0866 77.9899 46.2633 77.3566C43.8566 75.5199 42.0833 73.3666 40.5633 70.7699C41.3866 75.5199 46.39 78.5599 50.19 80.9033C52.5333 82.2966 54.8766 83.6899 56.9666 85.4633C59.0566 87.2999 60.45 89.3266 61.4633 91.7966C60.0066 90.6566 58.36 89.7066 56.7133 88.8199C51.0766 85.7799 45.63 83.1199 41.26 78.3699C38.4733 75.3932 36.0033 72.3533 36.6366 68.0466C36.9533 65.8299 37.5233 63.9933 37.3333 61.8399C37.3966 61.7766 37.3966 61.7766 37.46 61.7133C45.5666 53.4799 54.6866 48.9832 64.3133 45.3732C64.7566 45.6899 65.01 45.3732 65.39 44.9932C67.7333 44.1699 70.0133 43.3466 72.3566 42.4599C76.5366 40.9399 80.4633 38.4699 84.7066 37.2033C84.77 37.2033 86.86 37.1399 87.24 37.1399C87.3666 37.2666 87.81 37.2033 88 37.2033C89.33 37.3932 90.4066 38.0899 91.2933 39.7366C91.8 40.6232 91.9266 41.6366 92.6233 42.3966C94.0166 43.9166 96.4866 43.7266 97.8166 45.0566C96.17 48.3499 88.76 68.2999 88.57 69.2499C88.5066 69.5033 88.8866 69.6933 89.0133 69.4399C89.4566 68.6166 96.8666 48.8566 97.8166 45.1199C97.8166 45.2466 98.64 46.4499 98.7033 46.7666C98.83 46.9566 98.7033 47.6532 98.64 48.3499ZM88.4433 80.1432C87.8733 80.3966 87.24 80.6499 86.67 80.9666C87.1766 79.7633 87.5566 78.4966 87.9366 77.2299C88.8233 76.8499 89.6466 76.4066 90.47 75.8999C89.8366 80.5233 88.57 84.9566 86.4166 89.1366C84.39 90.6566 82.2366 91.9233 79.9566 92.8733C80.97 91.4166 81.9833 89.9599 82.87 88.3766C83.06 88.0599 83.25 87.7433 83.44 87.4266C85.34 86.5399 87.05 85.2733 88.5066 83.7533C88.6333 83.6266 88.4433 83.4366 88.3166 83.5633C86.9233 84.7666 85.4666 85.6533 84.01 86.4133C84.8966 84.7666 85.72 83.0566 86.48 81.3466C87.1766 80.9666 87.8733 80.5866 88.57 80.2066C88.6333 80.2699 88.57 80.1432 88.4433 80.1432ZM83.06 87.0466C81.92 87.5533 80.78 87.9333 79.5766 88.2499C80.1466 86.8566 80.6533 85.3999 81.0333 83.9433C81.0333 84.0699 81.16 84.1966 81.35 84.1333C82.68 83.4366 84.0733 82.8033 85.4033 82.1066C84.6433 83.7533 83.8833 85.3999 83.06 87.0466ZM82.49 87.9966C82.4266 88.0599 82.4266 88.1866 82.3633 88.2499C81.35 90.0233 80.21 91.7333 79.0066 93.3799C78.0566 93.7599 77.1066 94.0133 76.0933 94.2666C77.2966 92.6199 78.3733 90.8466 79.1966 88.9466C80.3366 88.6933 81.4766 88.3766 82.49 87.9966ZM79.26 93.9499C81.6666 93.1266 83.9466 91.9233 85.91 90.2133C85.15 91.6066 84.2633 92.9999 83.3133 94.2666C81.16 95.0266 79.0066 95.8499 76.8533 96.7999C77.74 95.8499 78.5 94.8999 79.26 93.9499ZM54.37 80.9033C54.37 81.4099 54.4333 81.9166 54.56 82.4233C54.1166 82.1066 53.6733 81.8533 53.23 81.5366C52.9766 81.4099 52.7866 81.2833 52.5333 81.0933C52.5966 80.5233 52.66 80.0166 52.66 79.4466C53.1666 80.0166 53.7366 80.4599 54.37 80.9033ZM52.5966 76.9766C53.1033 77.5466 53.6733 78.1799 54.2433 78.7499C54.2433 79.1299 54.3066 79.5733 54.3066 80.0166C53.7366 79.5099 53.1666 79.0666 52.5966 78.5599C52.5966 78.0533 52.5966 77.5466 52.5966 76.9766ZM49.1133 76.4066C49.62 76.8499 50.1266 77.2933 50.6333 77.7366C50.76 77.7999 50.8233 77.9266 50.95 77.9899C51.0133 78.3066 51.0766 78.5599 51.14 78.8133C51.14 78.9399 51.33 78.9399 51.3933 78.8133C51.3933 78.6866 51.3933 78.5599 51.4566 78.3699C51.6466 78.5599 51.8366 78.7499 52.09 78.9399C52.09 79.6366 52.1533 80.2699 52.2166 80.9033C51.14 80.2699 50.0633 79.6366 48.9866 78.9399C49.05 78.9399 49.1766 78.8766 49.1766 78.7499C49.24 78.0533 49.24 77.2299 49.1133 76.4066ZM52.0266 76.9766C52.0266 77.3566 52.0266 77.6732 52.0266 78.0533C51.8366 77.9266 51.6466 77.7366 51.4566 77.6099C51.4566 76.9133 51.3933 76.2166 51.33 75.5199C51.6466 75.8999 52.0266 76.3433 52.3433 76.7233C52.28 76.7233 52.0266 76.7866 52.0266 76.9766Z" fill="#5B5B69"/>
<path d="M114.917 13.7699C116.247 12.6932 118.59 12.2499 120.11 11.3632C120.3 11.2365 120.173 10.9199 119.92 10.9832C118.59 11.3632 117.26 11.9332 115.93 12.4399C116.753 11.3632 117.45 10.1599 118.273 9.27322C123.023 4.26988 127.647 7.87988 126.95 11.4899C126.95 11.5532 127.013 11.6165 127.077 11.5532C130.053 8.13321 125.05 4.52321 121.693 5.02988C115.993 5.91655 112.763 13.1365 110.42 17.5699C110.863 18.0132 111.56 17.6332 112.003 17.1899C113.143 16.2399 113.84 14.6565 114.917 13.7699Z" fill="#5B5B69"/>
<path d="M87.9366 59.4332C87.8733 59.6233 88.1899 59.7499 88.2533 59.5599C89.8366 57.2166 90.9133 54.3666 92.1166 51.7699C101.997 30.8066 88.4433 57.9132 87.9366 59.4332Z" fill="#5B5B69"/>
<path d="M109.66 29.6032C107.823 31.6932 101.427 39.6732 99.9067 42.3332C99.78 42.5232 100.033 42.7132 100.16 42.5232C102.25 40.3698 108.33 32.1365 109.913 29.7932C110.04 29.6665 109.787 29.4765 109.66 29.6032Z" fill="#5B5B69"/>
<path d="M119.857 9.96988C119.73 10.0966 119.603 10.3499 119.667 10.3499C119.73 10.2232 119.793 10.0966 119.857 9.96988Z" fill="#5B5B69"/>
<path d="M120.49 9.33658C122.897 7.43658 125.747 10.6032 125.24 9.65324C124.29 7.94325 121.883 8.13325 120.49 9.33658Z" fill="#5B5B69"/>
<path d="M119.857 9.96986C120.047 9.71652 120.237 9.52652 120.49 9.33652C120.237 9.52652 120.047 9.71652 119.857 9.96986Z" fill="#5B5B69"/>
<path d="M125.43 18.8999C125.177 18.9633 125.24 19.2799 125.43 19.3433C127.14 19.8499 129.04 18.0133 128.28 16.0499C127.963 15.3533 126.76 14.5933 127.14 14.9099C127.837 15.5433 128.027 16.8733 127.583 17.6966C127.14 18.4566 126.253 18.7099 125.43 18.8999Z" fill="#5B5B69"/>
<path d="M99.3999 8.89323C99.3366 7.18323 101.807 5.85323 103.073 8.0699C102.947 9.77989 103.517 10.3499 103.77 9.90656C104.403 8.6399 103.58 4.96656 103.453 5.66323C103.39 6.10656 103.263 6.61323 103.2 7.1199C101.807 5.53656 99.1466 6.42323 99.3999 8.89323C99.3999 8.95656 99.3999 8.95656 99.3999 8.89323Z" fill="#5B5B69"/>
<path d="M100.35 17.6332C106.557 17.6966 106.557 16.2399 100.35 17.6332C100.287 17.5699 100.287 17.6332 100.35 17.6332Z" fill="#5B5B69"/>
<path d="M9.90997 23.9033C8.64331 27.0066 7.43998 30.6166 6.99664 33.9733C6.99664 34.0999 7.18664 34.1633 7.24998 34.0366C9.02331 30.1099 10.2266 23.2066 9.90997 23.9033Z" fill="#5B5B69"/>
<path d="M20.6133 36.1266C19.6633 33.7833 19.5366 30.9966 20.2966 28.59C20.2966 28.5266 20.17 28.4633 20.17 28.5266C18.27 33.15 19.9166 40.4966 25.2366 42.2066C25.4266 42.27 25.5533 42.0166 25.4266 41.89C23.4 40.18 21.6266 38.66 20.6133 36.1266Z" fill="#5B5B69"/>
<path d="M25.68 39.1666C23.8433 36.6966 23.1466 33.9099 23.1466 30.8699C23.1466 28.1466 23.3366 25.2333 21.7533 22.8266C20.74 21.2433 18.9667 20.0399 17.0667 20.5466V20.6099C21.12 21.1166 22.1333 25.1066 22.1333 28.5899C22.1333 31.2499 21.9433 33.8466 22.8933 36.3799C24.35 40.2433 27.8333 44.1699 32.0766 44.8033C32.3933 44.8666 32.71 44.4233 32.33 44.2333C29.86 42.9033 27.4533 41.5733 25.68 39.1666Z" fill="#5B5B69"/>
<path d="M58.2966 82.4865C58.4233 82.6132 58.6133 82.8032 58.74 82.9299C58.74 82.9299 58.8033 82.9299 58.74 82.9299C58.6133 82.8032 58.4233 82.6132 58.2966 82.4865C58.2966 82.4865 58.2333 82.4865 58.2966 82.4865Z" fill="#5B5B69"/>
<path d="M43.73 25.5499C44.8067 25.0433 45.6933 24.0933 46.58 23.3333C46.8967 23.0799 46.4533 22.5733 46.1367 22.8899C45.25 23.6499 44.1733 24.3466 43.4767 25.2966C43.35 25.4233 43.6033 25.6133 43.73 25.5499Z" fill="#5B5B69"/>
<path d="M48.227 21.6866C48.1632 21.6866 48.1632 21.7504 48.227 21.7504C48.2908 21.7504 48.2908 21.6866 48.227 21.6866Z" fill="#5B5B69"/>
<path d="M40.4367 17.7599C41.9567 17.8866 35.75 15.0366 27.5167 19.8499C29.5433 18.7733 33.9133 17.1266 40.4367 17.7599Z" fill="#5B5B69"/>
<path d="M27.5167 19.85C26.6933 20.2933 26.25 20.6733 26.25 20.6733C26.63 20.3567 27.0733 20.1033 27.5167 19.85Z" fill="#5B5B69"/>
<path d="M76.4099 52.2133C75.7766 52.7199 75.2066 53.2899 74.5733 53.7966C74.6999 53.4799 74.7633 53.1633 74.8899 52.8466C74.9533 52.6566 74.6366 52.5933 74.5733 52.7833C74.3833 53.2899 74.1933 53.7966 74.0033 54.3033C73.1166 55.0633 72.2933 55.8233 71.4699 56.5833C71.5966 56.2666 71.7233 55.9499 71.8499 55.6333C71.9766 55.3166 71.4066 55.1266 71.2799 55.5066C71.0266 56.1399 70.7733 56.7733 70.5833 57.4066C70.1399 57.8499 69.6966 58.2299 69.1899 58.6733C69.5066 57.6599 69.8866 56.6466 70.2033 55.5699C75.5866 51.4533 75.7766 51.0099 70.3299 55.0633C70.3299 54.8733 69.9499 54.8099 69.8866 55.0633C69.8233 55.2533 69.7599 55.3799 69.6966 55.5699C67.8599 56.9633 66.0233 58.4199 64.1866 59.8133C64.5666 58.8633 64.9466 57.9766 65.1999 57.0266C65.1999 56.9633 65.1366 56.9633 65.1366 57.0266C64.5666 58.1033 64.0599 59.1799 63.6166 60.3199C62.7933 60.9533 61.9699 61.5866 61.1466 62.2833C61.5266 61.2699 61.9066 60.2566 62.2866 59.2433C63.0466 58.6099 63.7433 58.0399 64.5033 57.4066C67.6699 54.8099 70.9633 52.2766 74.0033 49.5533C74.1299 49.4266 73.9399 49.2366 73.8133 49.2999C70.6466 51.5799 67.6699 54.1766 64.6299 56.5833C61.4633 59.1799 58.1066 61.6499 55.1299 64.4999C55.0666 64.5633 55.1299 64.6899 55.2566 64.6266C57.6633 62.9799 59.9433 61.1433 62.1599 59.2433C61.6533 60.3199 61.2099 61.4599 60.7033 62.5366C59.3733 63.5499 58.1066 64.5633 56.7766 65.5766C58.0433 64.6266 59.3099 63.6766 60.6399 62.7266C60.4499 63.2333 60.1966 63.6766 60.0066 64.1833C59.1833 66.1466 58.1066 68.1733 57.5999 70.1999C57.5366 70.3266 57.7899 70.4533 57.8533 70.3266C58.8033 68.6799 59.3733 66.7166 60.0699 64.9433C60.3866 64.1199 60.7033 63.2966 61.0199 62.4733C61.8433 61.9033 62.6033 61.2699 63.4266 60.6999C63.2999 61.0166 63.1733 61.3333 63.0466 61.5866C62.4766 62.9166 61.7166 64.2466 61.3999 65.7033C61.3999 65.7666 61.3999 65.7666 61.3999 65.7666C60.6399 66.4633 59.8799 67.1599 59.0566 67.8566C59.8166 67.1599 60.6399 66.4633 61.3999 65.7666C61.4633 65.7666 61.5266 65.7666 61.5899 65.7033C61.6533 65.6399 61.6533 65.5766 61.7166 65.5133C62.7933 64.5633 63.9333 63.6133 65.0099 62.6633C65.0099 62.7266 64.9466 62.7899 64.9466 62.8533C64.5666 64.0566 64.0599 65.2599 63.9966 66.5266C63.9966 66.7166 64.2499 66.7799 64.3133 66.5899C64.9466 65.5133 65.1999 64.1833 65.5166 62.9799C65.6433 62.5999 65.7699 62.2199 65.8333 61.8399C66.5933 61.2066 67.3533 60.5099 68.1133 59.8766C68.0499 60.1299 67.9233 60.3833 67.8599 60.6366C67.0999 62.2199 66.2133 63.9299 65.8333 65.5766C65.7699 65.7666 66.0233 65.8299 66.1499 65.7033C66.5933 65.0066 66.9733 64.2466 67.2899 63.4233C67.3533 63.4233 67.4166 63.4233 67.4166 63.3599C68.1133 62.2199 68.4299 60.8266 68.8099 59.5599C68.8733 59.4333 68.8733 59.3066 68.9366 59.1799C69.3799 58.7999 69.7599 58.4199 70.2033 58.0399C70.0766 58.4199 69.8866 58.7999 69.8866 59.1799C69.8866 59.3066 70.0766 59.4333 70.2033 59.3066C70.5833 58.8633 70.7099 58.2299 70.9633 57.6599C71.0266 57.4699 71.0899 57.3433 71.1533 57.1533C72.0399 56.3933 72.9266 55.5699 73.7499 54.8099C73.1166 56.5833 72.7999 57.2166 72.6099 58.1666C72.5466 58.3566 72.8633 58.5466 72.9899 58.2933C73.3066 57.7233 73.2433 57.7866 74.3833 54.1766C75.0799 53.5433 75.7766 52.9099 76.4733 52.2133C76.6633 52.2766 76.5366 52.1499 76.4099 52.2133ZM68.4299 59.3066C67.6066 60.0033 66.8466 60.7633 66.0233 61.4599C66.2766 60.5733 66.5299 59.6866 66.7833 58.7999C66.9099 58.4199 66.2766 58.2299 66.1499 58.6099C65.7699 59.8133 65.4533 61.0799 65.0733 62.2833C63.9966 63.2966 62.9199 64.3099 61.7799 65.2599C62.4133 64.1199 62.8566 62.7899 63.3633 61.5866C63.5533 61.0799 63.7433 60.5733 63.9966 60.0666C65.8333 58.7366 67.6699 57.3433 69.5066 55.9499C69.1266 57.1533 68.8099 58.2299 68.4299 59.3066Z" fill="#5B5B69"/>
<path d="M74.9533 54.1132C74.51 55.3165 73.94 56.5198 73.6866 57.7865C73.6866 57.9132 73.8766 58.0398 73.94 57.9132C74.5733 56.7732 74.9533 55.4432 75.3966 54.2398C75.5233 53.9232 75.08 53.7965 74.9533 54.1132Z" fill="#5B5B69"/>
<path d="M70.2667 59.5599C70.2033 60.0032 70.0767 60.4466 70.0133 60.8899C69.95 61.2699 69.8233 61.5866 69.8866 61.9666C69.8866 62.1566 70.14 62.1566 70.2033 62.0299C70.3933 61.7132 70.4567 61.3332 70.52 60.9532C70.5833 60.5732 70.71 60.1299 70.7733 59.7499C70.8367 59.3699 70.33 59.1799 70.2667 59.5599Z" fill="#5B5B69"/>
<path d="M33.9766 81.3465C34.04 81.1565 33.9133 80.9665 33.7866 80.9032C33.4066 80.7132 32.9633 80.9032 32.7733 81.2832C32.5833 81.6632 32.5833 82.1065 32.7733 82.4865C32.8366 82.6765 33.09 82.8032 33.28 82.7399C33.4066 82.7399 33.5333 82.8032 33.66 82.8032C33.9766 82.8032 34.04 82.4232 33.7866 82.2332C33.7866 82.1699 33.7866 82.1065 33.7866 82.0432C33.7866 82.1699 33.7866 81.9799 33.7866 81.9799C33.7866 81.9165 33.7866 81.8532 33.7866 81.8532C33.7866 81.7899 33.7866 81.7899 33.7866 81.8532C33.85 81.7899 33.85 81.7265 33.85 81.6632C33.9133 81.5365 33.85 81.7265 33.85 81.5999C33.9133 81.4732 33.9133 81.4099 33.9766 81.3465Z" fill="#5B5B69"/>
<path d="M44.0466 66.21C43.7299 66.0833 43.4766 66.0833 43.1599 66.02C42.2733 65.9566 42.2733 67.4767 43.1599 67.4133C43.4766 67.4133 43.7299 67.35 44.0466 67.2233C44.4899 67.0967 44.4899 66.4 44.0466 66.21Z" fill="#5B5B69"/>
<path d="M50.0633 78.8766C50.6966 78.8766 50.6966 77.8633 50.0633 77.8633C49.43 77.8633 49.43 78.8766 50.0633 78.8766Z" fill="#5B5B69"/>
<path d="M61.3366 80.9032C61.1466 80.6499 60.8299 80.6499 60.6399 80.9032C60.5133 81.0932 60.4499 81.3465 60.3866 81.5999C60.2599 81.9799 60.5766 82.4232 61.0199 82.4232C61.4633 82.4232 61.7166 82.0432 61.6533 81.5999C61.5899 81.4099 61.5266 81.1565 61.3366 80.9032Z" fill="#5B5B69"/>
<path d="M68.5566 75.7098C67.7966 75.7098 67.7966 76.8498 68.5566 76.8498C69.3166 76.9131 69.3166 75.7098 68.5566 75.7098Z" fill="#5B5B69"/>
<path d="M52.7867 59.75C52.0267 59.75 52.0267 61.0167 52.7867 60.9533C53.2933 60.9533 53.8633 60.89 54.3067 60.6367C54.4967 60.51 54.4967 60.1933 54.3067 60.0666C53.8633 59.8133 53.2933 59.75 52.7867 59.75Z" fill="#5B5B69"/>
<path d="M64.25 84.2599C63.7433 83.7533 62.9833 84.5133 63.4266 85.0833C63.6166 85.2733 63.8066 85.5266 63.9966 85.7166C64.5033 86.2866 65.4533 85.3999 64.8833 84.8299C64.6933 84.6399 64.44 84.4499 64.25 84.2599Z" fill="#5B5B69"/>
<path d="M44.2999 86.9833C43.8566 87.3633 43.9199 88.1233 43.9833 88.6299C44.0466 89.4533 45.1866 89.4533 45.2499 88.6299C45.3133 88.1233 45.3766 87.3633 44.9333 86.9833C44.6799 86.8566 44.4899 86.8566 44.2999 86.9833Z" fill="#5B5B69"/>
<path d="M49.3667 92.8733C49.05 92.8733 48.7967 93.1266 48.7967 93.4433C48.7967 93.5699 48.86 93.6966 48.9234 93.8233C48.9867 93.95 49.3034 94.0133 49.3667 94.14H49.43C49.4934 94.0133 49.6834 93.9499 49.81 93.8866C49.9367 93.7599 50 93.6333 50 93.5066C49.9367 93.1266 49.6834 92.8733 49.3667 92.8733Z" fill="#5B5B69"/>
<path d="M15.2933 43.98C14.7233 43.79 14.2166 44.17 14.2166 44.2967C14.2166 44.55 14.2166 44.8033 14.4699 45.0567C14.8499 45.4367 15.3566 45.4367 15.8633 45.2467C16.4333 45.0567 15.7999 44.1067 15.2933 43.98Z" fill="#5B5B69"/>
<path d="M21.88 51.6432C21.88 51.8965 21.88 52.1499 21.9433 52.4032C22.1333 53.0365 23.1467 53.0365 23.2733 52.4032C23.3367 52.1499 23.3367 51.8965 23.3367 51.6432C23.4 50.6932 21.88 50.6932 21.88 51.6432Z" fill="#5B5B69"/>
<path d="M34.2933 49.5532C34.1667 49.5532 34.04 49.5532 33.9767 49.4899C33.47 49.4266 32.9633 49.6799 32.9633 50.2499C32.9633 50.8199 33.47 51.1366 33.9767 51.0099C34.1033 51.0099 34.23 51.0099 34.2933 50.9466C35.2433 50.8832 35.2433 49.6799 34.2933 49.5532Z" fill="#5B5B69"/>
<path d="M36.4466 41.0666C36.51 41.1933 36.51 41.32 36.5733 41.51C36.7 42.0166 37.3966 42.0166 37.5233 41.51C37.5866 41.3833 37.5866 41.2566 37.65 41.13C37.65 41.0666 37.65 41.0666 37.65 41.0033V40.94V40.8766V40.8133C37.5866 40.56 37.3333 40.4333 37.08 40.4333H37.0166H36.9533C36.7 40.4333 36.4466 40.56 36.3833 40.8133V40.8766V40.94V41.0033C36.3833 41.0033 36.3833 41.0666 36.4466 41.0666Z" fill="#5B5B69"/>
<path d="M37.7134 49.6166C37.9034 49.6166 38.03 49.5533 38.1567 49.4266C38.22 49.4266 38.2834 49.4899 38.41 49.4899C38.9167 49.4899 39.6767 49.6166 40.0567 49.1733C40.1834 48.9833 40.1834 48.7933 40.0567 48.6666C39.6767 48.2233 38.9167 48.3499 38.41 48.3499C38.3467 48.3499 38.22 48.35 38.1567 48.4133C38.03 48.2866 37.9034 48.2233 37.7134 48.2233C36.7634 48.16 36.7634 49.6166 37.7134 49.6166Z" fill="#5B5B69"/>
<path d="M46.01 38.9766C45.8833 38.9766 45.7567 38.9133 45.63 38.8499C45.44 38.7233 45.1867 38.7866 44.9967 38.9133L44.9333 38.9766C44.8067 39.1666 44.8067 39.4199 44.9333 39.5466L44.9967 39.6099C45.1867 39.7999 45.44 39.7999 45.63 39.6733C45.7567 39.6099 45.8833 39.6099 46.01 39.5466C46.39 39.5466 46.39 39.0399 46.01 38.9766Z" fill="#5B5B69"/>
<path d="M46.1999 40.94C46.5166 41.4466 46.7066 41.9533 47.2133 42.3333C47.4666 42.5233 47.7833 42.27 47.7833 42.0166C47.7833 41.4466 47.4666 40.8766 47.2133 40.37C46.8966 39.6733 45.8199 40.3066 46.1999 40.94Z" fill="#5B5B69"/>
<path d="M58.2966 35.8732C58.8666 35.8732 59.12 35.3032 58.8666 34.8599C58.8033 34.6699 58.6766 34.4799 58.6133 34.3532C58.4866 34.0999 58.1066 34.0999 57.98 34.3532C57.8533 34.5432 57.79 34.7332 57.7266 34.8599C57.4733 35.3032 57.7266 35.8732 58.2966 35.8732Z" fill="#5B5B69"/>
<path d="M15.7999 14.8466C15.1666 14.8466 15.1666 15.7966 15.7999 15.7966C16.4333 15.7966 16.4333 14.8466 15.7999 14.8466Z" fill="#5B5B69"/>
<path d="M5.47665 37.9633C4.58998 37.9633 4.58998 39.2933 5.47665 39.2933C6.36331 39.2933 6.36331 37.9633 5.47665 37.9633Z" fill="#5B5B69"/>
<path d="M7.31332 38.2166C6.74332 37.6466 5.85665 38.5333 6.42665 39.1033C6.67998 39.3566 6.86998 39.5466 7.18665 39.7366C7.62998 40.0533 8.26331 39.4199 7.94665 38.9766C7.75665 38.6599 7.56665 38.4066 7.31332 38.2166Z" fill="#5B5B69"/>
<path d="M10.2904 46.8937C10.3542 46.8937 10.3542 46.83 10.2904 46.83C10.2265 46.83 10.2265 46.8937 10.2904 46.8937Z" fill="#5B5B69"/>
<path d="M41.1966 89.6432C40.7533 90.0232 40.69 90.6566 41.07 91.0366C41.3233 91.2899 41.5766 91.2266 41.8299 91.0366C42.0199 90.9732 42.0833 90.8466 42.2099 90.6566C42.2099 90.6566 42.2099 90.6566 42.2733 90.5932C42.2733 90.5932 42.2733 90.5932 42.3366 90.5932C42.2733 90.6566 42.3366 90.5932 42.3999 90.5932C42.3999 90.5932 42.3999 90.5932 42.4633 90.5932C42.4633 90.5932 42.4633 90.5932 42.5266 90.5932C42.7166 90.8466 43.0333 90.9732 43.3499 90.7832C43.6666 90.5932 43.7299 90.2132 43.6033 89.8966C43.0333 89.0099 41.8933 89.0732 41.1966 89.6432Z" fill="#5B5B69"/>
<path d="M62.35 48.0965C56.27 50.3132 50.4433 53.1632 44.6166 55.8232C50.6333 53.4165 56.7133 51.2632 62.4766 48.3499C62.6666 48.2865 62.54 48.0332 62.35 48.0965Z" fill="#5B5B69"/>
<path d="M30.4933 8.76667C30.1766 9.08333 30.3033 9.71667 30.8733 9.71667C31.5066 9.71667 31.57 8.89333 31.1266 8.70333C33.5333 8.45 35.94 8.45 38.41 8.57666C38.6 8.57666 38.6633 8.26 38.4733 8.19667C32.33 6.86667 25.3 8.13334 19.41 11.1733C19.22 11.0467 19.0933 11.3 18.9033 11.4267C15.7366 13.1367 12.95 15.29 10.86 17.8867C10.67 18.0767 10.9233 18.33 11.1766 18.2033C13.14 16.4933 15.1033 14.91 17.1933 13.5167C17.13 13.5167 22.26 9.65333 30.4933 8.76667Z" fill="#5B5B69"/>
<path d="M89.52 41.8899C89.71 42.1432 90.1533 42.0165 90.0266 41.6365C88.95 37.7099 84.01 37.4566 81.4133 39.8632C81.2233 40.0532 81.54 40.3699 81.73 40.1799C84.58 37.8999 87.6833 39.2932 89.52 41.8899Z" fill="#5B5B69"/>
<path d="M89.6467 42.9032C89.7733 43.0299 89.9633 42.8399 89.9 42.7132C87.9367 38.3432 82.2367 40.6232 83.3133 40.3065C85.72 39.6732 88.1267 41.0665 89.6467 42.9032Z" fill="#5B5B69"/>
</svg>
