<svg width="77" height="134" viewBox="0 0 77 134" fill="none" xmlns="http://www.w3.org/2000/svg">
<path d="M0.166676 90.0557C0.121696 85.0526 0.914032 79.4508 2.13541 73.901C2.74783 71.1122 3.15611 68.2716 4.13875 65.5797C5.8826 60.8049 8.34266 56.4453 11.9411 52.7984C13.9859 50.7259 16.4148 49.2692 19.2659 48.5738C20.1516 48.3593 21.0685 48.425 21.9716 48.3696C22.4145 48.342 22.539 48.297 22.2761 47.8437C18.7953 41.9444 16.6259 35.5573 15.2108 28.8864C13.6641 21.5927 14.8855 14.6969 18.3801 8.22672C20.8506 3.65606 24.8572 1.15794 30.0472 0.54206C34.3549 0.0299801 38.4481 0.732361 42.3683 2.5281C47.24 4.7598 51.4543 7.95684 55.4852 11.4376C63.4812 18.3472 69.5847 26.6166 73.6709 36.3738C75.5566 40.8718 76.7399 45.5428 76.9372 50.4076C77.1759 56.3311 75.1414 61.5246 71.4219 66.0814C70.287 67.4688 68.9999 68.7144 67.5986 69.8424C64.2528 72.5343 60.3153 73.5308 56.1529 73.8006C53.8936 73.946 51.6203 73.9909 49.361 73.7038C48.7797 73.6311 48.7139 73.7626 48.9285 74.292C50.8453 79.0322 52.3677 83.8935 53.1393 88.9624C54.4091 97.294 54.4783 105.588 52.1151 113.767C50.9699 117.736 49.3817 121.524 46.9493 124.877C42.0188 131.666 35.3791 134.721 26.9678 133.756C22.02 133.188 17.7988 131.008 13.8302 128.116C10.5674 125.739 8.0451 122.822 6.2805 119.189C3.1492 112.739 1.13202 105.996 0.599176 98.8234C0.398496 96.1349 0.152836 93.45 0.166676 90.0557ZM42.0396 61.7149L42.0223 61.6976C42.4583 62.3723 42.8942 63.0504 43.3786 63.8047C44.4132 62.22 45.375 60.7115 46.5168 59.1787C46.6206 59.6043 46.4234 59.7288 46.3196 59.888C45.51 61.1094 44.7038 62.3377 43.8699 63.5452C43.6174 63.912 43.562 64.2164 43.8699 64.5659C44.0187 64.732 44.126 64.9396 44.2298 65.1368C44.4408 65.5347 44.5896 65.4344 44.7488 65.0987C45.0221 64.5175 45.3128 63.9466 45.593 63.3687C45.6588 64.0677 45.2712 64.5936 45.0048 65.161C44.6415 65.9326 44.7384 66.3513 45.4754 66.9152L45.4615 66.9014C45.3993 67.1747 45.5723 67.372 45.6864 67.5865C46.33 68.8079 47.0289 70.0085 47.5929 71.2679C47.9043 71.9634 48.3333 72.1814 49.0357 72.216C51.3747 72.3267 53.7171 72.2852 56.0318 72.0187C58.8933 71.69 61.7235 71.1676 64.2528 69.621C71.2039 65.3755 76.0133 56.6667 74.5705 47.3835C73.5429 40.7888 71.0932 34.7788 67.8235 29.0594C63.7684 21.9629 58.3224 16.0498 52.0494 10.8702C48.8766 8.25094 45.5342 5.8843 41.7974 4.1197C38.0606 2.3551 34.1577 1.63542 30.0299 2.14404C25.1756 2.74262 21.6394 5.21652 19.3974 9.53114C18.5739 11.1193 17.9061 12.7905 17.3836 14.5032C16.3906 17.759 15.8439 21.0806 16.1657 24.4956C16.8612 31.8689 19.2901 38.7162 22.5183 45.3145C22.9888 46.2763 23.5597 47.1829 24.2552 48.0963C25.2517 46.2971 26.217 44.5567 27.1927 42.799C27.345 42.9444 27.3415 43.0205 27.2931 43.1104C26.4142 44.8197 25.5181 46.5185 24.487 48.1413C24.4213 48.2416 24.231 48.2866 24.3348 48.4631C24.5355 48.8021 25.6323 48.7675 25.8399 48.4146C27.4142 45.7193 28.985 43.0205 30.5628 40.3286C30.632 40.211 30.6389 40.0034 30.8949 40.038C30.9503 40.3597 30.7358 40.595 30.5974 40.8338C29.1303 43.3561 27.6529 45.875 26.1651 48.3835C25.9264 48.7848 25.8503 48.9751 26.4142 49.1689C27.7429 49.6256 29.0058 50.2519 30.2237 50.9612C32.4381 52.2483 34.6456 53.5458 36.5451 55.3381C37.0018 54.6841 37.2094 53.8953 37.9257 53.5043C37.68 54.0579 37.3824 54.5769 37.0572 55.0751C36.8254 55.428 36.8392 55.6633 37.1748 55.9782C38.1333 56.8778 38.9948 57.8743 39.8217 58.8984C40.5691 59.8257 41.2992 60.7737 42.0396 61.7149ZM1.81018 89.862C1.77212 92.585 1.9382 95.2976 2.19424 98.0068C2.67172 103.076 3.44675 108.082 5.32207 112.857C6.53307 115.943 7.87555 118.967 9.82007 121.673C12.4739 125.365 16.1553 127.856 19.9579 130.178C20.9959 130.811 22.1238 131.327 23.3245 131.61C25.7638 132.188 28.2411 132.489 30.7462 132.309C36.0988 131.922 40.6175 129.832 44.0983 125.649C47.1604 121.971 49.0911 117.722 50.3851 113.172C52.0528 107.311 52.4334 101.335 52.0459 95.2561C51.5096 86.8898 49.4163 78.9491 45.8975 71.3752C44.0775 67.4619 41.749 63.8393 39.1713 60.3724C35.6767 55.6737 31.0852 52.4351 25.7776 50.1308C24.9057 49.7502 24.0026 49.4665 23.0304 49.4249C19.5877 49.2762 16.7124 50.5529 14.2143 52.833C9.57441 57.0646 6.61958 62.31 4.97262 68.3165C4.52282 69.9531 4.25293 71.6381 3.89309 73.2989C2.70285 78.7554 1.79634 84.2498 1.81018 89.862Z" fill="#5B5B69"/>
<path d="M19.2278 114.812C19.3697 114.276 19.1413 113.94 18.6258 113.843C18.2279 113.767 18.4078 113.387 18.2209 113.172C16.7331 111.452 15.709 109.446 14.7713 107.394C13.5153 104.647 12.9825 101.723 12.55 98.7472C11.8753 94.1108 12.1556 89.4744 12.332 84.845C12.46 81.5164 12.7092 78.1672 13.9202 74.9874C14.6225 73.1398 15.3907 71.3371 16.529 69.7005C17.6985 68.0224 19.387 67.0225 21.1308 66.0952C21.8885 65.6939 22.7086 65.4759 23.5355 65.2579C25.4385 64.7597 27.2204 65.1126 28.9435 65.9153C30.9641 66.8564 32.6872 68.2058 34.1888 69.8424C38.1921 74.2055 40.5864 79.4266 42.1226 85.063C43.4547 89.9416 44.0844 94.9274 43.6831 99.9998C43.3302 104.456 41.9185 108.567 39.5761 112.38C36.5209 117.359 29.1165 119.158 24.5043 117.237C22.9715 116.601 21.463 115.943 20.1274 114.94C19.8091 114.701 19.8022 114.712 19.2278 114.812ZM34.3203 71.7973C34.393 72.0914 34.2615 72.3128 34.0885 72.5343C33.5799 73.1951 33.0989 73.8768 32.5696 74.5238C32.2374 74.9286 32.3101 75.2608 32.6284 75.6829C33.2892 74.811 33.919 73.9875 34.5383 73.1605C35.0781 72.4443 35.0642 72.3855 34.3065 71.8111C33.7875 70.7074 33.6491 70.6866 32.9363 71.5966C32.7979 71.7731 32.6837 71.9772 32.5211 72.126C31.8879 72.7142 31.8499 73.3889 32.2201 74.2089C32.7149 73.555 33.182 72.9322 33.656 72.3128C33.829 72.081 33.9812 71.8181 34.3203 71.7973ZM21.9577 107.733C22.8954 106.328 24.0303 105.006 23.9403 102.989C23.4421 103.778 23.0546 104.46 22.5978 105.096C22.0269 105.892 21.5841 106.691 21.9301 107.709C21.5875 107.688 21.6048 107.245 21.2865 107.155C20.8575 107.819 20.4596 108.501 19.9925 109.131C19.5427 109.743 19.7468 110.273 20.0582 110.94C20.7191 109.805 21.4457 108.833 21.9577 107.733ZM29.9469 81.3504C30.5766 80.2016 31.4451 79.2225 32.2236 78.1775C32.535 77.7589 32.6076 77.4163 32.2374 76.9631C31.5419 77.8385 30.9226 78.7277 30.1891 79.5131C29.6251 80.1151 29.6286 80.6791 29.9573 81.3365C30.0991 82.3987 30.2444 83.4575 30.4001 84.6097C31.4243 83.3468 32.362 82.1358 33.3688 80.9836C33.8394 80.4438 33.701 80.0529 33.2996 79.5719C32.8498 80.1601 32.4346 80.7276 31.9952 81.2708C31.58 81.7863 31.2617 82.423 30.5385 82.6133C30.6077 82.3538 30.7254 82.1392 30.8707 81.9489C31.4693 81.1532 32.0506 80.3435 32.6941 79.5858C33.0643 79.1498 33.1162 78.7796 32.6976 78.2986C32.1094 79.0841 31.5316 79.8591 30.9468 80.6307C30.6908 80.9732 30.4417 81.3365 29.9469 81.3504ZM26.5526 110.985C26.5111 111.03 26.4661 111.075 26.4246 111.12C26.0509 110.93 26.0717 110.529 25.9506 110.193C25.8745 110.221 25.8122 110.241 25.7499 110.266C25.5907 110.324 25.4074 110.522 25.2655 110.331C25.1271 110.144 25.3589 110.016 25.4696 109.885C25.6011 109.729 25.7949 109.612 25.8779 109.435C26.0821 109.017 26.2205 108.241 25.954 108.176C25.2759 108.01 25.6945 107.757 25.8329 107.612C26.3554 107.072 26.3104 106.394 26.4246 105.636C26.1063 105.937 25.871 106.172 25.6253 106.39C25.5388 106.467 25.4212 106.511 25.3174 106.422C25.1928 106.318 25.2932 106.204 25.352 106.124C25.5665 105.833 25.7707 105.525 26.0302 105.276C26.5734 104.754 26.781 104.121 26.781 103.363C26.3831 103.564 26.1755 104.121 25.5734 103.989C26.0267 103.045 27.2861 102.588 27.0716 101.287C26.7049 101.456 26.5422 101.969 26.0405 101.799C26.2758 100.986 27.4695 100.623 27.0232 99.4981C26.9055 99.6296 26.8363 99.7195 26.7568 99.7991C26.6322 99.9271 26.4938 100.121 26.307 99.9548C26.1167 99.7852 26.3208 99.6261 26.4177 99.4911C26.5907 99.2524 26.7948 99.0379 26.954 98.7922C27.3173 98.2386 27.1131 97.6504 26.5422 97.5778C26.5561 97.512 26.5492 97.4324 26.5838 97.3805C26.9955 96.7889 27.4868 96.2041 26.6633 95.5571C26.6357 95.5364 26.6495 95.4256 26.6806 95.3807C27.0474 94.8028 26.7014 94.2423 26.6772 93.6887C26.4454 93.6091 26.2862 93.8756 25.9748 93.7026C26.5353 93.1697 26.653 92.54 26.345 91.8307C26.1582 91.7407 25.9886 92.0902 25.743 91.8826C26.1616 91.3048 26.5215 90.72 26.1478 89.9208C25.8641 90.2737 25.6565 90.6439 25.3451 90.8861C24.8711 91.2598 24.8884 91.675 24.9887 92.1975C25.2378 93.5088 25.4627 94.8236 25.4904 96.1661C25.4973 96.5398 25.3728 96.9861 25.8329 97.256C25.9713 97.3356 25.8814 97.557 25.7845 97.6885C25.5631 97.986 25.5977 98.3251 25.5977 98.6642C25.5942 100.515 25.6876 102.366 25.2067 104.197C24.6185 106.449 24.0683 108.719 24.2483 111.089C24.3486 112.407 24.5078 113.701 25.1513 114.892C25.3209 115.203 25.4281 115.234 25.6772 114.978C26.7602 113.881 27.8501 112.795 28.9539 111.715C29.2237 111.452 29.3068 111.172 29.2687 110.805C28.9677 107.875 29.5109 105.02 30.1441 102.193C30.6769 99.8095 30.6527 97.4359 29.94 95.1523C29.2272 92.8687 28.9919 90.6024 29.241 88.2496C29.376 86.9867 29.2826 85.7273 29.1234 84.3571C28.3345 85.2636 27.6287 86.1079 26.8882 86.921C26.5042 87.3465 26.4661 87.7687 26.7325 88.343C27.2723 87.6441 27.7671 87.0005 28.2688 86.3639C28.3864 86.2151 28.4971 85.9522 28.7393 86.1528C28.9262 86.3085 28.7636 86.4919 28.6598 86.6303C28.1408 87.3189 27.6494 88.0316 27.0751 88.6683C26.6322 89.163 26.6495 89.6578 26.819 90.419C27.4453 89.4848 27.9747 88.6856 28.5144 87.8932C28.6286 87.7271 28.6909 87.3811 28.9885 87.5645C29.2653 87.7341 29.0404 87.9832 28.9296 88.1562C28.3691 89.0074 27.8363 89.8793 27.2031 90.6785C26.7602 91.239 26.781 91.7373 27.0543 92.3497C27.5733 91.8549 28.1754 91.4501 27.8155 90.6162C27.7532 90.4709 27.7602 90.2737 27.9712 90.2391C28.1269 90.2114 28.203 90.3567 28.2515 90.4882C28.4003 90.9242 29.03 91.284 28.4625 91.8342C28.4314 91.8653 28.4695 91.9656 28.4764 92.0314C28.5525 92.7061 28.6252 93.3808 28.7047 94.0555C28.722 94.1973 28.6425 94.398 28.8639 94.4534C29.2826 94.5572 29.1511 94.8028 28.9885 95.0035C28.6182 95.4602 28.7186 95.9412 28.7982 96.4913C29.1199 96.2491 29.2618 95.9654 29.4452 95.7094C29.5351 95.5848 29.6355 95.4187 29.8223 95.5675C29.9503 95.6713 29.9192 95.8166 29.8362 95.9343C29.5905 96.2872 29.3552 96.6505 29.075 96.9723C28.7359 97.3598 28.7151 97.7646 28.895 98.3147C29.1372 98.0483 29.3275 97.8303 29.5248 97.6227C29.6597 97.4774 29.8258 97.2352 30.0195 97.4013C30.2652 97.6124 29.9953 97.8027 29.8604 97.9618C29.6286 98.2386 29.3933 98.5189 29.1338 98.7715C28.812 99.0898 28.7428 99.4462 28.8985 99.9479C29.1269 99.6814 29.2964 99.4462 29.5005 99.249C29.6839 99.069 29.7946 98.5673 30.1268 98.8476C30.4209 99.0967 30.0057 99.3528 29.8535 99.5742C29.6355 99.889 29.4002 100.204 29.1303 100.474C28.6805 100.924 28.6701 101.439 28.7463 102.013C29.03 101.944 29.1545 101.491 29.4071 101.733C29.6874 102.003 29.3379 102.245 29.158 102.384C28.4937 102.903 28.4522 103.657 28.4937 104.352C28.5214 104.788 28.639 105.166 28.3414 105.546C28.2722 105.636 28.3103 105.809 28.2999 105.948C28.2203 107.086 28.12 108.221 27.8536 109.352C27.4903 109.162 27.7602 108.705 27.4384 108.536C26.5007 109.432 26.5007 109.432 26.5526 110.985ZM24.8019 68.2404C24.1548 69.2853 23.5978 70.1607 23.0649 71.05C22.8366 71.4306 22.9923 71.8457 23.0476 72.2436C23.0649 72.3613 23.1307 72.5343 23.3175 72.3924C23.4525 72.2886 23.5874 72.0603 23.7535 72.2955C23.8711 72.4616 23.6912 72.6312 23.5943 72.7765C23.321 73.1917 23.0961 73.6069 23.3833 74.1536C23.9472 73.5204 24.4697 72.9287 24.9991 72.3405C25.1063 72.2194 25.2413 72.1087 25.4074 72.2471C25.5112 72.3371 25.4766 72.472 25.4039 72.5516C24.8261 73.1848 24.3867 73.9736 23.6428 74.4165C23.2898 74.6276 23.3037 74.8006 23.3556 75.0981C23.4871 75.8905 23.6151 76.6863 23.7258 77.4821C23.9611 79.2121 24.5285 80.8764 24.6981 82.6963C26.0025 81.2293 26.0509 81.1774 25.6842 80.3435C25.3451 80.4888 25.1963 81.0182 24.6635 80.8556C24.833 80.4023 25.1755 80.129 25.4523 79.8072C25.8226 79.3747 25.5423 78.9872 25.435 78.5616C25.1167 78.6965 24.9472 79.0425 24.5527 78.9457C24.6565 78.3748 25.4835 78.1083 25.1548 77.3956C25.1236 77.3298 25.269 77.2157 25.3451 77.2745C25.7395 77.5686 25.8364 77.1984 26.0025 76.9942C26.0959 76.88 26.2032 76.7762 26.345 76.8524C26.4938 76.9319 26.4557 77.0877 26.3969 77.2122C26.3485 77.3125 26.2793 77.406 26.2135 77.4994C25.7361 78.1948 25.7326 78.2156 26.1513 78.9976C26.4004 78.6896 26.6426 78.3886 26.8848 78.0945C26.9955 77.9596 27.1097 77.7278 27.3069 77.8731C27.518 78.0322 27.3726 78.2433 27.2412 78.4059C27.0301 78.6723 26.8398 78.963 26.5907 79.1913C26.1443 79.6031 26.1167 80.0529 26.3796 80.6307C26.6979 80.2293 26.9851 79.8591 27.2827 79.4923C27.3796 79.3712 27.5007 79.2086 27.6737 79.3263C27.8813 79.4647 27.7705 79.6481 27.6598 79.7968C27.345 80.212 27.0439 80.6411 26.691 81.0217C26.2689 81.4818 26.2827 81.9732 26.4557 82.6063C26.7637 82.2257 27.0163 81.9074 27.2792 81.5995C27.3934 81.4645 27.5318 81.2777 27.7256 81.43C27.9159 81.5787 27.7948 81.7552 27.6771 81.904C27.3934 82.2569 27.1408 82.641 26.819 82.9558C26.2689 83.4921 26.3346 84.1045 26.473 84.8969C26.9609 84.2671 27.3657 83.7378 27.7809 83.2118C27.8986 83.0631 28.0197 82.8105 28.2584 83.0112C28.4418 83.1669 28.2895 83.3537 28.1823 83.4921C27.7013 84.1218 27.2273 84.7585 26.7222 85.3674C26.4315 85.7169 26.3554 86.0525 26.6045 86.5577C27.3899 85.6165 28.1131 84.7204 28.8708 83.8623C29.0819 83.6236 29.113 83.4194 29.068 83.1323C28.7463 81.1877 28.3622 79.264 27.6321 77.4198C26.7741 75.2539 26.0405 73.0464 25.3866 70.8077C25.2863 70.4652 25.4247 69.96 24.8538 69.8459C24.7327 69.8216 24.8019 69.6417 24.8641 69.5552C25.1167 69.1815 24.9022 68.8321 24.8019 68.2404ZM34.5037 103.332C33.1785 104.657 32.3723 106.197 30.8534 107.2C30.9468 106.736 31.1925 106.498 31.4001 106.245C32.272 105.172 33.0989 104.058 34.0504 103.062C34.8912 102.183 34.7182 101.197 34.7148 99.9998C33.9051 101.017 33.2719 101.93 32.5211 102.733C31.1198 104.224 30.4624 105.961 30.4071 107.996C30.3586 109.826 30.4832 111.625 30.8396 113.58C32.3066 111.674 34.4483 110.435 34.6663 107.833C33.6145 108.809 32.9536 110.127 31.5869 110.933C31.6561 110.525 31.8326 110.349 31.9848 110.172C32.4658 109.601 32.9294 109.01 33.4553 108.484C33.8982 108.041 34.0228 107.584 33.7979 106.965C32.919 107.75 32.3896 108.868 31.2651 109.318C31.8291 108.373 32.5557 107.56 33.3169 106.806C34.2719 105.861 34.3307 104.695 34.5037 103.332ZM32.362 115.722C32.3896 115.376 32.5972 115.196 32.7841 115.006C33.6698 114.099 34.5175 113.148 35.469 112.314C36.2925 111.591 36.4828 110.684 36.6178 109.491C36.3237 109.833 36.1541 110.044 35.9742 110.238C34.3272 112.013 32.6768 113.788 31.0229 115.559C30.7842 115.815 30.5455 116.085 30.1649 116.089C29.8915 114.753 29.6286 113.459 29.3137 111.923C28.075 113.207 26.9367 114.366 25.8295 115.552C25.4593 115.947 25.6599 116.618 26.1236 116.694C27.7567 116.961 29.3933 117.116 31.0437 116.822C32.5765 116.549 33.9951 115.982 35.3168 115.172C35.5728 115.016 35.7424 114.771 35.6628 114.494C35.5659 114.155 35.2891 114.674 35.1057 114.414C35.4933 113.836 36.2199 113.4 36.0088 112.47C34.7597 113.553 33.8186 114.937 32.362 115.722ZM16.0654 101.55C15.5637 102.058 15.4356 102.802 14.6295 102.979C14.8647 102.332 15.2107 101.879 15.5325 101.418C15.8924 100.903 15.9789 100.412 15.6398 99.8302C15.19 100.252 15.1069 100.993 14.37 101.204C14.4495 100.692 14.671 100.315 14.9443 100.007C15.7021 99.1521 15.4841 98.2386 15.228 97.2214C14.8647 97.6262 14.6744 98.1279 13.9305 98.2836C14.8544 97.0795 15.536 95.9516 14.9097 94.5295C14.5464 94.8028 14.453 95.4568 13.7299 95.4429C14.1174 94.8202 14.4599 94.2631 14.8025 93.7095C15.19 93.0832 14.9478 92.4258 15.0031 91.592C14.498 92.3428 14.1139 92.9275 13.7126 93.495C13.6261 93.6161 13.46 93.7614 13.3112 93.6541C13.1382 93.5296 13.2939 93.3635 13.37 93.2389C13.8094 92.5262 14.2316 91.7996 14.7056 91.111C15.1415 90.4778 15.017 89.8239 14.9547 89.0143C14.3769 89.9519 13.9132 90.7858 13.3596 91.5539C13.1417 91.8549 13.0552 92.1213 13.0552 92.4743C13.0586 95.1315 13.3112 97.7681 13.678 100.391C13.8959 101.948 14.2627 103.477 14.8198 105.183C15.2142 103.851 16.7539 103.155 16.0654 101.55ZM34.521 83.5371C34.3791 83.6893 34.2823 83.7793 34.2027 83.8796C33.3896 84.883 32.5834 85.8899 31.7634 86.8864C31.6008 87.0836 31.3828 87.4331 31.1337 87.2358C30.9088 87.0594 31.2375 86.7999 31.3724 86.6234C32.182 85.5923 33.009 84.5682 33.8394 83.5509C34.7286 82.461 34.7424 82.3053 33.9259 81.0528C33.393 81.7137 32.881 82.3711 32.3412 83.0077C31.8464 83.5924 31.4347 84.2844 30.7115 84.6131C30.3725 84.7654 30.3552 84.9557 30.3932 85.2325C30.587 86.7237 30.5178 88.215 30.3898 89.7063C30.3517 90.1388 30.3206 90.5816 30.4693 91.0937C31.5904 89.6094 32.5765 88.1389 33.7321 86.8172C34.5867 85.8414 34.7943 84.8311 34.521 83.5371ZM31.2478 93.1213C31.2444 92.7441 31.4554 92.4812 31.6596 92.2217C32.4658 91.1837 33.2304 90.1111 34.1058 89.1354C34.8116 88.3499 34.5867 87.4988 34.5348 86.6096C34.4103 86.6476 34.3757 86.7307 34.3203 86.7999C33.0713 88.433 31.8187 90.0661 30.5628 91.6958C30.4347 91.8653 30.459 92.0452 30.5005 92.2113C30.8534 93.54 31.2202 94.8651 31.6111 96.301C32.5384 95.1696 33.4103 94.1351 34.2477 93.0694C34.5314 92.7061 34.4656 92.2528 34.4068 91.7615C33.438 92.668 32.964 93.924 31.7634 94.4949C31.8291 94.2527 31.9468 94.0486 32.0921 93.8652C32.7599 93.0071 33.4069 92.1317 34.1127 91.3082C34.5729 90.7719 34.5625 90.1976 34.5175 89.4814C33.3169 90.6924 32.5834 92.1698 31.2478 93.1213ZM33.4968 78.4647C33.6698 78.2537 33.8117 78.0841 33.9466 77.9077C34.6144 77.0496 35.2718 76.1846 35.9465 75.3334C36.0745 75.1708 36.2406 74.8767 36.4828 75.0601C36.7665 75.2746 36.4448 75.4511 36.3271 75.6068C35.8081 76.2918 35.2753 76.9665 34.7494 77.6482C34.4587 78.0253 34.175 78.4059 33.8913 78.7865C33.5868 79.1879 33.9086 79.5339 34.1196 79.738C34.3342 79.9491 34.4449 79.5442 34.5694 79.3955C34.9466 78.9457 35.2995 78.4716 35.6455 77.9942C36.1714 77.2676 37.0676 76.5583 37.0433 75.7521C37.0191 74.9113 36.1818 74.157 35.649 73.3958C35.6351 73.3785 35.6178 73.3612 35.6074 73.3405C35.4033 72.946 35.2303 73.0152 34.995 73.337C34.3549 74.2158 33.7044 75.0878 33.0228 75.9355C32.708 76.323 32.7218 76.6551 33.0297 77.0807C33.7183 76.15 34.3826 75.24 35.0573 74.3404C35.1715 74.1882 35.2857 73.901 35.5106 74.0394C35.8012 74.2193 35.5417 74.4442 35.4241 74.6068C34.8013 75.4718 34.1854 76.3403 33.5245 77.1741C33.1993 77.5893 33.0851 77.9561 33.4968 78.4647ZM17.2106 110.162C17.7054 109.411 18.1967 108.771 18.5254 108.017C18.7157 107.577 18.4389 107.283 18.2555 106.961C18.0549 106.612 17.8403 107.124 17.5843 106.941C18.2036 106.079 17.3698 105.557 17.1483 104.788C16.7747 105.242 16.5394 105.698 15.9235 105.802C16.1034 105.294 16.3871 104.941 16.6605 104.598C17.0515 104.103 16.6674 103.75 16.5601 103.249C15.9373 103.941 15.7297 104.826 14.9582 105.262C14.8336 105.332 14.9236 105.456 14.9651 105.56C15.574 107.117 16.2418 108.639 17.2106 110.162ZM15.2073 84.0561C14.9236 84.5301 14.716 84.9038 14.4841 85.2636C14.2558 85.62 14.1001 86.0663 13.4946 86.139C14.3215 84.2533 15.9097 82.7759 15.7851 80.5961C15.7436 80.6168 15.6882 80.6238 15.6675 80.6549C14.7886 81.9386 14.3077 83.4679 13.2316 84.6339C13.1659 84.7031 13.1728 84.8484 13.1659 84.9591C13.0482 86.9279 13.0482 88.8966 13.0794 90.8654C13.0794 90.8896 13.1417 90.9138 13.242 90.9865C13.7956 89.6544 15.0101 88.6544 15.0447 87.0905C14.7679 87.3742 14.5672 87.6995 14.3527 88.0143C14.1381 88.3292 13.9409 88.6752 13.3977 88.8482C14.1139 87.2289 15.5775 86.049 15.2073 84.0561ZM41.0223 97.647C41.4445 97.1383 41.7905 96.7231 42.1365 96.3114C42.2403 96.1868 42.3787 96.0588 42.5378 96.1799C42.7177 96.3183 42.5724 96.4671 42.479 96.5847C42.0984 97.0622 41.742 97.5639 41.3199 97.9999C40.9116 98.422 40.8805 98.8926 40.9462 99.5396C41.2161 99.2282 41.4133 98.9929 41.6209 98.768C41.7109 98.6711 41.832 98.5708 41.9704 98.6953C42.0984 98.8095 42.0465 98.941 41.9635 99.0586C41.8735 99.1867 41.787 99.3285 41.6728 99.4323C40.8736 100.131 40.6936 101.031 40.8078 102.117C41.3061 101.553 41.7213 100.982 42.2368 100.526C42.6036 100.2 42.7074 99.851 42.7247 99.4116C42.7766 98.0103 42.7939 96.6055 42.6693 95.2077C42.6278 94.7233 42.6797 94.225 42.5171 93.7268C41.0569 94.9585 40.7905 95.6367 41.0223 97.647ZM13.498 80.6376C14.6779 78.6516 15.7851 76.6863 16.9061 74.7279C17.612 73.4962 18.4251 72.3232 18.9648 70.9946C19.1482 70.5482 19.124 70.1434 19.0064 69.7213C18.8126 69.7248 18.7711 69.8424 18.7192 69.9324C17.3663 72.1744 15.9546 74.3888 14.8509 76.7728C14.6087 77.2918 14.0862 77.617 13.9617 78.1775C13.7852 78.9941 13.6537 79.8176 13.498 80.6376ZM23.366 83.9454C23.1134 84.063 23.0615 84.3017 22.9508 84.4851C22.2622 85.6304 21.6567 86.8275 20.8851 87.914C20.1931 88.8862 20.1758 89.8516 20.5184 91.0349C21.2069 89.9242 21.7778 88.8482 22.4975 87.8828C23.3867 86.6891 23.6393 85.4089 23.366 83.9454ZM34.2788 93.9067C33.3308 94.8028 32.7599 95.955 31.7322 96.692C31.6873 96.7231 31.6527 96.8062 31.6527 96.8685C31.6492 97.8269 31.6492 98.7818 31.6492 99.7403C31.7253 99.7506 31.8049 99.7576 31.881 99.7679C32.6561 98.8303 33.4207 97.8822 34.2165 96.9619C34.4864 96.6505 34.566 96.3529 34.3791 95.962C33.8809 96.4394 33.4934 97.0553 32.7218 97.2421C33.2062 96.083 34.8324 95.5537 34.2788 93.9067ZM34.6144 97.1972C33.7633 98.2282 33.0297 99.1105 32.3031 99.9963C31.8222 100.585 31.3966 102.363 31.5419 103.224C32.4 102.145 33.1785 101.027 34.1023 100.048C34.8705 99.2282 34.777 98.3632 34.6144 97.1972ZM31.2478 72.4582C31.1959 72.216 31.2478 71.9772 31.5246 72.1156C31.8637 72.2852 31.9641 72.0776 32.1128 71.8907C32.4069 71.517 32.6699 71.1191 32.9917 70.7731C33.2892 70.4514 33.1059 70.2818 32.8879 70.05C32.6111 69.7524 32.4727 69.9566 32.3135 70.1607C31.0472 71.7523 29.7877 73.3474 28.511 74.9321C28.2722 75.2296 28.1996 75.5272 28.3691 75.8663C28.4452 76.0185 28.3968 76.2745 28.6217 76.2988C28.7878 76.3161 28.857 76.1154 28.9504 75.9943C29.6562 75.0808 30.3517 74.1639 31.0575 73.254C31.2444 73.0083 31.4243 72.7799 31.2478 72.4582ZM38.1678 109.473C39.2889 108.273 40.403 107.214 41.3407 106.013C41.9046 105.294 41.9531 104.307 42.0915 103.224C40.9947 104.532 40.0812 105.74 39.0363 106.826C38.3305 107.56 38.0121 108.328 38.1678 109.473ZM24.0337 97.4601C22.3383 99.2939 21.2311 101.816 21.2173 103.948C21.9958 102.737 22.6705 101.553 23.4767 100.47C24.1687 99.543 24.4282 98.6019 24.0337 97.4601ZM13.2282 83.7516C14.7436 81.0459 16.7677 78.617 17.1207 75.368C16.9857 75.5791 16.8715 75.7417 16.7747 75.9147C15.9062 77.4994 15.0204 79.0702 14.197 80.6791C13.979 81.1047 13.4911 81.3365 13.4115 81.8036C13.2974 82.4437 13.2835 83.1011 13.2282 83.7516ZM22.7743 78.956C21.9993 80.2535 21.373 81.4023 20.6429 82.4852C20.0617 83.3502 20.1793 84.2533 20.1828 85.3778C21.1135 83.9904 21.8228 82.7101 22.5978 81.4715C23.0857 80.693 22.9611 79.9491 22.7743 78.956ZM38.7076 85.5335C39.019 85.184 39.2716 84.8969 39.5311 84.6166C39.621 84.5197 39.7421 84.4159 39.8805 84.5301C40.012 84.6408 39.9601 84.7827 39.8736 84.8934C39.6487 85.1771 39.4169 85.4574 39.1851 85.7342C38.5865 86.4435 38.5727 86.5196 38.9152 87.4988C39.5553 86.741 40.1816 86.0006 40.8044 85.2567C40.8909 85.1529 40.9912 85.0422 40.9428 84.8934C40.704 84.108 40.5137 83.3053 40.0951 82.416C39.5449 83.5059 38.1125 83.9869 38.7076 85.5335ZM25.1236 84.3744C25.3901 83.6686 26.2897 83.1773 25.7776 82.2638C25.4869 82.5129 25.2966 82.852 24.9714 83.0735C24.5493 83.3606 24.7984 83.8208 24.8157 84.1876C24.8468 84.845 24.7569 85.4851 24.7119 86.1355C24.6531 87.0109 24.4835 87.8863 24.5735 88.9208C25.0752 88.3292 25.5181 87.8967 25.8433 87.3881C26.0821 87.0144 26.3485 86.5127 25.6496 86.2359C25.48 86.1701 25.5492 86.0387 25.6115 85.9695C26.0924 85.4401 25.8537 84.8277 25.8745 84.2395C25.5977 84.191 25.4558 84.4886 25.1236 84.3744ZM27.6287 73.164C27.8432 73.1259 27.9262 72.9772 28.0162 72.8561C28.9919 71.5551 29.94 70.2334 30.9399 68.9497C31.2997 68.4895 30.9261 68.3961 30.6908 68.1885C30.3932 67.9256 30.2306 67.9982 30.0126 68.3165C29.2929 69.3857 28.5698 70.4514 27.7844 71.4721C27.3553 72.0257 27.2446 72.5308 27.6287 73.164ZM20.2277 88.0801C20.4215 87.786 20.5495 87.613 20.6602 87.4296C21.4214 86.1494 22.1411 84.838 22.9577 83.5959C23.3971 82.9281 23.2933 82.3295 23.1134 81.596C22.283 82.935 21.5564 84.2395 20.6983 85.4505C20.1309 86.2497 20.1274 87.0525 20.2277 88.0801ZM36.7631 107.636C36.2925 108.169 35.8842 108.615 35.4933 109.082C35.1265 109.522 34.6179 109.878 34.6456 110.556C34.649 110.677 34.4656 110.944 34.3688 110.864C33.9086 110.477 33.8325 110.996 33.6664 111.162C32.7391 112.082 32.009 113.186 30.8465 113.878C30.3828 114.155 30.2514 114.67 30.5801 115.2C30.805 115.155 30.9053 114.961 31.0402 114.815C32.8083 112.906 34.566 110.985 36.3479 109.089C36.7285 108.695 36.898 108.286 36.7631 107.636ZM23.4109 94.8963C22.9092 95.6817 22.5459 96.4256 22.02 97.0276C21.1896 97.9791 21.5979 98.9721 21.6636 100.166C22.2795 99.1867 22.7259 98.3182 23.3279 97.5708C24.0234 96.7058 23.8504 95.8962 23.4109 94.8963ZM28.0819 74.6622C29.421 73.0014 30.7288 71.3648 32.054 69.7421C32.3412 69.3892 32.0298 69.2819 31.8533 69.102C31.5765 68.8182 31.452 69.0258 31.2928 69.2507C30.2998 70.6244 29.3621 72.0464 28.2203 73.299C27.774 73.7834 27.7498 74.1363 28.0819 74.6622ZM39.3096 80.3885C38.7111 81.1566 38.2094 81.942 37.5727 82.5925C36.7942 83.3848 37.244 84.2291 37.1748 85.1979C37.7596 84.6166 38.1505 84.1495 38.0191 83.4229C37.9775 83.1911 37.853 82.7655 38.1886 82.724C38.5692 82.6755 38.3962 83.1323 38.5069 83.3502C38.5242 83.3848 38.5554 83.4125 38.6003 83.4679C39.0536 83.0388 39.3546 82.4852 39.8736 82.1531C40.0051 82.07 39.9947 81.9836 39.9497 81.8728C39.7629 81.3953 39.6314 80.8936 39.3096 80.3885ZM22.674 67.8564C22.8054 67.6799 22.84 67.6245 22.885 67.5761C23.148 67.2716 23.3106 66.4966 23.6082 66.6973C24.0303 66.9879 23.4559 67.4827 23.2379 67.8114C22.7259 68.583 22.5944 69.3545 22.9231 70.2576C23.6255 69.4687 23.9715 68.4965 24.6808 67.7526C24.9126 67.5104 24.6704 66.8045 24.6358 66.3132C24.6289 66.206 24.5181 66.2094 24.4282 66.199C23.4317 66.0745 22.7501 66.6661 22.674 67.8564ZM29.2237 78.0599C29.9261 77.1672 30.6216 76.2815 31.3101 75.3957C31.798 74.7695 31.8049 74.4407 31.3482 73.6311C30.6527 74.5376 30.0126 75.4718 29.2687 76.3091C28.7359 76.9181 28.7463 77.4336 29.2237 78.0599ZM20.6879 93.1836C21.4076 92.0625 21.9958 91.0176 22.7155 90.073C23.3244 89.2703 23.3417 88.3949 23.3452 87.4746C22.5148 88.7133 21.7605 89.9934 20.937 91.2287C20.5495 91.8065 20.4838 92.3705 20.6879 93.1836ZM36.5589 80.1463C38.3305 78.572 38.5035 77.7866 37.3928 76.3749C36.9776 76.9665 36.5624 77.5478 36.1541 78.1326C36.0815 78.2364 35.9846 78.3263 36.078 78.4855C36.3652 78.9872 36.334 79.5754 36.5589 80.1463ZM20.3869 81.9939C21.0651 80.8625 21.6982 79.8072 22.328 78.7519C22.7535 78.0391 22.7605 77.6655 22.3695 76.8455C20.5564 79.3505 20.1274 80.4335 20.3869 81.9939ZM38.9706 89.2322C39.5172 88.8862 39.9117 88.343 39.9878 87.8033C40.012 87.6233 40.057 87.3189 40.2162 87.3985C40.493 87.5438 40.7594 87.1251 40.9531 87.4261C41.0881 87.6303 40.9012 87.8102 40.7698 87.9624C40.4411 88.3361 40.5518 88.7375 40.6244 89.1838C41.8424 88.1977 41.9392 87.4054 41.0604 85.7342C40.5068 86.3881 40.0016 87.0524 39.4273 87.651C38.9775 88.1181 38.7699 88.6094 38.9706 89.2322ZM38.5035 78.6204C38.0848 79.1464 37.6904 79.6584 37.2821 80.1601C36.6524 80.9282 36.6005 81.4611 37.1091 82.4368C37.5589 81.8521 37.9499 81.2362 38.4446 80.7276C39.1055 80.0494 39.2058 79.4059 38.5035 78.6204ZM24.1168 100.36C23.2656 101.678 22.4318 103.01 21.5564 104.314C21.2277 104.802 21.3315 105.207 21.6187 105.743C22.4664 104.366 23.2829 103.069 24.0683 101.754C24.3105 101.339 24.2413 100.861 24.1168 100.36ZM27.21 71.5309C28.0404 70.3441 28.8362 69.1954 29.6459 68.0536C29.8465 67.7699 29.8431 67.6003 29.5144 67.4204C29.2168 67.2543 29.0473 67.192 28.8328 67.5623C28.3795 68.3442 27.9228 69.14 27.3415 69.8216C26.8744 70.3718 26.7637 70.8423 27.21 71.5309ZM20.4561 112.58C20.7606 112.082 21.0235 111.663 21.2692 111.238C21.5252 110.795 21.8851 110.394 21.7951 109.812C21.7709 109.653 21.982 109.657 22.065 109.581C22.4664 109.217 22.8262 108.771 23.103 108.342C23.3971 107.889 23.3244 107.197 23.4109 106.612C22.3902 108.075 21.4837 109.587 20.5322 111.072C20.2312 111.542 20.1378 111.968 20.4561 112.58ZM18.9164 85.4539C17.2106 87.4711 16.8023 88.516 17.138 89.9312C18.5842 88.3811 19.0167 87.3189 18.9164 85.4539ZM18.7711 91.5885C17.4113 93.0694 17.1103 94.0624 17.5462 95.6748C18.4458 94.4395 19.3731 93.2389 18.7711 91.5885ZM18.996 82.4887C18.4355 83.3848 17.958 84.2222 17.4044 85.0076C16.92 85.6961 17.0203 86.4123 17.131 87.1597C17.9268 85.7065 19.3835 84.5405 18.996 82.4887ZM18.7434 88.5333C17.8922 89.8654 16.6363 90.9865 17.3213 92.8549C18.1552 91.5158 19.2866 90.3498 18.7434 88.5333ZM26.6876 69.9081C27.345 69.1573 27.8259 68.3477 28.3034 67.5415C28.4141 67.3547 28.8397 67.1021 28.3691 66.8391C28.03 66.6488 27.6806 66.462 27.4003 66.9602C27.2446 67.2336 27.0647 67.5104 26.8329 67.718C26.089 68.3788 26.2897 69.0847 26.6876 69.9081ZM21.3176 97.2387C21.8539 96.4014 22.283 95.6056 22.8331 94.9032C23.3556 94.232 23.231 93.6022 22.975 92.803C22.4214 93.7164 21.9543 94.5641 21.4111 95.3565C20.9959 95.955 21.0685 96.5156 21.3176 97.2387ZM19.3212 77.3333C17.7988 79.2398 17.2764 80.5476 17.4182 82.032C18.9752 80.0667 19.3697 79.1118 19.3212 77.3333ZM19.8091 100.629C18.5289 102.287 18.3663 103.162 19.1136 104.245C20.0859 103.204 20.3834 102.013 19.8091 100.629ZM22.8989 90.6093C22.2207 91.6889 21.5287 92.7615 20.8713 93.8548C20.6326 94.2493 20.7917 94.6506 21.0478 95.1765C21.7017 93.5676 23.1653 92.4812 22.8989 90.6093ZM35.7112 78.8626C34.3134 80.0909 34.2165 80.5649 35.0538 81.9351C36.3583 81.1739 36.206 80.0667 35.7112 78.8626ZM42.1814 91.2563C41.0881 92.0798 40.5206 93.0867 41.012 94.4741C42.3579 93.4465 42.697 92.5262 42.1814 91.2563ZM17.7504 78.7346C19.3178 76.7693 19.6672 75.8455 19.3524 74.4684C18.3559 75.721 17.7365 77.0703 17.7504 78.7346ZM19.9855 97.6712C19.5461 98.6262 18.9648 99.3078 18.4874 100.059C18.1275 100.623 18.1794 101.114 18.4701 101.73C18.9821 100.924 19.4181 100.159 19.9336 99.4496C20.3385 98.8926 20.2727 98.3805 19.9855 97.6712ZM31.8187 75.5514C31.1406 76.3922 30.587 77.316 29.8085 77.9734C29.1891 78.4959 29.4106 78.8073 29.7254 79.354C30.4347 78.4544 31.0818 77.5928 31.7772 76.7659C32.099 76.3853 32.1993 76.0462 31.8187 75.5514ZM40.9047 107.342C40.8632 107.363 40.8147 107.37 40.7871 107.401C40.0086 108.221 39.2543 109.068 38.4412 109.857C37.9706 110.314 37.7699 110.823 37.7769 111.473C39.5622 110.124 40.6487 108.684 40.9047 107.342ZM16.5705 91.931C15.5775 92.931 15.2869 94.0935 15.6502 95.481C16.5671 94.4292 17.1034 93.3323 16.5705 91.931ZM40.8978 91.8134C42.2126 90.6197 42.3717 90.0488 41.7628 88.8136C40.6383 89.5471 40.5241 90.592 40.8978 91.8134ZM16.01 98.0968C16.9165 97.1418 17.3006 96.0623 16.7885 94.7682C15.9443 95.7405 15.3561 96.775 16.01 98.0968ZM39.282 99.6088C40.6002 98.7438 40.531 97.5293 40.3892 96.2768C39.0709 97.0726 39.3062 98.3493 39.282 99.6088ZM21.4284 68.0813C20.2693 69.6659 20.0167 70.569 20.4803 71.5759C21.155 70.4963 22.0546 69.5172 21.4284 68.0813ZM21.8643 73.0221C21.1792 74.1882 20.2174 75.1881 20.6256 76.6725C21.9716 75.0912 22.2657 74.2574 21.8643 73.0221ZM14.7644 75.8282C15.882 73.6553 17.1103 71.6935 18.2555 69.6867C16.8577 70.7905 14.8647 74.2712 14.7644 75.8282ZM23.2691 113.411C22.9611 113.971 22.7016 114.442 22.4456 114.912C22.366 115.058 22.1826 115.22 22.4491 115.352C23.058 115.653 23.6566 115.999 24.4662 116.203C23.9438 115.255 23.5805 114.393 23.2691 113.411ZM20.6153 74.1086C21.2727 72.9737 22.2484 72.0776 21.6602 70.6659C20.4353 72.1883 20.3281 72.5308 20.6153 74.1086ZM40.32 93.4396C39.0674 94.2146 39.2681 95.3218 39.3858 96.4256C40.5587 95.6817 40.5483 94.616 40.32 93.4396ZM40.1435 90.7512C39.1401 91.5539 38.9498 92.2148 39.32 93.6126C40.3649 92.8064 40.5656 92.1144 40.1435 90.7512ZM37.5035 96.7889C36.5001 97.4982 36.3513 98.1002 36.8184 99.5638C37.8807 98.6089 37.9326 98.3874 37.5035 96.7889ZM19.2001 80.2708C17.868 81.7794 17.0515 83.5198 17.311 84.3571C17.9061 82.9731 19.2036 82.0112 19.2001 80.2708ZM38.6522 92.4777C37.4585 93.6749 37.2613 94.571 37.9326 95.2492C39.109 94.6056 38.7457 93.5572 38.6522 92.4777ZM36.3894 97.0968C37.4343 96.3875 37.507 95.4845 37.0503 94.4499C35.9154 95.3046 35.8323 95.6298 36.3894 97.0968ZM40.5622 104.134C40.8805 103.993 40.9843 103.73 41.1607 103.536C41.4029 103.273 41.6036 102.802 41.87 102.761C42.3648 102.688 42.3544 102.37 42.4236 102.069C42.5032 101.726 42.5274 101.366 42.5724 101.017C42.5205 100.993 42.4721 100.969 42.4202 100.944C41.8354 102.003 40.4722 102.577 40.5622 104.134ZM35.0919 108.792C35.4933 108.338 35.8946 107.885 36.2925 107.432C36.4102 107.297 36.5347 107.162 36.6385 107.017C36.9153 106.626 36.853 105.979 36.5105 105.608C35.6178 106.456 35.5175 107.681 35.0919 108.792ZM35.7424 101.809C34.7528 102.619 35.0884 103.788 34.7805 104.878C36.0745 103.882 36.2925 103.141 35.7424 101.809ZM21.9612 111.096C21.4249 111.968 20.9405 112.774 20.4319 113.57C20.2762 113.812 20.29 113.968 20.5357 114.123C20.8229 114.31 20.8955 114.047 20.9959 113.902C21.3038 113.456 21.5702 112.982 21.892 112.549C22.2207 112.103 22.321 111.667 21.9612 111.096ZM22.0927 75.067C21.591 76.4925 20.3212 77.3956 20.4942 78.9387C21.0547 78.1014 21.5356 77.2191 22.0719 76.3749C22.3176 75.9908 22.3695 75.6448 22.0927 75.067ZM18.8956 94.5641C17.4528 96.7128 17.349 96.6263 17.8127 97.692C19.034 96.0761 19.0721 95.9654 18.8956 94.5641ZM24.7915 90.7546C26.1859 89.3153 26.3589 88.9139 25.999 88.0005C25.6807 88.3776 25.4247 88.7963 25.0648 89.0835C24.4662 89.5644 24.5631 90.0938 24.7915 90.7546ZM37.2509 102.086C38.3374 101.328 37.7699 100.304 37.8599 99.3389C36.6973 100.093 36.68 101.024 37.2509 102.086ZM16.4563 89.3222C15.4875 90.5297 15.2799 91.3221 15.6398 92.3013C16.356 91.457 16.9165 90.554 16.4563 89.3222ZM18.0722 99.7541C19.2555 98.249 19.3489 97.9515 18.9475 96.8373C18.5185 97.7992 17.4251 98.4808 18.0722 99.7541ZM35.7147 84.1184C36.68 83.1426 36.7008 83.0285 36.2891 81.4818C35.4344 82.1981 35.4344 82.1981 35.7147 84.1184ZM15.8162 84.6789C16.7504 83.4125 17.0376 82.4264 16.8023 81.4542C16.0135 82.3434 15.747 83.3987 15.8162 84.6789ZM18.2763 103.152C17.349 104.211 17.3559 104.404 18.2175 105.695C19.1863 104.889 18.214 104.086 18.2763 103.152ZM39.2474 103.923C40.1608 103.02 40.4514 102.148 40.1677 101.339C39.3269 101.969 38.974 102.795 39.2474 103.923ZM16.446 86.6684C15.7194 87.5195 15.2972 88.4122 15.6156 89.5575C16.3318 88.7098 16.7643 87.8206 16.446 86.6684ZM38.3789 89.0454C37.1887 90.0419 37.026 90.3913 37.2821 91.5747C37.7284 90.7097 38.8322 90.291 38.3789 89.0454ZM16.3525 100.045C16.8854 99.2109 17.6154 98.5293 17.0688 97.4082C16.6466 98.2386 15.747 98.8545 16.3525 100.045ZM35.9431 86.6718C36.7873 85.8968 36.9361 85.1045 36.5209 84.0803C35.4448 84.6997 35.9984 85.6961 35.9431 86.6718ZM38.1782 87.0109C37.5001 87.6995 36.8842 88.3672 37.2579 89.4571C37.8703 88.7409 38.7249 88.1735 38.1782 87.0109ZM35.6213 93.5918C36.1403 92.8064 37.1368 92.3116 36.5555 91.1595C35.8704 91.7996 35.2926 92.45 35.6213 93.5918ZM22.4145 112.632C22.0269 113.22 21.6775 113.767 21.3142 114.303C21.1792 114.504 21.2208 114.636 21.4145 114.736C21.5598 114.812 21.6706 115.006 21.8851 114.867C22.3418 114.58 22.7155 113.21 22.4145 112.632ZM38.8425 95.18C37.6281 95.9446 38.071 96.8581 38.3028 97.813C39.192 97.0484 38.6695 96.1142 38.8425 95.18ZM17.3905 99.4738C16.4183 100.56 16.3076 101 16.83 101.771C17.3352 101.076 17.9234 100.415 17.3905 99.4738ZM26.6218 108.532C27.5456 107.892 27.8674 107.19 27.6944 106.165C26.9125 106.764 26.5319 107.546 26.6218 108.532ZM27.1927 66.3859C26.7187 66.2994 26.1547 66.0226 25.9298 66.1956C25.6219 66.4308 25.9298 66.9775 25.9921 67.3893C26.0129 67.5104 25.9783 67.6661 26.1755 67.7595C26.563 67.3789 26.8848 66.9395 27.1927 66.3859ZM17.7504 101.391C16.8335 102.453 16.792 102.654 17.2833 103.522C17.8334 102.913 18.2452 102.276 17.7504 101.391ZM16.2107 81.2604C17.1587 80.2674 17.2279 79.1602 17.2452 78.0357C16.529 78.9491 16.5255 80.084 16.2107 81.2604ZM34.3376 107.335C35.0781 106.643 35.6905 105.958 35.6593 104.816C34.8808 105.518 34.303 106.224 34.3376 107.335ZM37.4689 93.1628C37.8945 92.329 38.9463 91.9899 38.4654 90.7616C38.1159 91.5781 37.0503 91.9103 37.4689 93.1628ZM37.2475 87.132C38.0952 86.6995 38.3166 86.1286 38.0225 85.0872C37.3893 85.6304 36.9914 86.2636 37.2475 87.132ZM21.3419 67.1574C19.9579 67.5207 19.7468 67.8979 20.1585 69.2611C20.5668 68.538 20.9232 67.9048 21.3419 67.1574ZM26.9713 106.072C27.8259 105.498 28.0819 104.75 28.0093 103.809C27.2239 104.373 26.9159 105.107 26.9713 106.072ZM39.2716 101.529C40.3857 100.373 40.4999 100.117 40.2369 99.3424C39.7491 99.9859 38.9498 100.467 39.2716 101.529ZM35.6905 91.2425C36.6627 90.4017 36.8046 90.0315 36.552 89.0523C35.8704 89.6059 35.5901 90.3118 35.6905 91.2425ZM19.9544 108.172C20.3523 107.311 21.5495 106.726 20.8748 105.359C20.4561 106.345 20.1447 107.238 19.9544 108.172ZM27.3104 94.3427C27.8155 93.6334 28.3241 93.0659 28.0024 92.2078C27.0958 92.9275 27.0958 92.9275 27.3104 94.3427ZM39.1401 91.0349C40.2681 89.8862 40.3096 89.7824 39.9255 89.0489C39.4792 89.6267 38.7906 90.0834 39.1401 91.0349ZM36.6835 86.8102C35.9223 87.3327 35.8289 88.0143 35.9777 88.8032C36.7562 88.1181 36.815 87.9624 36.6835 86.8102ZM35.8773 94.8893C36.2406 94.2908 37.206 93.9794 36.7596 92.8341C36.4586 93.6403 35.4794 93.9309 35.8773 94.8893ZM39.0882 111.003C38.5242 111.74 37.4758 112.124 37.4136 113.438C38.1851 112.629 38.6799 111.843 39.0882 111.003ZM16.5532 84.3813C16.1588 85.2394 15.4322 85.8068 15.709 86.9071C16.1069 86.0629 16.8335 85.4955 16.5532 84.3813ZM18.4977 74.5272C19.1205 73.9287 19.6395 73.2401 19.1586 72.1641C18.9164 73.0291 18.7088 73.7799 18.4977 74.5272ZM18.2694 109.494C17.9926 109.899 17.8057 110.172 17.6224 110.446C17.394 110.792 17.6812 111.034 17.8715 111.176C18.1033 111.345 18.1621 110.999 18.2659 110.864C18.5773 110.473 18.387 110.068 18.2694 109.494ZM18.8714 106.83C19.2762 106.031 19.5288 105.207 19.5392 104.678C18.4285 106.134 18.3905 106.245 18.8714 106.83ZM39.9567 103.951C39.0674 104.889 39.0571 104.913 39.2474 105.775C39.7767 105.28 40.2992 104.826 39.9567 103.951ZM38.8045 98.2109C38.3166 98.6123 38.2197 99.8302 38.6384 100.668C38.8322 99.7887 38.7872 99.0241 38.8045 98.2109ZM27.3796 103.591C28.0439 103.121 28.3311 102.564 28.1477 101.757C27.5041 102.218 27.3657 102.837 27.3796 103.591ZM27.601 95.9239C28.248 95.4429 28.383 94.8409 28.1338 94.0451C27.7256 94.6471 27.2377 95.1419 27.601 95.9239ZM28.2549 96.0934C27.6045 96.564 27.5283 97.1349 27.684 97.813C28.3726 97.4117 28.383 96.8097 28.2549 96.0934ZM23.0338 109.356C22.321 110.179 22.2103 110.591 22.6947 111.172C23.186 110.646 22.9957 109.996 23.0338 109.356ZM28.2792 98.0656C27.5491 98.7057 27.5283 98.7715 27.7429 99.5707C28.2826 99.2213 28.4452 98.7299 28.2792 98.0656ZM27.6979 101.366C28.3968 100.671 28.421 100.605 28.2169 99.896C27.7152 100.245 27.556 100.719 27.6979 101.366ZM38.237 106.896C38.8322 106.55 38.6626 106.086 38.628 105.595C38.0433 105.913 38.0848 106.352 38.237 106.896ZM38.6073 103.238C38.2613 103.768 38.4446 104.387 38.3062 104.954C38.9083 104.47 38.5623 103.82 38.6073 103.238ZM37.6627 103.498C37.9706 103.065 37.9395 102.678 37.8668 102.231C37.3236 102.598 37.3444 102.993 37.6627 103.498ZM19.643 97.2456C20.1136 96.7301 19.733 96.2941 19.6949 95.8512C19.3662 96.2976 19.5634 96.737 19.643 97.2456ZM18.6846 111.335C18.2106 111.85 18.2625 112.047 19.0098 112.508C18.8922 112.086 18.7918 111.726 18.6846 111.335ZM35.2718 101.539C35.8047 100.917 35.4241 100.505 35.2718 100.076C35.2718 100.508 35.2718 100.941 35.2718 101.539Z" fill="#5B5B69"/>
<path d="M18.6639 54.473C15.7436 58.5178 12.5189 62.3376 9.58136 66.3754C9.88238 65.4239 17.5048 55.3796 18.6639 54.473Z" fill="#5B5B69"/>
<path d="M28.8362 129.555C31.6665 125.593 34.4968 121.632 37.3582 117.628C37.3721 118.303 29.8293 128.905 28.8362 129.555Z" fill="#5B5B69"/>
<path d="M48.9562 101.328C46.1951 105.141 43.4894 108.996 40.6072 112.715C43.2333 108.805 45.9702 104.975 48.9562 101.328Z" fill="#5B5B69"/>
<path d="M41.0258 117.13C38.7007 120.524 36.3756 123.919 34.0505 127.313C33.9951 127.275 33.9432 127.24 33.8878 127.202C36.0642 123.708 38.4551 120.362 40.8113 116.992C40.8805 117.037 40.9532 117.085 41.0258 117.13Z" fill="#5B5B69"/>
<path d="M36.2752 127.448C38.2993 124.476 40.5449 121.666 42.6624 118.763C42.7385 118.819 42.8146 118.874 42.8908 118.933C40.7456 121.815 38.6038 124.701 36.4586 127.583C36.3998 127.538 36.3375 127.493 36.2752 127.448Z" fill="#5B5B69"/>
<path d="M4.22525 88.4192C6.33239 85.4366 8.59177 82.5718 10.8373 79.693C10.8996 79.738 10.9584 79.7865 11.0207 79.8314C8.80975 82.7344 6.59535 85.6373 4.38441 88.5368C4.33251 88.4987 4.28061 88.4572 4.22525 88.4192Z" fill="#5B5B69"/>
<path d="M43.5447 113.224C45.4927 110.477 47.3611 107.674 49.3852 104.979C47.5964 107.84 45.7626 110.667 43.5447 113.224Z" fill="#5B5B69"/>
<path d="M24.5839 128.327C25.8571 125.943 27.4003 123.742 29.1096 121.652C27.6563 123.915 26.1616 126.15 24.5839 128.327Z" fill="#5B5B69"/>
<path d="M25.6772 130.029C27.0716 127.929 28.5663 125.898 30.0541 123.863C30.1268 123.915 30.1995 123.964 30.2687 124.016C28.8051 126.074 27.338 128.133 25.8745 130.192C25.8122 130.136 25.7464 130.081 25.6772 130.029Z" fill="#5B5B69"/>
<path d="M44.9391 100.854C46.2296 98.7091 47.6828 96.6746 49.098 94.6125C49.1776 94.6678 49.2572 94.7197 49.3367 94.7751C47.9285 96.8407 46.5203 98.9063 45.1155 100.969C45.0567 100.934 44.9979 100.892 44.9391 100.854Z" fill="#5B5B69"/>
<path d="M40.4861 125.555C41.7801 123.656 43.3198 121.95 44.5135 119.794C44.5447 120.684 42.1711 124.009 40.4861 125.555Z" fill="#5B5B69"/>
<path d="M17.5359 59.715C16.2834 61.7495 14.7091 63.5175 13.024 65.2026C14.4184 63.2857 16.0861 61.5903 17.5359 59.715Z" fill="#5B5B69"/>
<path d="M14.8371 113.442C13.6676 115.075 12.5016 116.708 11.3321 118.338C11.2802 118.3 11.2248 118.262 11.1729 118.224C12.2144 116.494 13.3908 114.864 14.6295 113.272C14.6987 113.328 14.7679 113.387 14.8371 113.442Z" fill="#5B5B69"/>
<path d="M17.5359 122.061C18.2625 121.002 18.9891 119.943 19.7157 118.884C19.7814 118.929 19.8437 118.974 19.9094 119.023C19.2486 120.127 18.6015 121.241 17.5359 122.061Z" fill="#5B5B69"/>
<path d="M8.94816 86.0699C8.36688 87.3501 7.6991 88.5611 6.6438 89.516C7.38078 88.3396 8.15236 87.1909 8.94816 86.0699Z" fill="#5B5B69"/>
<path d="M39.5415 65.6316C38.7526 66.5589 37.9672 67.4828 37.1783 68.41C37.1298 68.3685 37.078 68.327 37.0295 68.2855C37.718 67.2752 38.5242 66.3686 39.3615 65.4829C39.4204 65.5348 39.4792 65.5832 39.5415 65.6316Z" fill="#5B5B69"/>
<path d="M13.7991 119.839C14.2074 119.123 14.7402 118.504 15.2696 117.881C15.3353 117.933 15.4011 117.981 15.4703 118.033C14.9686 118.68 14.4634 119.327 13.9617 119.974C13.9063 119.929 13.8544 119.884 13.7991 119.839Z" fill="#5B5B69"/>
<path d="M39.6488 67.8771C39.4584 68.7628 38.9048 69.3718 38.2786 69.9219C38.2301 69.8839 38.1852 69.8493 38.1367 69.8112C38.6419 69.1677 39.147 68.5206 39.6488 67.8771Z" fill="#5B5B69"/>
<path d="M65.0832 47.5427C65.0486 50.8781 64.367 53.6565 62.592 56.1235C60.2184 59.4209 56.8968 60.4589 53.0528 60.0298C50.392 59.7323 47.9735 58.5905 45.8456 57.0196C43.2125 55.0786 40.9012 52.7673 39.0052 50.0754C35.9707 45.7677 33.2442 41.2663 31.144 36.4361C29.5628 32.8066 28.2203 29.0628 27.4868 25.1496C26.9886 22.4923 26.8294 19.8177 28.2376 17.3334C29.6977 14.7592 31.8256 13.2922 34.8843 13.2506C37.9879 13.2091 40.6763 14.3682 43.2402 15.9356C52.2051 21.4093 58.741 28.9936 62.9138 38.6228C64.1905 41.5777 65.0071 44.6501 65.0832 47.5427ZM48.098 20.617C47.887 20.4509 47.6794 20.2814 47.4649 20.1187C47.3784 20.053 47.2884 19.9907 47.1777 20.1084C46.8282 20.4751 47.0185 21.4716 47.4856 21.7C47.7728 21.3747 47.3991 20.6758 48.1188 20.5997C48.0669 21.091 48.0115 21.5789 47.9665 22.0702C47.9216 22.5719 48.188 22.7449 48.6516 22.5961C48.8385 22.5373 49.226 22.2674 49.2537 22.776C49.2883 23.3781 49.7415 23.686 50.0495 24.1358C50.5927 22.8902 50.5443 22.6342 49.6135 21.8557C49.1153 21.4405 48.6066 21.0287 48.098 20.617ZM41.5586 21.5789C41.4479 22.1567 41.3303 22.731 41.2334 23.3089C41.0777 24.2431 41.3372 24.6202 42.3302 24.9212C42.434 24.2465 42.5344 23.5787 42.6347 22.9075C42.6624 22.7276 42.6831 22.4992 42.915 22.52C43.1502 22.5407 43.1433 22.7726 43.1191 22.9525C43.0499 23.423 43.0222 23.9109 42.8734 24.3538C42.569 25.2568 42.9461 25.8312 43.6485 26.3018C43.9841 25.8762 43.6969 25.5855 43.4685 25.2707C43.3128 25.0562 42.8838 24.8313 43.209 24.5579C43.4997 24.3123 43.607 24.7932 43.8111 24.9316C43.8457 24.9558 43.8907 24.9627 43.9841 24.9973C44.164 24.1531 44.2747 23.295 44.5377 22.4888C44.7937 21.7069 44.427 21.2363 43.9356 20.7796C43.7384 20.5962 43.5239 20.4578 43.3613 20.2156C43.1848 19.9527 42.915 19.5824 42.5897 19.6343C42.3683 19.6724 42.3787 20.1222 42.306 20.3955C42.2368 20.6585 42.1607 20.918 42.0672 21.174C41.9807 21.4162 41.8631 21.6411 41.5413 21.5962C41.7074 20.9145 41.8493 20.2295 42.043 19.5582C42.1641 19.1292 41.8804 18.9908 41.6105 18.8282C41.2265 18.5998 41.306 19.0081 41.1919 19.1465C41.095 19.2607 41.0431 19.4856 40.8459 19.3921C40.6556 19.3022 40.7767 19.1084 40.8147 18.9666C40.922 18.5514 40.8839 18.2434 40.4203 18.0393C39.9394 17.8282 40.0674 18.5375 39.6107 18.4268C39.8529 17.7902 39.4411 17.5341 38.9636 17.1639C38.2336 16.5999 38.064 17.3992 37.7422 17.5895C37.3582 17.3058 38.0467 16.8698 37.4724 16.7176C37.3063 16.6726 37.1575 16.683 37.1679 16.4615C37.1748 16.2747 37.289 16.1916 37.4516 16.1224C37.9602 15.9079 38.1609 15.3716 37.9395 14.78C37.6904 15.0879 37.7803 15.6553 37.2336 15.7245C37.1575 15.4858 37.1852 15.2851 37.2578 15.0914C37.3928 14.7419 37.2578 14.5827 36.9049 14.5516C35.8635 14.4547 34.822 14.4478 33.7805 14.5481C33.5418 14.5724 33.3826 14.6416 33.3342 14.9426C33.1439 16.1017 33.1024 17.3404 32.6457 18.3922C32.1163 19.6101 32.7495 20.662 32.6976 21.7865C32.6941 21.8557 32.7079 21.9214 32.7045 21.9906C32.5868 24.288 33.393 26.2914 34.6075 28.184C35.3306 29.3085 35.9638 30.4849 36.3755 31.772C36.5036 32.1768 36.7354 32.5505 36.9361 32.9311C38.327 35.5503 40.4376 37.5641 42.6693 39.4117C45.0774 41.4047 46.9355 43.8197 48.6724 46.3525C49.835 48.0479 50.7553 49.8401 51.2985 51.8885C51.904 54.1721 53.7067 55.601 55.8 56.6114C56.0976 56.7532 56.4193 56.7082 56.7342 56.7428C57.094 56.7809 57.1875 56.6044 57.2636 56.2965C57.4227 55.6633 57.2428 55.1512 56.9349 54.5769C56.2048 53.224 55.7931 51.7155 55.0319 50.373C54.5475 49.5184 54.3157 48.598 54.3364 47.6396C54.4022 44.7678 53.4403 42.2454 51.9629 39.8304C49.9145 36.4811 47.2469 33.63 44.7937 30.606C44.4443 30.1735 44.0498 29.7756 43.5931 29.2739C43.4962 30.2669 42.9634 31.1146 44.0429 31.8551C44.6657 32.2841 44.9979 33.1145 45.5757 33.6404C46.1362 34.1525 46.5341 34.7338 46.8386 35.405C46.8767 35.4846 46.9355 35.5607 47.0012 35.6195C47.067 35.6749 47.1638 35.7268 47.2123 35.5953C47.2711 35.4362 47.3368 35.2701 47.541 35.3773C47.714 35.4673 47.669 35.6645 47.6309 35.8064C47.4406 36.5295 47.8766 37.007 48.2849 37.4879C48.3852 37.6056 48.5201 37.6748 48.572 37.8443C48.7658 38.5086 49.2433 39.0069 49.5928 39.5951C49.7761 39.4186 49.7831 39.2076 49.8419 39.0207C49.8903 38.8616 49.9768 38.6989 50.1706 38.7647C50.3609 38.8304 50.3332 39.0069 50.2882 39.1695C50.2294 39.3875 50.1775 39.6089 50.1187 39.8269C49.9906 40.3113 50.1498 40.6781 50.565 40.9722C50.5962 40.8857 50.6135 40.8441 50.6308 40.8026C50.7311 40.5535 50.6757 40.0587 51.0356 40.1487C51.385 40.2386 51.1186 40.6435 51.0736 40.9099C51.0667 40.9549 51.0598 40.9998 51.0425 41.0414C50.8107 41.6711 51.0702 42.1313 51.5546 42.5811C51.6549 42.0724 51.738 41.6296 51.8279 41.1867C51.8591 41.0344 51.8764 40.8303 52.0909 40.8684C52.2881 40.903 52.2604 41.1071 52.257 41.2628C52.2535 41.3528 52.2535 41.4462 52.2327 41.5327C51.8279 43.5637 51.4196 45.5947 51.0114 47.6257C50.9698 47.8264 50.9006 48.1032 50.6792 48.0686C50.4024 48.0271 50.5235 47.7365 50.5581 47.5565C50.7726 46.4009 50.9595 45.2349 51.2397 44.0931C51.392 43.4668 51.2432 43.0032 50.8176 42.5499C50.5962 43.0862 50.5373 43.5741 50.8349 44.0792C50.9387 44.2557 51.0425 44.7055 50.7519 44.6432C50.2675 44.5394 50.4024 44.8335 50.3574 45.0307C50.302 45.266 50.2882 45.6189 49.9768 45.5428C49.6966 45.4736 49.8869 45.1553 49.9111 44.9477C49.9941 44.2246 50.2778 43.4703 49.5235 42.8925C49.3159 42.9859 49.3402 43.4599 49.0461 43.3215C48.7589 43.1866 48.97 42.8509 49.0357 42.6503C49.2987 41.8579 48.6447 41.4842 48.3714 40.9133C48.0773 41.0933 48.1084 41.505 47.6655 41.5638C47.7416 40.7784 48.1672 39.903 47.1708 39.3321C47.1431 39.4394 47.1119 39.519 47.105 39.5985C47.0566 40.1625 47.0116 40.7265 46.8455 41.2697C46.7936 41.4393 46.7071 41.6538 46.4788 41.5707C46.2712 41.4946 46.4061 41.2939 46.4269 41.1521C46.5134 40.4774 46.5929 39.8027 46.7106 39.1349C46.8144 38.5398 46.5341 38.1626 46.0635 37.7613C45.9909 38.1246 45.9321 38.3945 46.0843 38.6747C46.2193 38.9238 46.3749 39.173 46.3784 39.5639C45.8836 39.1038 45.7591 39.339 45.7279 39.8096C45.7106 40.0795 45.6449 40.3459 45.5791 40.6089C45.5411 40.7611 45.4477 40.9341 45.2574 40.8926C45.0221 40.8407 45.1328 40.6504 45.1536 40.5051C45.2228 40.0587 45.247 39.5985 45.3646 39.166C45.5376 38.519 45.1951 38.173 44.7245 37.8201C44.2782 40.0795 44.3924 39.8477 43.8249 40.0483C43.9564 39.3114 44.0706 38.6021 44.2159 37.8962C44.3232 37.3841 44.2609 36.9551 43.7315 36.6783C43.4547 37.2077 43.645 37.9377 43.0499 38.4014C42.7212 37.4257 43.8699 36.3219 42.6762 35.4846C42.4167 36.0382 42.5032 36.6229 42.3475 37.1592C42.3025 37.3115 42.2714 37.4983 42.0603 37.4603C41.8839 37.4257 41.9219 37.2388 41.9323 37.1212C41.9877 36.5572 42.0396 35.9932 42.1434 35.4362C42.2022 35.1213 42.1953 34.8687 41.9496 34.6334C41.8112 34.502 41.5967 34.3324 41.7282 34.1144C41.915 33.7996 42.1088 34.2148 42.3129 34.156C42.4029 33.5089 42.043 32.9277 41.2957 32.554C41.1815 33.2771 41.0846 33.9933 40.9462 34.6992C40.9012 34.9379 40.9808 35.3981 40.6452 35.3497C40.2681 35.2943 40.448 34.8583 40.4791 34.5919C40.5414 34.0314 40.5864 33.4501 40.7628 32.9207C41.0777 31.9831 40.7178 31.3153 40.0501 30.6752C39.6245 31.7893 39.8875 33.1007 39.0155 34.0487C39.1539 32.8515 39.32 31.6648 39.5657 30.4953C39.6902 29.9002 39.4515 29.5196 39.0363 29.0663C38.9913 29.2185 38.9567 29.2947 38.9429 29.3742C38.7941 30.3119 38.6557 31.253 38.5 32.1907C38.4654 32.4052 38.3962 32.7339 38.1505 32.6993C37.8288 32.6543 38.0052 32.3291 38.0329 32.1388C38.1955 31.0177 38.3443 29.8967 38.5727 28.7895C38.6938 28.1978 38.455 27.8276 38.0294 27.3259C37.8149 28.8206 37.6212 30.1804 37.4205 31.5402C37.3824 31.8032 37.3859 32.2357 37.1091 32.208C36.7458 32.1734 36.9326 31.7686 36.9672 31.5298C37.1679 30.0974 37.3443 28.6546 37.6246 27.236C37.7492 26.6028 37.5416 26.1634 37.1783 25.634C36.7665 26.7412 36.988 27.9799 36.2164 28.8968C36.3686 27.4505 36.6662 26.0353 36.8323 24.6029C36.9707 23.4023 37.5865 22.1947 36.9257 20.963C36.853 20.8315 36.8738 20.5755 37.0987 20.6274C37.5381 20.7312 37.4516 20.4059 37.4931 20.2018C37.5692 19.8246 37.5969 19.4371 37.6869 19.0634C37.7665 18.7347 37.6488 18.0843 38.0052 18.1569C38.4412 18.2434 38.109 18.8282 38.0744 19.1707C37.9533 20.3506 37.9256 20.3471 38.6003 21.046C38.6764 20.444 38.7456 19.8904 38.8218 19.3368C38.8494 19.1465 38.8218 18.8524 39.0951 18.8766C39.3685 18.9008 39.2993 19.1776 39.275 19.3748C39.1989 20.0046 39.1539 20.6412 39.0259 21.2605C38.9117 21.8003 39.1539 22.084 39.576 22.3539C39.6003 22.2363 39.6072 22.1671 39.6279 22.1048C39.749 21.738 39.6625 21.001 39.9843 21.0772C40.4964 21.1948 40.14 21.8141 40.0674 22.1809C39.9428 22.8175 40.0604 23.2812 40.6902 23.6237C40.794 23.0632 40.8978 22.5338 40.9912 22.0044C41.0535 21.7 41.1538 21.4439 41.5586 21.5789ZM46.1397 49.2243C45.977 51.2414 45.8283 53.1583 45.6622 55.0717C45.6449 55.2758 45.7348 55.3692 45.8698 55.4488C46.5687 55.8709 47.2676 56.2861 47.9665 56.7048C48.3229 56.9193 48.4302 56.774 48.4613 56.4072C48.5271 55.6183 48.5997 54.826 48.7208 54.044C48.7935 53.5631 48.7208 53.224 48.1707 53.0787C47.8455 54.0579 48.2053 55.2135 47.5029 56.2169C47.2849 55.8294 47.3749 55.5561 47.3991 55.3C47.4856 54.307 47.5825 53.314 47.6898 52.3244C47.7451 51.8158 47.5271 51.4456 47.1465 51.0165C47.1188 51.3037 47.105 51.4767 47.0877 51.6532C46.9632 52.7777 46.8421 53.9022 46.7071 55.0267C46.6829 55.2308 46.5825 55.5076 46.368 55.4661C46.112 55.4177 46.2296 55.1339 46.2504 54.9402C46.3923 53.5423 46.5237 52.1445 46.6864 50.7501C46.7486 50.1931 46.6448 49.7225 46.1397 49.2243ZM42.5447 32.9623C42.7662 31.4883 43.0291 30.1181 43.1537 28.7376C43.2021 28.1978 42.8457 27.6788 42.3579 27.1944C42.1122 28.402 41.9496 29.5403 41.6313 30.6337C41.3441 31.6163 41.6867 32.2772 42.5447 32.9623ZM34.1473 35.1421C33.9605 37.4049 33.265 39.6193 35.1092 41.4496C35.5175 39.6574 35.6178 37.3426 35.3064 36.9862C34.9604 38.0381 35.3445 39.2698 34.521 40.2075C34.5452 39.083 34.6144 37.9654 34.7632 36.8617C34.8497 36.2181 34.6905 35.7095 34.1473 35.1421ZM40.7213 26.2741C40.5656 27.229 40.4895 28.1563 40.2473 29.0352C39.9878 29.9728 40.5241 30.4884 41.0604 31.1631C41.3026 29.9763 41.4998 28.8933 41.7489 27.8207C41.9046 27.1529 42.0949 26.5336 41.0777 26.4644C40.9774 26.4575 40.8839 26.364 40.7213 26.2741ZM43.8388 54.0233C43.8976 53.9645 43.9564 53.9022 44.0152 53.8434C44.0775 52.5355 44.1087 51.2241 44.2194 49.9232C44.2747 49.2796 44.0083 48.8783 43.5066 48.4458C43.2575 49.9024 43.3232 51.321 42.9011 52.6635C42.8631 52.7811 42.9288 52.8746 43.0049 52.968C43.2852 53.3174 43.562 53.6704 43.8388 54.0233ZM45.0532 22.2051C44.856 23.1428 44.7453 24.0147 44.4823 24.8382C44.1952 25.7378 44.7072 26.2083 45.2816 26.8242C45.465 25.9592 45.5411 25.1634 45.8075 24.4334C46.1466 23.4957 45.7279 22.8971 45.0532 22.2051ZM42.2783 46.9095C42.1261 48.3523 42.0119 49.7017 41.825 51.0408C41.7385 51.6566 41.998 51.9923 42.5516 52.359C42.7004 51.0338 42.7973 49.7952 42.9876 48.5738C43.088 47.8922 42.9461 47.3801 42.2783 46.9095ZM53.7655 27.9868C53.9731 27.7238 53.8832 27.4574 53.9489 27.2256C53.9904 27.0733 54.025 26.8761 54.2292 26.9176C54.416 26.9522 54.4298 27.1425 54.4125 27.3052C54.3952 27.4401 54.3814 27.5785 54.3364 27.7031C53.9835 28.6442 54.499 29.2774 55.1426 29.9797C55.2845 29.2912 55.7273 28.62 55.4609 28.0906C54.9834 27.1495 54.1807 26.3986 53.4195 25.5579C53.0009 27.1079 53.0043 27.1218 53.7655 27.9868ZM40.2923 49.8021C40.441 48.2866 40.5552 46.9407 40.7179 45.5947C40.794 44.9788 40.5518 44.5775 40.0259 44.1969C39.9705 44.8993 39.9324 45.529 39.8702 46.1552C39.8079 46.7815 39.8805 47.4908 39.6107 48.0133C39.3442 48.5288 39.5172 48.7779 39.7664 49.1135C39.9013 49.2935 40.0397 49.4699 40.2923 49.8021ZM44.6726 50.072C44.6103 51.3279 44.6761 52.4767 44.4581 53.57C44.3059 54.3347 44.6588 54.5527 45.292 54.9506C45.0671 53.269 46.112 51.6255 44.6726 50.072ZM45.7798 18.932C45.0013 20.7831 45.0844 21.6446 46.2054 22.5926C46.1916 21.8626 46.3957 21.2156 46.5999 20.5962C46.8836 19.7381 46.6552 19.2364 45.7798 18.932ZM47.586 30.004C47.5444 28.4816 48.7174 27.0699 47.3645 25.589C47.195 26.4402 47.1015 27.2221 46.8766 27.966C46.6379 28.7549 46.7936 29.3639 47.586 30.004ZM41.3372 50.9992C41.4998 49.5426 41.6451 48.1759 41.8077 46.8126C41.8666 46.304 41.7455 45.9096 41.1711 45.6362C41.0431 47.1067 40.9427 48.5219 40.7905 49.9336C40.7386 50.4076 40.8978 50.7051 41.3372 50.9992ZM32.9052 14.7592C32.31 14.9806 31.6942 15.119 31.5004 15.5758C31.1821 16.3266 31.3136 17.1777 31.3239 17.9943C31.4554 17.6829 31.4866 17.3611 31.535 17.0428C31.5592 16.8906 31.5904 16.6968 31.8049 16.7314C31.964 16.7591 31.9813 16.9252 31.9744 17.0636C31.9571 17.3784 31.9294 17.6967 31.9052 18.0116C31.881 18.2919 31.8326 18.5756 32.1336 18.8489C32.4796 17.5064 32.7079 16.202 32.9052 14.7592ZM49.4474 29.2947C48.5444 30.9451 48.6482 32.0903 49.7969 32.9969C50.2778 31.6994 50.5408 30.4261 49.4474 29.2947ZM32.0644 31.0212C32.1232 32.6855 31.1959 34.412 32.3827 36.0001C32.3135 34.3359 33.265 32.6197 32.0644 31.0212ZM38.0986 46.5185C38.2716 46.2383 38.244 45.9684 38.2647 45.7089C38.3374 44.8335 38.3685 43.9512 38.4931 43.0828C38.5796 42.4773 38.4308 42.0482 37.853 41.6988C37.7526 42.8475 37.6904 43.9512 37.545 45.0411C37.462 45.6501 37.68 46.0757 38.0986 46.5185ZM36.0019 37.9412C35.9742 38.1903 35.95 38.3599 35.9327 38.5294C35.8254 39.6331 35.7943 40.7507 35.5763 41.8302C35.4621 42.3942 35.6351 42.6814 36.0088 43.0828C36.2994 41.7126 36.3859 40.4047 36.5832 39.1141C36.6662 38.5778 36.4482 38.2803 36.0019 37.9412ZM49.4544 51.6774C49.2571 53.4489 49.0807 55.0613 48.8904 56.6736C48.8558 56.9539 48.8731 57.1857 49.1983 57.2307C49.5997 57.2826 49.4647 56.9262 49.4855 56.7601C49.6308 55.6875 49.6896 54.6011 49.8799 53.5389C49.9976 52.8815 49.835 52.3556 49.4544 51.6774ZM39.2162 48.2036C39.3373 46.6673 39.4584 45.2314 39.5518 43.7921C39.576 43.4288 39.3442 43.1969 38.9809 43.0585C38.8702 44.3041 38.7906 45.4978 38.6522 46.6881C38.5899 47.2486 38.6868 47.7122 39.2162 48.2036ZM43.1364 46.9337C43.2229 45.7989 43.2817 44.7712 43.3924 43.7471C43.4513 43.2177 43.2679 42.889 42.7039 42.6537C42.6174 43.5983 42.5828 44.5187 42.4375 45.4148C42.3337 46.0653 42.5586 46.4909 43.1364 46.9337ZM46.3646 24.1289C46.1535 25.0735 45.9805 25.9661 45.7521 26.845C45.593 27.4609 45.849 27.8622 46.3473 28.312C46.5272 27.364 46.6414 26.4955 46.8697 25.6547C47.0324 25.0458 46.894 24.5994 46.3646 24.1289ZM43.2575 31.6924C43.2783 32.4709 42.4755 33.3186 43.5135 34.0349C43.5723 33.6543 43.6139 33.3256 43.6727 33.0038C43.7004 32.8515 43.728 32.6578 43.946 32.6993C44.1052 32.7304 44.119 32.8931 44.1086 33.0315C44.081 33.3463 44.0775 33.6646 44.0083 33.9726C43.8768 34.5435 44.0983 34.8999 44.5446 35.1178C45.3785 33.5089 44.119 32.6785 43.2575 31.6924ZM59.3984 52.9887C58.6926 54.3762 58.4469 55.8294 58.395 57.331C59.2877 56.0439 60.0177 54.7153 59.3984 52.9887ZM36.9568 44.8162C37.0053 44.7989 37.0572 44.7816 37.1056 44.7609C37.2094 43.7298 37.289 42.6987 37.4205 41.6711C37.4827 41.1936 37.3686 40.8372 36.9499 40.55C36.635 41.5223 36.8599 42.6087 36.2337 43.4807C36.1991 43.5256 36.251 43.6571 36.2925 43.7298C36.507 44.0931 36.7319 44.4529 36.9568 44.8162ZM33.2823 38.1972C33.874 35.796 33.8048 33.9207 33.0609 33.3221C33.2373 34.9483 32.3239 36.5537 33.2823 38.1972ZM52.3711 28.3535C52.4507 27.8588 52.5683 27.5231 52.5407 27.1944C52.5061 26.7758 52.2881 26.3917 52.7898 26.0526C52.9732 25.9281 53.0458 25.506 53.0147 25.2361C52.9766 24.897 52.6652 24.5821 52.378 24.5095C52.0493 24.423 52.1497 24.852 52.0874 25.0527C51.9732 25.4402 51.9525 25.8589 51.8072 26.2326C51.5061 27.0249 51.8694 27.6131 52.3711 28.3535ZM60.0212 53.1963C60.6786 51.3833 61.6024 49.6291 61.1249 47.5911C60.9312 49.4976 59.9036 51.2276 60.0212 53.1963ZM39.5691 25.1011C39.7006 26.4817 38.6453 27.7792 39.7629 29.2012C39.9428 28.1563 40.0605 27.2671 40.2542 26.3917C40.3788 25.8174 40.23 25.4333 39.5691 25.1011ZM51.3297 26.2222C51.4715 25.5786 51.5822 24.9351 51.7622 24.3123C51.9594 23.6341 51.3539 23.4888 51.046 23.1566C50.9179 23.0182 50.8314 23.2224 50.7934 23.3469C50.4854 24.378 50.3955 25.3676 51.3297 26.2222ZM55.9419 48.2901C56.5266 46.8645 57.1286 45.439 55.7862 43.882C55.8035 45.4598 55.7135 46.8784 55.9419 48.2901ZM61.1872 41.1971C61.4433 39.9653 62.2944 38.8131 61.1422 37.5433C61.0315 38.7958 60.035 39.948 61.1872 41.1971ZM59.1354 48.2382C59.433 46.913 60.3464 45.7816 59.2565 44.574C58.5749 46.2175 58.5472 46.7019 59.1354 48.2382ZM40.0224 15.8975C40.0397 15.4754 39.4238 14.9945 38.8218 15.036C38.2924 15.0741 38.4861 15.6138 38.3893 15.9321C38.3131 16.1743 39.2923 17.0186 39.6418 16.9217C40.1677 16.7833 39.8044 16.1847 40.0224 15.8975ZM31.3066 33.4086C31.2893 31.8931 32.0159 30.3638 31.1925 28.8587C31.1925 30.3742 30.4762 31.9035 31.3066 33.4086ZM52.1601 55.5803C52.1013 56.1616 52.1566 56.7255 51.9871 57.2584C51.9317 57.4348 51.8348 57.6182 51.6134 57.5456C51.4023 57.4764 51.5165 57.2895 51.5304 57.1407C51.5823 56.556 51.6099 55.9713 51.6722 55.39C51.7034 55.1132 51.6099 54.9782 51.3297 54.9125C51.2293 55.7221 51.1844 56.5145 51.0183 57.2826C50.8349 58.113 51.4473 58.0334 51.8798 58.1061C52.5165 58.2133 52.2224 57.6736 52.2743 57.4106C52.3538 57.0127 52.3677 56.6044 52.378 56.1962C52.3815 55.9989 52.513 55.7429 52.1601 55.5803ZM59.561 50.892C60.0039 49.5633 60.6682 48.3108 60.1042 46.7054C59.689 48.169 58.9313 49.4076 59.561 50.892ZM44.8422 20.8523C44.984 20.1222 45.1086 19.4648 45.2401 18.8074C45.3439 18.2884 44.8768 18.1673 44.6 18.0877C44.1986 17.9735 44.4097 18.4164 44.3301 18.5998C44.2401 18.8005 44.2782 19.0531 44.1951 19.2572C43.9253 19.9388 44.1467 20.4267 44.8422 20.8523ZM50.3643 53.5804C50.2259 54.7187 50.0945 55.7706 49.9664 56.8259C49.9526 56.9366 49.956 57.0508 49.9457 57.165C49.9214 57.3933 49.9768 57.5732 50.2329 57.6182C50.5927 57.684 50.5027 57.3933 50.5235 57.2238C50.6308 56.3484 50.7207 55.473 50.8176 54.5942C50.8591 54.2136 50.783 53.878 50.3643 53.5804ZM62.3359 52.7362C63.3186 51.3314 63.8064 49.1135 63.4674 47.7226C63.0487 49.3869 62.5089 50.9404 62.3359 52.7362ZM63.3151 44.2349C62.9172 45.83 62.3186 47.2348 62.6335 48.7952C62.9414 47.342 63.841 45.9857 63.3151 44.2349ZM52.5268 34.2598C53.1981 32.9761 53.0943 32.0834 52.1981 31.3949C51.8452 32.3983 51.6307 33.3982 52.5268 34.2598ZM58.3223 47.6015C57.6649 48.8229 57.7618 50.1031 58.0213 51.4906C58.5853 50.1758 58.9797 48.9371 58.3223 47.6015ZM48.4786 27.5301C48.2918 28.4816 48.1153 29.4019 47.932 30.3223C47.8593 30.696 48.0946 30.8828 48.3368 31.1112C49.2018 28.7826 49.2156 28.4331 48.4786 27.5301ZM59.6025 56.3069C60.1077 55.9713 60.7859 55.691 60.7997 55.1339C60.8205 54.1375 61.0315 53.1617 60.9935 52.1583C60.5298 53.5423 60.0662 54.9229 59.6025 56.3069ZM53.7275 35.8271C54.3641 34.367 54.3053 33.9068 53.3607 33.0661C53.2569 34.0245 52.4749 35.014 53.7275 35.8271ZM43.6692 19.6447C43.7765 19.0565 43.8734 18.5271 43.9737 17.9978C44.0602 17.5341 43.6485 17.4649 43.3959 17.2746C43.2644 17.1777 43.1675 17.2123 43.0741 17.3646C42.5378 18.2261 42.7177 19.015 43.6692 19.6447ZM60.4433 38.308C60.9969 36.7371 60.9692 36.5226 60.0939 35.3185C59.5852 36.6091 59.6164 36.8963 60.4433 38.308ZM56.9695 40.557C56.4609 41.6884 56.6096 42.415 57.5162 43.1693C57.9833 41.761 57.9244 41.4808 56.9695 40.557ZM38.673 24.1877C38.0848 25.9073 38.1021 26.6166 38.7802 27.447C38.9013 26.6962 38.9671 25.9834 39.1401 25.2949C39.2647 24.7932 39.1401 24.468 38.673 24.1877ZM58.2774 34.3393C58.869 32.8792 58.7998 32.3844 57.8933 31.6786C57.8068 32.6024 57.139 33.5678 58.2774 34.3393ZM61.983 43.0343C62.2979 41.934 62.8999 40.9203 62.0176 39.7473C61.9484 40.8822 61.0384 41.8648 61.983 43.0343ZM45.7037 47.56C46.0082 45.6466 45.9459 45.3906 45.0394 44.92C44.9806 45.8646 44.5619 46.8645 45.7037 47.56ZM54.0942 29.5438C53.6929 30.5126 53.7344 31.3949 54.5959 32.1215C55.108 31.1423 55.018 30.2808 54.0942 29.5438ZM58.8137 50.6256C58.613 51.84 57.7065 52.8538 58.4469 54.1375C58.8898 52.9922 59.4122 51.93 58.8137 50.6256ZM58.3604 45.3871C59.0662 44.1484 59.0386 43.5464 58.2462 42.7125C57.6753 43.626 57.8068 44.5083 58.3604 45.3871ZM56.8968 30.1181C56.8138 31.0316 56.0733 31.9519 57.1944 32.7512C57.3397 31.8378 58.1182 30.9312 56.8968 30.1181ZM56.8761 47.2105C56.6927 47.8264 56.537 48.4492 56.319 49.0513C56.1841 49.4284 56.274 49.6844 56.537 49.9578C56.8034 50.238 56.928 50.3522 57.0767 49.8574C57.3466 48.9717 57.0664 48.1205 56.8761 47.2105ZM37.8945 25.8277C37.8945 24.6859 38.6799 23.6306 37.5969 22.6342C37.4793 23.7102 36.981 24.7275 37.8945 25.8277ZM58.0801 41.0621C58.5957 39.7508 58.5542 39.5432 57.613 38.6436C57.0318 39.6193 57.0733 39.8546 58.0801 41.0621ZM50.9075 34.4812C51.3954 33.1941 51.3539 32.7858 50.5581 31.6717C50.5719 32.7062 49.6827 33.6646 50.9075 34.4812ZM56.2014 31.3637C56.2325 30.4192 57.0075 29.4919 55.8588 28.6719C55.7619 29.6095 55.0526 30.5091 56.2014 31.3637ZM44.8802 47.5565C44.6104 48.9267 44.7557 49.5114 45.5273 50.2623C45.8352 48.553 45.8075 48.4319 44.8802 47.5565ZM41.5171 17.6933C41.4514 18.2157 41.8147 18.3887 42.1019 18.4718C42.5032 18.5894 42.3233 18.1465 42.4236 17.9701C42.5309 17.7798 42.5309 17.5341 42.607 17.3231C42.8215 16.7418 42.3648 16.5722 42.005 16.4823C41.5794 16.375 41.7247 16.8248 41.652 17.0393C41.5759 17.2712 41.5517 17.5203 41.5171 17.6933ZM29.8258 24.4818C29.7496 25.9731 29.3171 27.4574 29.7566 28.959C29.8119 27.4678 30.3655 25.9869 29.8258 24.4818ZM48.451 49.4734C48.4786 50.6948 47.9008 51.8296 48.8765 52.9092C48.7935 51.7397 49.444 50.6186 48.451 49.4734ZM59.3084 36.0313C59.8101 34.713 59.734 34.0314 59.042 33.6093C58.6995 34.4501 58.4227 35.2839 59.3084 36.0313ZM46.2677 46.1518C46.4165 47.2313 45.8248 48.2382 46.849 49.0859C46.8075 48.0721 47.4095 47.0756 46.2677 46.1518ZM28.9746 18.7797C28.2134 20.3713 28.2445 22.0148 28.5386 23.8798C28.6943 22.0494 28.8327 20.4163 28.9746 18.7797ZM47.4337 47.8126C47.4995 48.8956 46.8974 49.8747 47.8247 50.7259C47.7486 49.8055 48.4579 48.8194 47.4337 47.8126ZM59.1493 42.9859C59.6752 41.7264 59.6475 41.4808 58.8621 40.4947C58.3293 41.3666 58.44 42.1832 59.1493 42.9859ZM56.3813 32.7374C55.8969 34.2944 55.7758 34.3878 56.6996 35.0244C56.8518 34.2252 57.3605 33.4121 56.3813 32.7374ZM55.3087 31.2807C55.0872 32.1249 54.6444 32.9519 55.6201 33.6612C55.7862 32.8204 56.3467 31.9796 55.3087 31.2807ZM54.7585 36.9689C55.3502 35.6195 55.3087 35.2286 54.4714 34.668C54.4471 35.4708 53.6756 36.3115 54.7585 36.9689ZM55.0319 38.218C54.4506 39.8753 54.4644 40.1521 55.2325 40.8338C54.9488 40.3805 54.6824 39.9376 55.4644 39.8442C55.4955 39.8407 55.5059 39.7231 55.5336 39.6608C55.7931 39.0519 55.6651 38.5709 55.0319 38.218ZM51.513 32.035C51.8763 31.1042 51.9525 30.2704 51.0944 29.5853C50.7899 30.8067 50.8245 31.0143 51.513 32.035ZM49.918 27.3467C49.3056 28.3881 50.0772 29.0559 50.4266 29.8967C51.0771 28.8241 50.392 28.1356 49.918 27.3467ZM30.9295 15.9944C30.2756 16.5273 30.1302 18.7555 30.6181 19.707C30.7219 18.4752 30.8222 17.2885 30.9295 15.9944ZM40.3476 16.8975C40.2196 17.4476 40.576 17.4995 40.8113 17.6345C40.967 17.7244 41.0638 17.6068 41.0915 17.458C41.1642 17.0843 41.2368 16.7106 41.2853 16.3335C41.3406 15.9114 40.9497 15.8664 40.7109 15.811C40.4134 15.7384 40.4791 16.0671 40.441 16.2401C40.3857 16.4961 40.3649 16.766 40.3476 16.8975ZM59.9139 42.4807C59.3811 43.3907 59.5057 44.1657 60.1008 44.9027C60.5921 44.0827 60.4675 43.3111 59.9139 42.4807ZM30.5627 26.9073C30.452 28.2567 29.9849 29.5991 30.4313 30.9624C30.5039 29.6095 30.9122 28.2705 30.5627 26.9073ZM57.3985 34.1179C57.267 34.6438 57.1563 35.0279 57.0802 35.4189C57.0006 35.8306 57.3397 36.1005 57.5957 36.2043C57.9279 36.3392 57.8449 35.8963 57.9383 35.713C58.2704 35.0729 57.7964 34.6819 57.3985 34.1179ZM52.987 27.9072C52.5753 28.959 52.6895 29.5092 53.4334 30.132C53.7067 29.3293 53.8036 28.5508 52.987 27.9072ZM55.883 38.2007C56.3467 36.789 56.3467 36.789 55.6166 36.0624C55.0526 37.2976 55.0734 37.4949 55.883 38.2007ZM43.8388 43.6571C43.9564 44.5671 43.4201 45.4459 44.3439 46.0514C44.7349 45.0411 44.6103 44.2349 43.8388 43.6571ZM49.2398 41.3009C49.6135 40.3978 49.444 39.8684 48.5651 39.0657C48.1742 39.9722 48.7347 40.5881 49.2398 41.3009ZM45.292 34.1836C44.9252 35.7268 44.9529 35.8479 45.7452 36.3565C45.9113 35.5815 46.1501 34.8099 45.292 34.1836ZM52.8348 35.7303C52.3296 36.5987 52.3331 36.6091 53.3226 37.6609C53.7586 36.6402 53.7586 36.6402 52.8348 35.7303ZM51.6376 33.9449C51.1982 35.0763 51.2778 35.3635 52.1705 36.0001C52.4992 35.0037 52.5995 35.4327 51.6376 33.9449ZM57.613 47.7884C58.2566 46.7884 58.0836 45.9338 57.5542 44.9615C57.4504 45.2729 57.3086 45.484 57.3259 45.6778C57.3847 46.3455 57.5023 47.0099 57.613 47.7884ZM29.2549 22.0044C29.2237 23.5165 28.7393 25.0146 29.0611 26.5301C29.1026 25.0181 29.5213 23.5165 29.2549 22.0044ZM44.7834 28.5646C45.1951 27.4643 45.1086 27.1841 44.1709 26.4194C43.8284 27.3121 44.5412 27.8691 44.7834 28.5646ZM54.2257 39.1903C54.7655 37.7163 54.7585 37.6298 53.9731 37.1004C53.7621 37.8339 53.4887 38.564 54.2257 39.1903ZM53.3469 57.0369C53.3399 56.902 53.3503 56.6494 53.3019 56.4107C53.2742 56.2619 53.1462 56.1062 52.9697 56.1339C52.8002 56.1616 52.8417 56.3484 52.8313 56.4695C52.7898 56.9643 52.7725 57.4591 52.7206 57.9504C52.6964 58.1753 52.7587 58.2895 52.9905 58.3171C53.2292 58.3448 53.2361 58.1822 53.2534 58.023C53.2811 57.7359 53.3088 57.4418 53.3469 57.0369ZM44.2228 48.3316C44.51 46.9995 44.4754 46.8576 43.7246 46.3075C43.6173 47.0306 43.3509 47.7918 44.2228 48.3316ZM46.3542 35.6645C46.2435 36.4707 45.9355 37.2181 46.8213 37.7232C47.1085 36.9759 47.1189 36.2977 46.3542 35.6645ZM48.2364 25.7724C48.6378 24.9247 48.3783 24.3053 47.7486 23.7552C47.3161 24.5994 47.6759 25.1946 48.2364 25.7724ZM62.7235 42.0102C62.5747 42.8925 61.9311 43.6329 62.6923 44.4633C62.9899 43.6848 63.3047 42.934 62.7235 42.0102ZM41.5275 41.7956C41.5517 42.5188 41.1988 43.2661 42.0257 43.7229C42.3787 42.4461 42.3268 42.2005 41.5275 41.7956ZM56.3674 42.5638C56.1252 43.4288 56.7273 44.055 56.9556 44.9235C57.5335 43.844 56.7377 43.2627 56.3674 42.5638ZM29.9365 16.9978C29.8188 17.0947 29.7358 17.1293 29.7254 17.1777C29.4901 18.2123 29.4625 19.2745 29.3206 20.3194C29.3033 20.4474 29.3552 20.5478 29.4901 20.5616C29.6493 20.5755 29.6597 20.4405 29.6701 20.3333C29.76 19.2434 29.8465 18.1535 29.9365 16.9978ZM58.4677 35.7268C58.0006 36.834 58.0455 36.9724 58.9936 37.5641C59.3776 36.8202 58.7964 36.3634 58.4677 35.7268ZM49.2225 27.5301C49.655 26.6893 49.5755 26.2845 48.8592 25.6305C48.4994 26.3571 48.7381 26.9626 49.2225 27.5301ZM47.9596 39.256C48.1776 38.1523 48.0669 37.7751 47.4372 37.3876C47.2123 38.0934 47.2365 38.7439 47.9596 39.256ZM56.665 37.4533C56.1495 38.5017 56.1771 38.7958 56.8415 39.2076C57.011 38.5986 57.5092 37.9654 56.665 37.4533ZM34.4933 30.4019C34.3307 31.9935 34.393 32.2737 34.9777 32.7477C35.0123 31.9554 35.1092 31.1596 34.4933 30.4019ZM30.1475 20.5685C29.8846 22.5996 29.8846 22.5996 30.2583 23.4057C30.3655 22.4854 30.5939 21.5616 30.1475 20.5685ZM40.3372 40.7438C40.1331 41.4496 40.23 42.0482 40.922 42.4496C41.1815 41.3458 41.1676 41.3009 40.3372 40.7438ZM32.2824 28.7272C31.9467 29.6683 32.4138 30.3084 32.7668 31.0489C33.0816 30.1562 32.6941 29.4988 32.2824 28.7272ZM60.7859 44.8024C60.208 45.5394 60.5021 46.2314 60.772 46.9649C61.2979 46.2244 61.0315 45.5324 60.7859 44.8024ZM56.1356 39.4567C55.6685 40.4255 55.6754 40.5985 56.2083 41.069C56.7273 39.9791 56.7273 39.9584 56.1356 39.4567ZM33.5349 28.7203C33.2996 29.7514 33.3757 30.1458 33.9328 30.7167C33.9466 30.0109 34.1715 29.2981 33.5349 28.7203ZM45.5342 28.1321C45.4269 28.4124 45.3612 28.6269 45.2643 28.8276C45.0532 29.2704 45.5065 29.2739 45.6795 29.4538C45.7729 29.5507 45.9424 29.7375 46.067 29.5611C46.2123 29.3569 46.2089 29.0974 46.0428 28.8691C45.8905 28.6546 45.7418 28.4331 45.5342 28.1321ZM55.7273 58.4036C55.4817 57.9089 55.3813 57.3449 54.8139 57.4625C54.5925 57.5075 54.6374 58.023 54.7274 58.2549C54.9281 58.7704 55.3191 58.3137 55.7273 58.4036ZM50.1879 42.8025C50.4335 42.152 50.5131 41.5846 49.9076 41.1313C49.6066 42.0344 49.6066 42.0344 50.1879 42.8025ZM34.3757 33.1629C34.1611 34.1421 34.2476 34.4674 34.8462 34.9379C34.9708 33.9068 34.9604 33.8653 34.3757 33.1629ZM36.6627 37.7025C36.8703 36.6748 36.8357 36.5503 36.2441 36.1212C36.0987 36.7025 35.9707 37.2803 36.6627 37.7025ZM32.3585 26.4886C32.2512 27.2325 32.49 28.0248 32.9328 28.5196C33.1197 27.7584 32.7771 27.1495 32.3585 26.4886ZM40.787 44.1588C41.0465 43.4322 40.7836 42.9651 40.2092 42.6087C39.9567 43.3007 40.2438 43.754 40.787 44.1588ZM39.2716 39.557C39.0986 40.6158 39.1263 40.7127 39.7387 41.0552C39.8286 40.4981 39.9601 39.9342 39.2716 39.557ZM31.1509 19.6724C31.1094 20.5166 30.7807 21.3643 31.1475 22.2017C31.1579 21.3574 31.4589 20.5132 31.1509 19.6724ZM33.7183 33.0315C33.9916 32.2114 33.9501 32.0073 33.3688 31.2807C33.0955 31.945 33.3204 32.4952 33.7183 33.0315ZM37.244 37.3115C37.1921 37.9135 36.9534 38.4498 37.6315 38.8373C37.7007 38.2699 37.9222 37.7509 37.244 37.3115ZM41.4306 43.9858C41.1331 44.6398 41.3476 45.0826 41.8839 45.4321C42.1468 44.8231 41.9738 44.3664 41.4306 43.9858ZM53.7586 57.6909C53.7586 57.8258 53.7586 57.9365 53.7586 58.0507C53.7586 58.2064 53.7378 58.3898 53.9558 58.4175C54.2603 58.4555 54.1703 58.203 54.2015 58.0473C54.2188 57.9608 54.2222 57.8673 54.2153 57.7774C54.1876 57.4694 54.4402 56.9504 53.9939 56.9262C53.6375 56.902 53.8935 57.4452 53.7586 57.6909ZM46.759 22.5615C46.3646 23.1739 46.6552 23.5926 47.067 24.0009C47.3922 23.2639 47.3714 23.1601 46.759 22.5615ZM38.1574 38.3841C38.1125 38.9861 37.9118 39.5709 38.6488 39.9342C38.711 39.3425 38.8771 38.7647 38.1574 38.3841ZM31.7011 28.3778C31.8499 27.5785 31.7807 26.9176 31.3655 26.1599C31.272 26.9834 31.2271 27.6546 31.7011 28.3778ZM30.7946 23.603C30.6665 24.4437 30.4762 25.1807 30.8984 26.0561C30.933 25.1738 31.1786 24.4368 30.7946 23.603ZM45.51 37.8305C45.8075 37.135 45.3854 36.8098 44.9806 36.4465C44.6104 37.1419 45.1363 37.4222 45.51 37.8305ZM41.0569 40.5431C41.3822 39.8027 40.9358 39.5155 40.4687 39.1868C40.1746 39.8753 40.6417 40.1625 41.0569 40.5431ZM39.5795 42.7471C39.7663 42.1901 39.7179 41.7368 39.1297 41.4358C38.974 42.0032 39.0605 42.4427 39.5795 42.7471ZM41.7143 40.3874C41.5829 41.0171 41.6486 41.2213 42.0188 41.3874C42.1365 41.4393 42.2299 41.4704 42.2818 41.332C42.4686 40.8338 42.1261 40.6089 41.7801 40.3874C41.7662 40.3736 41.7351 40.384 41.7143 40.3874ZM38.5173 41.5258C38.7111 40.7611 38.6661 40.6642 38.0156 40.2905C37.8461 40.8165 38.0398 41.204 38.5173 41.5258ZM39.8494 39.2422C40.0189 38.6124 39.7698 38.2664 39.2681 38.0173C39.0986 38.5882 39.4134 38.8996 39.8494 39.2422ZM44.3578 36.4742C44.6692 35.8341 44.3024 35.5849 43.8907 35.3185C43.69 35.8617 43.9287 36.1801 44.3578 36.4742ZM42.8388 34.1525C42.6036 34.7891 42.9184 35.0729 43.344 35.3289C43.6 34.758 43.2575 34.4847 42.8388 34.1525ZM35.8669 34.329C36.0226 33.7754 35.9188 33.3775 35.5348 33.0211C35.3306 33.5332 35.4379 33.9276 35.8669 34.329ZM35.386 34.8376C35.4275 35.3912 35.1299 35.8929 35.6524 36.315C35.7631 35.7995 35.9949 35.3185 35.386 34.8376ZM42.8181 41.332C42.6105 41.9513 43.0326 42.0967 43.3717 42.3216C43.5585 41.7783 43.2402 41.5569 42.8181 41.332ZM37.5104 40.2629C37.6661 39.7715 37.5416 39.4359 37.0779 39.2214C36.9188 39.7196 37.071 40.038 37.5104 40.2629ZM36.4032 34.4397C36.3063 35.2562 36.3098 35.2632 36.8184 35.6022C36.9672 35.1524 36.7423 34.8307 36.4032 34.4397ZM57.0975 57.812C56.7584 57.812 56.4989 57.812 56.2394 57.812C56.0318 57.812 55.9661 57.9435 55.9799 58.113C56.0007 58.3379 56.1737 58.2479 56.2809 58.2168C56.5404 58.1372 56.8415 58.1268 57.0975 57.812ZM59.5506 37.6679C59.2427 38.4291 59.8793 38.6955 60.1873 39.0968C59.9866 38.647 59.7859 38.2007 59.5506 37.6679Z" fill="#5B5B69"/>
<path d="M62.7442 60.3516C65.1247 56.7463 67.865 53.4039 70.3355 49.8644C70.4185 49.9232 70.4981 49.982 70.5811 50.0443C68.0242 53.525 65.4638 57.0058 62.9069 60.49C62.8515 60.4416 62.7996 60.3966 62.7442 60.3516Z" fill="#5B5B69"/>
<path d="M58.312 61.618C55.7308 64.9396 53.1496 68.2577 50.5685 71.5793C50.5027 71.5274 50.437 71.479 50.3747 71.4271C52.904 68.0639 55.4921 64.7527 58.1078 61.4588C58.1736 61.5107 58.2428 61.5661 58.312 61.618Z" fill="#5B5B69"/>
<path d="M28.8258 6.07118C26.4938 9.55886 24.1583 13.0431 21.8263 16.5273C21.7709 16.4892 21.7155 16.4546 21.6602 16.4166C23.8192 12.8182 26.307 9.43084 28.5802 5.9051C28.6598 5.96392 28.7428 6.01582 28.8258 6.07118Z" fill="#5B5B69"/>
<path d="M65.2943 62.1162C67.391 58.8327 69.7196 55.7222 71.9305 52.5286C69.9653 55.8952 67.6644 59.0334 65.2943 62.1162Z" fill="#5B5B69"/>
<path d="M26.6806 34.4951C25.4731 37.5018 24.1756 40.4809 22.4145 43.2281C23.8088 40.3079 25.2274 37.398 26.6806 34.4951Z" fill="#5B5B69"/>
<path d="M54.0631 61.9916C52.4023 64.5278 50.9041 67.1713 49.1464 69.6452C49.0876 69.6071 49.0253 69.569 48.9665 69.531C50.5858 66.9602 52.2051 64.3894 53.8244 61.8186C53.9074 61.8775 53.9835 61.9328 54.0631 61.9916Z" fill="#5B5B69"/>
<path d="M19.3662 28.2982C21.0374 25.7447 22.7086 23.1912 24.3798 20.6377C24.4559 20.6862 24.5285 20.7381 24.6047 20.7865C22.8816 23.3054 21.3661 25.9592 19.5185 28.3985C19.47 28.3639 19.4181 28.3328 19.3662 28.2982Z" fill="#5B5B69"/>
<path d="M23.7397 45.0861C24.9507 42.9305 26.0752 40.7196 27.2723 38.391C27.3381 39.1972 24.66 44.2384 23.7397 45.0861Z" fill="#5B5B69"/>
<path d="M61.1457 62.995C59.5472 65.0987 57.9521 67.2024 56.2048 69.1885C56.1564 69.1504 56.108 69.1123 56.0561 69.0743C57.6892 66.9983 59.3223 64.9188 60.952 62.8428C61.0177 62.8947 61.0834 62.9466 61.1457 62.995Z" fill="#5B5B69"/>
<path d="M27.8329 48.4665C29.0162 46.5047 30.203 44.5428 31.4659 42.4461C31.4659 43.1865 28.6667 47.8229 27.8329 48.4665Z" fill="#5B5B69"/>
<path d="M59.8828 68.1228C61.1561 66.3928 62.4328 64.6662 63.7061 62.9362C63.7719 62.9847 63.8376 63.0331 63.9034 63.0815C62.6681 64.8427 61.4329 66.5969 59.8828 68.1228Z" fill="#5B5B69"/>
<path d="M42.0396 61.7149C42.908 60.4555 43.427 58.9884 44.3163 57.722C44.517 57.8881 44.4478 57.985 44.3959 58.0853C43.8734 59.0576 43.3717 60.0437 42.8215 61.0021C42.6485 61.3066 42.5205 61.7357 42.0223 61.7011C42.0223 61.6941 42.0396 61.7149 42.0396 61.7149Z" fill="#5B5B69"/>
<path d="M30.6285 50.7155C30.8499 49.7087 32.0333 48.0029 32.708 47.6846C32.0298 48.7087 31.3067 49.7018 30.6285 50.7155Z" fill="#5B5B69"/>
<path d="M22.0789 28.9487C22.8366 27.8484 23.5943 26.7481 24.3521 25.6478C24.4247 25.6997 24.4974 25.7481 24.5701 25.8C23.8123 26.9038 23.1653 28.0837 22.0789 28.9487Z" fill="#5B5B69"/>
<path d="M33.9225 49.7052C33.4657 50.4975 33.1232 51.3522 32.5731 52.0926C32.5108 52.0615 32.452 52.0303 32.3897 51.9992C32.8153 51.1861 33.2374 50.3764 33.663 49.5633C33.7495 49.6118 33.836 49.6568 33.9225 49.7052Z" fill="#5B5B69"/>
<path d="M45.4788 66.9152C45.8387 65.981 46.4649 65.2025 46.9701 64.3548C46.6518 65.3132 46.3369 66.2716 45.465 66.9048L45.4788 66.9152Z" fill="#5B5B69"/>
<path d="M38.0122 56.0889C38.4032 55.345 38.7976 54.6011 39.1886 53.8572C39.2474 53.8883 39.3062 53.9195 39.3685 53.9506C39.0848 54.7568 38.6765 55.5007 38.1783 56.1996C38.1229 56.1615 38.0675 56.1235 38.0122 56.0889Z" fill="#5B5B69"/>
<path d="M40.7421 55.1374C40.576 56.0405 40.1816 56.8224 39.5173 57.4625C39.8529 56.6529 40.3269 55.9124 40.7421 55.1374Z" fill="#5B5B69"/>
<path d="M34.7909 51.3175C34.7563 51.968 34.4691 52.5043 33.9086 52.923C34.1473 52.3694 34.3826 51.8123 34.6214 51.2587C34.6767 51.2795 34.7355 51.3002 34.7909 51.3175Z" fill="#5B5B69"/>
<path d="M26.5526 110.985C27.1132 110.459 27.6668 109.93 28.2342 109.414C28.3864 109.276 28.556 108.985 28.7878 109.228C28.985 109.432 28.7221 109.587 28.5871 109.719C27.736 110.567 26.8813 111.407 26.0267 112.252C25.8849 112.39 25.7084 112.636 25.5285 112.48C25.2897 112.272 25.57 112.086 25.7049 111.923C25.9333 111.646 26.179 111.383 26.4177 111.113C26.4661 111.072 26.5111 111.027 26.5526 110.985Z" fill="#5B5B69"/>
<path d="M28.8639 110.688C28.8086 110.771 28.7498 110.895 28.6633 110.992C27.8121 111.958 26.909 112.874 25.9645 113.753C25.9333 113.784 25.8953 113.816 25.8572 113.836C25.6669 113.937 25.4281 114.189 25.269 113.989C25.096 113.767 25.4143 113.608 25.5665 113.473C26.5457 112.598 27.428 111.629 28.3207 110.67C28.4245 110.56 28.5145 110.407 28.7082 110.449C28.8155 110.47 28.8466 110.553 28.8639 110.688Z" fill="#5B5B69"/>
<path d="M24.4801 77.4994C24.1964 77.4509 24.276 77.3091 24.3763 77.1672C24.8365 76.5237 25.3001 75.8836 25.7638 75.2435C25.833 75.1466 25.9333 75.0774 26.0509 75.1362C26.1651 75.195 26.1997 75.3334 26.1374 75.4303C25.6946 76.1362 25.269 76.8558 24.6531 77.4302C24.6116 77.4683 24.532 77.4786 24.4801 77.4994Z" fill="#5B5B69"/>
<path d="M24.2587 75.9873C23.9922 75.977 24.0372 75.797 24.1306 75.6725C24.5112 75.1742 24.9057 74.6898 25.3036 74.2054C25.3797 74.112 25.4973 74.074 25.6011 74.1501C25.7049 74.2262 25.7119 74.3508 25.6357 74.4476C25.2378 74.9563 24.8745 75.496 24.3798 75.9285C24.3486 75.9562 24.3036 75.9666 24.2587 75.9873Z" fill="#5B5B69"/>
<path d="M29.3276 113.241C29.2272 113.393 29.1546 113.535 29.0542 113.653C28.3311 114.525 27.6045 115.39 26.8744 116.255C26.7326 116.421 26.5492 116.691 26.3312 116.504C26.1098 116.317 26.3624 116.092 26.4938 115.93C27.2412 115.02 27.9989 114.12 28.7532 113.217C28.8709 113.079 28.9954 112.923 29.2065 113.016C29.2688 113.044 29.2895 113.162 29.3276 113.241Z" fill="#5B5B69"/>
<path d="M27.8813 116.345C28.248 115.732 28.7255 115.251 28.9919 114.643C29.0162 114.587 29.1511 114.542 29.2203 114.556C29.3379 114.577 29.3829 114.691 29.3933 114.812C29.4452 115.352 28.5802 116.283 27.8813 116.345Z" fill="#5B5B69"/>
<path d="M52.7345 46.9718C52.904 46.7642 52.7414 46.3248 53.1358 46.4217C53.3918 46.4839 53.3538 46.8092 53.2846 47.0202C52.987 47.9406 53.5994 48.6153 53.8762 49.3834C54.0216 49.7952 54.5613 50.2934 54.1011 50.6186C53.897 50.764 53.7067 49.9785 53.4956 49.6256C53.3607 49.3973 53.2604 49.1516 53.0597 48.7364C52.9074 49.4249 52.7967 49.9336 52.6791 50.4456C52.6376 50.6221 52.5995 50.7986 52.5338 50.9681C52.468 51.1376 52.3608 51.3314 52.1428 51.2449C51.9248 51.1584 52.0874 50.9716 52.1151 50.8332C52.2812 49.9889 52.4507 49.1481 52.6306 48.3074C52.6964 47.9925 52.6583 47.7365 52.3677 47.5323C52.0528 48.1032 52.2847 48.8783 51.6307 49.4215C51.5027 48.7156 51.7414 48.1863 51.8245 47.6396C51.9041 47.1067 52.0632 46.5912 51.7068 46.0791C51.5511 45.8542 51.4577 45.5221 51.9663 45.6501C52.2535 45.7227 52.1739 45.4805 52.1912 45.3802C52.2812 44.8681 52.3469 44.3526 52.4196 43.837C52.4473 43.6433 52.4231 43.3561 52.7102 43.4011C52.9663 43.4426 52.9178 43.709 52.8867 43.9132C52.7829 44.6052 52.6756 45.3006 52.5718 45.9926C52.5199 46.3282 52.4438 46.6673 52.7345 46.9718Z" fill="#5B5B69"/>
<path d="M34.7252 27.582C34.9951 25.0665 35.3687 22.5615 35.7528 20.0599C35.8981 19.1223 36.0331 18.1811 36.1818 17.2435C36.213 17.0566 36.1888 16.7383 36.4448 16.7695C36.7631 16.8075 36.6455 17.1293 36.6178 17.33C36.3825 19.0081 36.123 20.6827 35.8877 22.3643C35.6594 23.9974 35.4552 25.6374 35.2407 27.274C35.2269 27.3847 35.2303 27.5058 35.1957 27.6096C35.1265 27.8069 35.1646 28.1494 34.8601 28.1044C34.5972 28.0629 34.7702 27.7653 34.7252 27.582Z" fill="#5B5B69"/>
<path d="M33.7079 25.2292C33.9951 22.3124 34.4449 19.4994 34.9362 16.6934C35.0089 16.2712 35.0815 15.8457 35.1542 15.4235C35.1784 15.2851 35.213 15.1121 35.3653 15.1156C35.5971 15.1156 35.5625 15.3301 35.5417 15.4754C35.3964 16.4373 35.2441 17.3957 35.0815 18.3542C34.7113 20.5374 34.3792 22.7276 34.1612 24.9351C34.1508 25.0251 34.1577 25.1219 34.1266 25.2015C34.0643 25.3503 34.0781 25.6236 33.8325 25.5648C33.6525 25.5268 33.701 25.3053 33.7079 25.2292Z" fill="#5B5B69"/>
<path d="M33.0263 21.0045C33.2893 19.2053 33.5315 17.5376 33.7771 15.8733C33.8013 15.7073 33.8636 15.5412 34.0712 15.5965C34.2719 15.6484 34.2338 15.8353 34.2131 15.9944C34.0124 17.4442 33.8152 18.8939 33.6007 20.3402C33.5626 20.5755 33.4726 20.8142 33.0263 21.0045Z" fill="#5B5B69"/>
<path d="M53.4749 50.6463C53.3746 51.366 53.2915 52.0338 53.1877 52.7015C53.1566 52.8988 53.0666 53.1652 52.8348 53.1167C52.558 53.0579 52.7206 52.7881 52.7414 52.6116C52.8175 51.9646 52.9006 51.3176 52.994 50.674C53.0251 50.4699 52.9525 50.1273 53.2569 50.1412C53.5649 50.1585 53.4403 50.4906 53.4749 50.6463Z" fill="#5B5B69"/>
<path d="M53.3607 54.1236C53.4472 53.5008 53.5406 52.968 53.513 52.4282C53.506 52.2898 53.5372 52.141 53.686 52.0961C53.8071 52.058 53.8901 52.148 53.9489 52.2552C54.1842 52.6912 53.9005 53.743 53.3607 54.1236Z" fill="#5B5B69"/>
</svg>
