<svg width="110" height="117" viewBox="0 0 110 117" fill="none" xmlns="http://www.w3.org/2000/svg">
<path d="M106.013 45.5453C109.281 40.2707 109.625 33.5627 109.224 27.428C109.568 23.8733 108.995 20.3187 107.619 17.0507C106.644 9.76934 101.656 3.40534 94.088 1.11201C84.628 -1.69733 77.404 3.92134 69.7787 8.62267C68.0587 9.71201 66.224 10.744 64.3893 11.6613C62.784 12.464 60.9493 12.808 59.2293 13.496C55.56 14.9867 51.8907 16.3627 48.2787 17.968C38.9907 22.096 29.6453 26.6253 21.3893 32.588C13.9933 37.92 7.4 44.6853 4.01734 53.2853C2.756 56.496 2.01067 59.8787 1.60934 63.2613C0.864003 69.568 0.462668 75.5307 0.692002 81.8374C0.806668 85.6214 0.692002 89.52 1.552 93.2467C2.81334 98.6934 6.82667 102.707 11.4133 105.745C21.9053 112.797 33.544 116.753 46.1573 116.237C58.8853 115.721 72.7027 111.536 81.36 102.076C85.7173 97.26 90.0173 91.3547 93.6293 85.9654C97.2413 80.6334 98.5027 74.9 98.9613 68.364C99.248 64.236 98.9613 59.9933 99.936 55.9227C100.911 51.7947 103.835 49.1 106.013 45.5453ZM105.325 14.9293C105.268 15.044 105.325 15.216 105.383 15.3307C105.44 15.4453 105.497 15.56 105.555 15.6747C106.185 18.0253 106.357 20.548 105.956 23.128C105.497 25.8227 104.408 28.1733 102.917 30.352C102.86 30.352 102.803 30.352 102.745 30.4093C98.9613 33.9067 95.636 37.8053 91.3933 40.9013C86.8067 44.2267 81.6467 46.348 75.9707 46.7493C70.4093 47.1507 65.192 45.9467 59.9173 44.5133C55.732 43.424 51.604 42.5067 47.4187 43.424C53.0947 36.372 64.5613 39.0093 70.4667 32.3013C70.9827 33.2187 71.6707 34.0787 72.416 34.824C71.384 36.0853 70.352 37.2893 69.32 38.4933C67.4853 38.8373 65.708 39.296 63.9307 39.6973C63.7013 39.7547 63.7587 40.0987 63.988 40.0413C65.6507 39.64 67.3707 39.296 69.0333 38.78C68.9187 38.8947 68.804 39.0667 68.6893 39.1813C68.0587 39.9267 67.3133 40.6147 66.6827 41.36C64.848 41.8187 63.0133 42.22 61.1213 42.564C60.892 42.6213 60.9493 42.9653 61.1787 42.908C62.8413 42.6787 64.504 42.392 66.1093 41.9907C65.6507 42.5067 65.2493 42.9653 64.848 43.5387C64.7333 43.6533 64.9053 43.8827 65.0773 43.768C65.88 43.1373 66.6253 42.4493 67.3133 41.704C67.8293 41.5893 68.3453 41.4173 68.8613 41.2453C68.2307 41.9333 67.6573 42.6787 67.1413 43.4813C67.084 43.596 67.1987 43.768 67.3133 43.6533C68.2307 42.8507 69.0907 41.876 69.8933 40.9013C70.352 40.7293 70.7533 40.6147 71.212 40.4427C71.384 40.3853 71.2693 40.156 71.0973 40.2133C70.868 40.2707 70.5813 40.3853 70.352 40.4427C70.9827 39.6973 71.6133 38.8947 72.244 38.2067C72.416 38.0347 72.1293 37.8053 71.9573 37.9773C71.1547 38.8947 70.2947 39.812 69.4347 40.7293C68.9187 40.844 68.46 41.016 67.944 41.1307C69.664 39.2387 71.2693 37.1173 72.76 35.168C75.684 38.0347 79.7547 39.6973 83.3093 38.436C89.444 37.6907 95.5787 32.416 97.1267 26.6827C97.9867 23.5293 97.1267 19.86 94.6613 17.6813C93.9733 17.0507 93.228 16.592 92.4253 16.248C95.464 13.324 97.1267 8.22134 95.8653 4.03601C100.28 6.15734 103.777 10.1707 105.325 14.9293ZM86.9213 63.72C86.176 68.6507 84.6853 73.2374 82.1053 77.48C76.6587 83.0987 67.8293 82.3533 60.204 80.06C62.2107 78.9707 64.16 77.8813 66.1093 76.7347C67.1413 76.6773 68.1733 76.5627 69.2053 76.3907C68.0013 77.0214 66.7973 77.7094 65.5933 78.3974C64.7333 78.512 63.816 78.5694 62.956 78.684C62.784 78.684 62.784 79.028 63.0133 78.9707C63.644 78.9134 64.332 78.856 64.9627 78.7987C64.4467 79.0854 63.9307 79.4293 63.3573 79.716C63.1853 79.8307 63.3573 80.1747 63.5293 80.06C64.332 79.6013 65.192 79.1427 65.9947 78.684C67.428 78.5694 68.8613 78.3974 70.2947 78.2253C68.8613 79.028 67.428 79.7733 66.052 80.576C65.9947 80.576 66.052 80.6907 66.052 80.6333C67.944 80.0027 69.7787 79.0854 71.556 78.0534C71.8427 77.996 72.072 77.996 72.3587 77.9387C72.4733 77.9387 72.416 77.7667 72.3587 77.824C72.244 77.824 72.072 77.824 71.9573 77.8813C73.0467 77.2507 74.0787 76.5054 75.0533 75.8174C75.168 75.76 75.0533 75.588 74.9387 75.6453C73.5627 76.448 72.244 77.1934 70.868 77.9387C69.492 78.0534 68.116 78.168 66.74 78.2827C68.0013 77.5947 69.2053 76.9067 70.4093 76.2187C70.4667 76.2187 70.524 76.2187 70.5813 76.2187C70.696 76.2187 70.696 76.104 70.696 76.0467C71.212 75.76 71.728 75.416 72.244 75.1293C72.3587 75.072 72.244 74.8427 72.1293 74.9C71.4987 75.1867 70.8107 75.5307 70.18 75.8747C69.2053 75.8747 68.288 75.932 67.3133 75.9893C68.5173 75.244 69.7787 74.4987 70.9827 73.7533C71.04 73.696 70.9827 73.5813 70.9253 73.6387C69.492 74.384 68.0587 75.244 66.6827 76.0467C65.4213 76.1613 64.16 76.276 62.8987 76.3907C65.8227 74.7854 68.7467 73.0653 71.4413 71.116C71.556 71.0587 71.4413 70.8293 71.3267 70.8867C68.0013 72.7213 64.7333 74.6133 61.408 76.5053C60.4907 76.62 59.6307 76.6773 58.7133 76.7347C58.4267 76.7347 58.484 77.1934 58.7707 77.1934C59.2867 77.136 59.86 77.136 60.376 77.0787C59.344 77.652 58.312 78.2827 57.28 78.856C57.1653 78.9133 57.2227 79.028 57.28 79.1427C56.1333 78.7413 55.044 78.34 54.012 77.8813C52.98 77.4227 51.948 76.9067 50.9733 76.3907C52.3493 75.8174 53.7827 75.072 55.1013 74.3267C56.3627 74.1547 57.6813 73.9253 58.9427 73.5813C57.3373 74.6133 55.7893 75.7027 54.2987 76.9067C54.2987 76.9067 54.2987 76.964 54.356 76.964C56.3627 75.8174 58.3693 74.556 60.2613 73.2374C60.376 73.18 60.4907 73.18 60.6053 73.1227C60.6627 73.1227 60.6627 73.008 60.6053 73.008C61.6373 72.32 62.6693 71.5747 63.644 70.8867C63.7587 70.8293 63.644 70.7147 63.5293 70.772C62.2107 71.5747 60.9493 72.3773 59.6307 73.2374C58.484 73.4667 57.28 73.696 56.076 73.8107C56.9933 73.2374 57.8533 72.664 58.7707 72.0907C59.1147 72.0333 59.516 72.0333 59.86 71.976C59.9173 71.976 59.9173 71.8613 59.86 71.8613C59.5733 71.8613 59.344 71.9187 59.0573 71.9187C59.9747 71.288 60.8347 70.6573 61.6373 70.0267C61.752 69.9693 61.6373 69.7973 61.5227 69.8547C60.376 70.6 59.2867 71.288 58.14 71.976C56.42 72.0907 54.6427 72.148 52.9227 72.2627C53.5533 71.9187 54.1267 71.632 54.7573 71.288C55.732 71.2307 56.6493 71.1733 57.624 71.116C57.7387 71.116 57.7387 70.8867 57.624 70.8867C57.0507 70.8293 56.42 70.772 55.8467 70.772C57.7387 69.7973 59.6307 68.7653 61.408 67.6187C61.4653 67.5613 61.408 67.504 61.3507 67.504C59.4587 68.536 57.5667 69.6827 55.6173 70.772C54.356 70.7147 53.0373 70.772 51.776 70.944C53.7253 69.8547 55.56 68.5933 57.28 67.332C57.3947 67.2747 57.28 67.16 57.1653 67.2173C54.9293 68.5933 52.636 69.8547 50.3427 71.116C49.368 71.288 48.4507 71.46 47.5333 71.6893C47.476 71.6893 47.476 71.804 47.5333 71.804C48.164 71.7467 48.7947 71.7467 49.4253 71.6893C48.6227 72.148 47.8773 72.6067 47.132 73.0653C47.0747 73.0653 47.132 73.1227 47.1893 73.1227C47.648 72.9507 48.0493 72.7787 48.508 72.6067C48.508 72.7213 48.5653 72.7787 48.68 72.7787C49.8267 72.7787 51.0307 72.7213 52.1773 72.7213C51.3747 73.18 50.5147 73.5813 49.712 73.9827C49.6547 73.9827 49.712 74.04 49.712 74.04C50.5147 73.5814 51.3747 73.18 52.1773 72.7213C54.012 72.664 55.8467 72.5493 57.7387 72.32C56.764 72.8933 55.8467 73.4667 54.872 74.0974C52.9227 74.3267 50.9733 74.384 49.024 74.3267C48.7947 74.3267 48.7373 74.6707 48.9667 74.6707C50.6293 74.7854 52.3493 74.7854 53.9547 74.6707C52.9227 75.3014 51.8907 75.932 50.916 76.5627C47.9347 74.8427 45.24 72.7213 42.3733 70.772C43.692 70.1413 45.0107 69.4533 46.3293 68.6507C47.476 68.6507 48.6227 68.6507 49.7693 68.5933C47.8773 69.6253 45.928 70.5427 44.0933 71.6893C46.3293 70.8293 48.5653 69.74 50.744 68.536C51.776 68.536 52.808 68.4787 53.7827 68.4213C53.8973 68.4213 53.8973 68.2493 53.7827 68.2493C52.9227 68.2493 52.12 68.2493 51.26 68.2493C53.0373 67.2173 54.7573 66.1853 56.42 65.096C56.4773 65.0387 56.42 64.924 56.3627 64.924C54.2987 66.0133 52.292 67.16 50.228 68.2493C49.024 68.3067 47.7627 68.364 46.5587 68.364C48.0493 67.4467 49.54 66.4147 50.9733 65.3827C51.0307 65.3253 50.9733 65.268 50.916 65.268C49.3107 66.3573 47.5907 67.3894 45.928 68.364C45.24 68.4213 44.552 68.4213 43.864 68.4787C43.8067 68.4787 43.8067 68.536 43.864 68.536C44.4947 68.536 45.068 68.536 45.6987 68.536C44.552 69.224 43.4053 69.912 42.316 70.6C41.6853 70.1413 40.9973 69.74 40.3093 69.3387C40.1947 69.2813 40.1373 69.224 40.0227 69.1667C42.3733 68.1347 44.6093 67.0453 46.7307 65.612C46.788 65.5547 46.7307 65.44 46.616 65.4973C44.4373 66.816 42.2587 68.1347 39.9653 69.1667C39.4493 68.8227 38.8187 68.536 38.188 68.192C41.2267 66.5867 44.2653 64.9813 47.132 63.0893C47.2467 63.032 47.132 62.86 47.0173 62.9173C43.9213 64.4653 40.9973 66.3 38.0733 68.192C36.124 67.16 33.372 66.0133 31.0213 65.8413C34.748 64.4653 36.64 61.0253 38.0733 57.0693C39.3347 53.572 40.8827 50.5907 44.4947 49.2147C47.7627 47.9533 51.3173 48.1827 54.6427 48.928C61.0067 50.304 66.8547 52.5973 73.5053 52.4253C79.1813 52.2533 84.6853 50.7053 89.6733 48.0107C89.616 48.24 89.5014 48.412 89.444 48.6413C88.068 53.4 87.6667 58.56 86.9213 63.72ZM24.5427 91.584C26.3773 91.2974 28.1547 90.9534 29.932 90.38C32.3973 90.8387 34.8627 91.412 37.2707 92.272C40.94 93.5334 44.724 96.056 48.68 96.9734C41.2267 97.3747 33.6013 95.9987 26.6067 92.8454C24.3707 91.8134 22.1347 90.6093 20.0133 89.176C20.3573 89.176 20.7013 89.176 20.7013 89.176C21.4467 89.176 22.192 89.2907 22.88 89.4053C24.3133 89.5774 25.804 89.7494 27.2373 89.9213C27.8107 89.9787 28.3267 90.0933 28.9 90.208C27.4093 90.4373 25.9187 90.7813 24.4853 91.1254C24.1987 91.1827 24.256 91.6414 24.5427 91.584ZM43.2907 93.7054C40.8827 92.616 38.532 91.584 36.0093 90.7813C30.448 89.1187 24.4853 88.3734 18.6947 88.0867C18.6373 88.0867 18.6373 88.0867 18.58 88.0867C17.548 87.3413 16.5733 86.5387 15.5987 85.6787C16.2867 85.736 16.9747 85.6787 17.72 85.564C17.72 85.564 17.72 85.6214 17.7773 85.564C17.7773 85.564 17.7773 85.564 17.8347 85.5067C18.6947 85.392 19.5547 85.2774 20.4147 85.22C21.4467 85.1627 22.4213 85.1627 23.4533 85.1627C23.1093 85.5067 22.7653 85.908 22.4787 86.252C22.4787 86.252 22.4787 86.3093 22.536 86.3093C22.9947 85.9653 23.5107 85.564 23.9693 85.1627C25.1733 85.22 26.3773 85.3347 27.5813 85.5067C32.34 86.1947 36.7547 88.0294 41.112 89.864C46.5587 92.1574 52.4067 94.7374 58.3693 95.2533C56.42 95.7693 54.4707 96.1707 52.464 96.4574C49.196 95.884 46.272 95.0814 43.2907 93.7054ZM22.5933 84.0733C23.568 83.844 24.4853 83.6147 25.4027 83.328C25.0587 83.6147 24.772 83.9013 24.4853 84.188C23.8547 84.188 23.224 84.1307 22.5933 84.0733ZM27.696 84.5893C27.8107 84.532 27.9827 84.532 28.0973 84.4747C28.04 84.532 27.9827 84.5893 27.9253 84.5893C27.8107 84.5893 27.7533 84.5893 27.696 84.5893ZM37.4427 87.3413C34.4613 86.1947 31.4227 85.22 28.2693 84.6467C28.4413 84.532 28.556 84.4173 28.728 84.3027C29.5307 84.1307 30.3333 83.9587 31.136 83.7867C30.792 84.0733 30.448 84.3027 30.1613 84.5893C29.932 84.7613 30.2187 85.1053 30.3907 84.9333C30.9067 84.4174 31.48 84.016 32.1107 83.5574C33.4867 83.2707 34.92 82.984 36.296 82.7547C36.4107 82.7547 36.4107 82.5827 36.296 82.5827C35.1493 82.6973 34.0027 82.8693 32.856 83.0414C33.4293 82.64 34.06 82.296 34.6907 81.952C34.8053 81.8947 34.748 81.6653 34.576 81.7227C33.6013 82.124 32.684 82.64 31.8813 83.2133C31.0787 83.328 30.276 83.5 29.5307 83.672C31.308 82.3533 33.0853 80.9774 34.8053 79.544C34.8627 79.4867 34.8053 79.372 34.6907 79.4293C32.684 80.8053 30.7347 82.296 28.7853 83.844C27.9827 84.016 27.2373 84.188 26.4347 84.36C26.2627 84.36 26.148 84.3027 25.976 84.3027C25.6893 84.2453 25.3453 84.2453 25.0587 84.188C25.5173 83.7867 26.0333 83.3854 26.492 82.984C28.1547 82.5254 29.76 82.0667 31.4227 81.608C31.48 81.608 31.48 81.4933 31.3653 81.4933C29.932 81.8373 28.4987 82.1814 27.008 82.5254C28.212 81.4934 29.3587 80.4613 30.62 79.4867C30.6773 79.4294 30.62 79.3147 30.5627 79.372C29.0147 80.4613 27.4667 81.5507 26.0333 82.7547C24.428 83.156 22.8227 83.5573 21.2173 84.016C20.5867 84.016 20.0133 84.0734 19.44 84.1307C20.644 83.0987 21.7907 81.952 22.9947 80.92C24.772 79.372 26.6067 77.9387 28.4413 76.448C28.556 76.3333 28.4413 76.104 28.2693 76.2187C24.944 78.3974 21.6187 81.1493 18.8667 84.188C17.4907 84.36 16.2293 84.704 15.14 85.2774C14.796 84.9907 14.5093 84.6467 14.1653 84.36C15.656 82.8693 17.204 81.436 18.8093 80.06C18.8667 80.0027 18.8093 79.888 18.752 79.9454C17.0893 81.2067 15.484 82.6973 13.9933 84.188C10.3813 80.5187 7.68667 76.104 6.59733 71.0013C9.292 69.74 11.9293 68.9947 14.5667 68.5933C12.2733 70.256 9.75067 72.32 8.31734 74.6707C8.26 74.728 8.37467 74.7853 8.432 74.728C9.52134 73.9253 10.3813 72.836 11.356 71.8613C12.56 70.7147 13.764 69.568 15.0253 68.4787C25.976 67.16 36.7547 72.664 46.788 77.7093C55.2733 82.0093 69.32 89.2334 78.436 82.64C73.9067 87.972 68.116 91.8707 61.8093 94.2214C53.0947 94.508 45.4693 90.4947 37.4427 87.3413ZM60.204 80.06C59.2867 79.7733 58.3693 79.4867 57.5093 79.2H57.5667C58.9427 78.512 60.376 77.824 61.8093 77.0787C63.0707 77.0213 64.332 76.9067 65.5933 76.8493C63.7013 77.8813 61.9813 78.9707 60.204 80.06ZM52.98 72.148C51.604 72.2053 50.228 72.2627 48.852 72.2627C49.4827 71.976 50.056 71.6893 50.6867 71.4027C52.0053 71.3453 53.3813 71.288 54.7 71.1733C54.1267 71.5173 53.5533 71.804 52.98 72.148ZM70.2947 51.3933C63.644 51.0493 57.6813 47.6667 51.088 47.2653C47.0747 47.036 42.66 48.068 40.0227 51.2787C38.36 53.3427 37.7293 55.9227 36.8693 58.3307C35.3787 62.2867 32.684 64.9813 28.4413 65.784C28.1547 65.8413 28.1547 66.3 28.4987 66.3C28.556 66.3 28.6707 66.3 28.728 66.2427C28.9573 66.3573 29.1867 66.5293 29.244 66.5293C32.0533 67.3893 34.8627 67.3893 37.6147 68.7653C40.424 70.1413 42.8893 72.0334 45.412 73.8107C49.9987 77.136 54.7 79.372 60.204 80.8627C65.2493 82.2387 72.4733 83.672 77.92 81.8374C72.416 85.6214 64.9627 84.2453 59 82.1814C52.0053 79.7733 45.584 75.9893 38.876 72.836C29.244 68.3067 16.344 64.58 6.54 70.6C6.368 69.74 6.25334 68.8227 6.13867 67.9053C6.13867 67.5613 6.08134 67.2173 6.08134 66.8733C6.13867 66.9307 6.25334 66.988 6.368 66.988C6.94134 66.988 7.51467 66.988 8.088 66.988C8.088 66.988 8.14534 67.0453 8.20267 66.988C13.9933 66.8733 20.0707 66.3 25.4027 64.064C31.308 61.5987 34.92 57.0693 37.9013 51.5653C41.5133 44.972 44.6667 38.436 52.1773 35.6267C57.8533 33.5053 63.9307 32.9893 69.3773 30.2947C69.5493 30.868 69.836 31.384 70.1227 31.9C63.3 38.436 51.26 35.7413 45.6987 43.9973C45.412 44.456 45.756 44.972 46.272 44.8C52.292 42.9653 58.1973 45.4307 64.0453 46.8067C69.0333 48.0107 74.308 48.3547 79.4107 47.38C85.0294 46.2907 90.1893 43.3667 94.7187 39.64C92.9987 41.704 91.508 43.8827 90.4187 46.4053C90.3613 46.4053 90.304 46.4627 90.2467 46.4627C84.2267 50.0173 77.2893 51.7373 70.2947 51.3933ZM13.8787 59.936C14.3947 59.764 14.9107 59.6493 15.4267 59.4773C13.3053 61.7133 11.1267 63.892 8.948 66.0707C8.03067 66.128 7.17067 66.1853 6.31067 66.2427C6.196 66.2427 6.13867 66.3 6.08134 66.3V66.2427C8.66134 63.4907 11.0693 60.5667 13.42 57.528C14.968 57.2987 16.5733 57.0693 18.064 56.7253C17.3187 57.528 16.5733 58.2733 15.828 59.076C15.14 59.3053 14.452 59.4773 13.764 59.7067C13.592 59.7067 13.7067 59.9933 13.8787 59.936ZM74.5947 22.5547C73.62 23.0133 72.7027 23.5867 71.8427 24.16C72.072 23.644 72.3013 23.1853 72.6453 22.7267C73.7347 22.096 74.8813 21.4653 75.9707 20.7773L76.028 20.8347C77.9773 20.204 79.8693 19.1147 81.6467 18.0253C81.7613 17.968 81.6467 17.796 81.532 17.8533C80.0987 18.4267 78.608 19.1147 77.232 19.9173C77.232 19.86 77.1747 19.7453 77.06 19.8027C75.856 20.2613 74.652 20.9493 73.5053 21.6947C73.964 21.1787 74.48 20.72 75.0533 20.3187C76.3147 19.688 77.576 19.0573 78.78 18.3693C80.9013 17.624 83.1947 17.2227 85.316 17.0507C87.552 16.8787 90.0173 17.108 91.9667 18.2547C90.648 18.7133 89.3293 19.2867 88.0107 19.6307C87.208 19.5733 86.4053 19.6307 85.6027 19.8027C85.8893 19.6307 86.2333 19.4013 86.52 19.2293C86.6347 19.172 86.52 19 86.4053 19.0573C84.3987 19.8027 82.2773 20.6627 80.328 21.6373C80.0413 21.752 80.2133 22.1533 80.5 22.096C80.6147 22.096 80.672 22.0387 80.7867 22.0387C80.4427 22.268 80.0987 22.5547 79.7547 22.8413C78.78 23.2427 77.8053 23.7013 76.888 24.1027C76.716 24.16 76.8307 24.4467 77.0027 24.3893C77.6333 24.2173 78.264 23.9307 78.8947 23.7013C77.4613 25.1347 76.3147 26.9693 75.7987 28.9187C74.5373 29.4347 73.276 30.008 72.072 30.6387C71.9573 30.352 71.8427 30.1227 71.728 29.836C72.1867 29.6067 72.588 29.3773 72.9893 29.148C73.792 28.7467 74.5373 28.288 75.2827 27.772C75.3973 27.7147 75.2827 27.5427 75.168 27.6C74.2507 28.0013 73.3907 28.46 72.5307 28.9187C72.244 29.0907 71.9 29.2627 71.556 29.4347C71.4987 29.148 71.384 28.9187 71.3267 28.632C72.1867 28.0587 73.0467 27.4853 73.9067 26.912C73.964 26.8547 73.9067 26.74 73.8493 26.7973C72.932 27.1987 72.1293 27.7147 71.2693 28.288C71.212 27.7147 71.1547 27.1413 71.212 26.568C71.212 26.568 71.212 26.568 71.2693 26.568C72.3013 26.052 73.276 25.4213 74.0787 24.6187C74.1933 24.504 74.0213 24.3893 73.9067 24.4467C72.9893 24.9627 72.1293 25.4787 71.2693 26.052C71.3267 25.7653 71.384 25.4213 71.4987 25.1347C72.588 24.504 73.7347 23.8733 74.7093 23.0133C74.8813 22.7267 74.7667 22.4973 74.5947 22.5547ZM93.2853 19.2293C93.744 19.688 94.1453 20.2613 94.432 20.892C95.0627 22.2107 95.292 23.644 95.2347 25.0773C94.5467 23.128 93.056 21.4653 91.2787 20.548H91.2213C91.9093 20.204 92.5973 19.9173 93.228 19.4587C93.2853 19.344 93.2853 19.2867 93.2853 19.2293ZM75.4547 30.4667C74.9387 30.7533 74.48 31.04 74.0787 31.384C73.7347 31.6133 73.3907 31.9 73.0467 32.1867C72.7027 31.728 72.416 31.2693 72.1867 30.7533C73.3907 30.2373 74.5947 29.664 75.7413 29.0333C75.5693 29.492 75.4547 30.008 75.4547 30.4667ZM74.308 31.7853C74.7093 31.556 75.0533 31.2693 75.3973 30.9827C75.3973 31.212 75.3973 31.4987 75.3973 31.728C74.7667 32.0147 74.0787 32.416 73.5053 32.8173C73.3907 32.7027 73.3333 32.588 73.2187 32.4733C73.62 32.244 73.964 32.0147 74.308 31.7853ZM75.512 32.1867C75.512 32.416 75.5693 32.588 75.6267 32.8173C75.7413 33.276 75.856 33.7347 76.028 34.1933C75.7987 34.3653 75.6267 34.5373 75.3973 34.652C74.8813 34.2507 74.4227 33.792 74.0213 33.3333C74.48 32.9893 75.0533 32.6453 75.512 32.1867ZM76.1427 34.48C76.3147 34.8813 76.544 35.34 76.8307 35.684C76.4293 35.4547 76.0853 35.168 75.7413 34.8813C75.856 34.824 76.028 34.652 76.1427 34.48ZM77.1173 31.212C77.1173 28.288 78.7227 25.536 81.016 23.816C83.3667 22.0387 86.8067 20.7773 89.7307 21.8667C92.712 23.0133 95.0627 26.9693 93.8587 30.1227C92.712 33.276 87.6093 35.684 84.5707 36.372C82.5067 36.8307 80.672 37.6333 78.8947 35.9707C77.748 34.824 77.1173 32.8747 77.1173 31.212ZM93.1133 19.172C92.2533 19.4013 91.4507 19.86 90.648 20.2613C90.2467 20.0893 89.8453 19.9747 89.3867 19.86C90.4187 19.5733 91.4507 19.1147 92.368 18.5413C92.6547 18.7133 92.9413 18.9427 93.1707 19.2293C93.1707 19.172 93.1133 19.172 93.1133 19.172ZM94.776 3.57734C95.2347 5.52667 95.5787 7.41867 95.2347 9.54001C94.776 12.0053 93.6293 14.184 92.1387 16.1333C90.9347 15.6747 89.6733 15.388 88.3547 15.3307C92.196 12.5213 94.2027 7.18934 91.9667 2.71734C92.9413 2.88934 93.8587 3.23334 94.776 3.57734ZM70.008 10.4573C71.0973 9.71201 72.1293 9.02401 73.1613 8.27867C76.372 6.04267 79.5827 3.97867 83.5387 2.94667C79.984 6.67334 76.3147 10.2853 73.104 14.2987C72.9893 14.4133 73.1613 14.528 73.276 14.4133C77.0027 10.8013 80.3853 6.78801 83.768 2.88934C85.144 2.54534 86.5773 2.31601 88.0107 2.31601C88.928 2.31601 89.9027 2.37334 90.7627 2.48801C92.024 5.58401 92.5974 8.62267 90.8773 11.776C90.0747 13.2667 88.8707 14.4133 87.4947 15.216C86.52 15.1587 85.5453 15.216 84.5707 15.3307C77.92 15.9613 68.9187 19 68.804 27.084C68.804 27.8867 68.9187 28.632 69.0907 29.4347C63.5293 32.244 57.2227 32.7027 51.3747 34.8813C45.584 37.0027 41.9147 40.844 39.1627 46.2907C35.8373 52.8267 33.2 59.3053 26.148 62.688C20.816 65.2107 14.968 65.6693 9.17733 66.0707C11.6427 63.9493 13.936 61.656 16.1147 59.3053C17.2613 58.9613 18.4653 58.6173 19.612 58.3307C19.0387 58.7893 18.5227 59.3053 18.0067 59.764C17.376 59.936 16.8027 60.108 16.172 60.3373C15.9427 60.3947 16.0573 60.796 16.344 60.6813C16.688 60.5667 17.032 60.5093 17.376 60.3947C15.656 62 13.9933 63.6627 12.216 65.3253C12.1587 65.3827 12.216 65.3827 12.2733 65.3827C13.9933 63.6053 15.9427 61.9427 17.8347 60.28C19.0387 59.936 20.3 59.592 21.504 59.248C20.5293 60.0507 19.5547 60.8533 18.58 61.656C17.8347 61.828 17.0893 62.0573 16.2867 62.2293C15.9427 62.2867 16 62.86 16.344 62.8027C16.7453 62.7453 17.0893 62.6307 17.4907 62.516C17.376 62.6307 17.2613 62.688 17.1467 62.8027C17.2613 62.688 17.4333 62.5733 17.548 62.516C19.096 62.172 20.644 61.7133 22.1347 61.2547C21.0453 62.2293 19.956 63.1467 18.8093 64.064C18.6373 64.1787 18.8093 64.4653 19.0387 64.3507C20.5293 63.204 22.02 62.0573 23.4533 60.8533C24.6573 60.452 25.8613 59.936 27.0653 59.42C27.2373 59.3627 27.1227 59.076 26.9507 59.1333C26.0907 59.42 25.288 59.7067 24.428 59.936C26.6067 57.9867 28.6133 55.98 30.5053 53.744C30.5627 53.6867 30.448 53.572 30.3907 53.6293C27.9827 55.9227 25.632 58.1587 23.1667 60.3373C21.676 60.796 20.2427 61.2547 18.752 61.5987C19.8413 60.796 20.8733 59.9933 21.9053 59.1333C22.88 58.8467 23.912 58.5027 24.8867 58.216C25.0013 58.1587 24.944 57.9293 24.8293 57.9867C24.1413 58.1587 23.396 58.3307 22.708 58.5027C24.772 56.7827 26.7787 54.948 28.6707 52.9987C28.6707 52.9987 28.6707 52.9413 28.6133 52.9413C26.5493 54.8333 24.428 56.7827 22.3067 58.6173C21.1027 58.9613 19.8987 59.3053 18.6373 59.6493C19.2107 59.1333 19.8413 58.6747 20.4147 58.1587C21.5613 57.8147 22.6507 57.4707 23.7973 57.1267C23.912 57.0693 23.8547 56.8973 23.74 56.8973C22.8227 57.1267 21.9627 57.356 21.0453 57.6427C21.504 57.2413 21.9053 56.8973 22.364 56.496C22.4787 56.3813 22.364 56.2093 22.2493 56.324C21.6187 56.84 20.988 57.2987 20.3573 57.872C19.096 58.216 17.8347 58.6173 16.6307 58.9613C17.3187 58.216 17.9493 57.4707 18.58 56.7253C21.2747 56.0947 23.8547 55.292 26.3773 54.1453C26.492 54.088 26.4347 53.916 26.32 53.916C23.9693 54.7187 21.5613 55.464 19.1533 56.0947C19.8413 55.292 20.5293 54.4893 21.16 53.6293C21.2173 53.572 21.1027 53.4573 21.0453 53.572C20.2427 54.4893 19.44 55.3493 18.58 56.2667C16.9747 56.668 15.312 57.012 13.6493 57.2987C14.5093 56.152 15.4267 55.0053 16.2867 53.8013C16.344 53.6867 16.2293 53.572 16.1147 53.6867C12.6747 57.4133 9.12 61.4267 6.08134 65.7267C6.25334 60.452 8.54667 55.808 11.4133 51.2787C14.28 46.6347 17.3187 41.9907 20.988 37.92C29.072 28.9187 40.1373 24.848 50.9733 20.3187C49.9987 21.3507 48.9667 22.3827 47.8773 23.3573C45.8707 23.7013 43.8067 23.988 41.8 24.16C41.7427 24.16 41.7427 24.2173 41.8 24.2173C43.7493 23.988 45.756 23.7587 47.7053 23.5293C46.272 24.9053 44.7813 26.224 43.2907 27.4853C42.316 27.7147 41.3413 27.8867 40.3093 28.116C40.08 28.1733 40.1373 28.5173 40.3667 28.46C41.112 28.3453 41.8573 28.1733 42.66 28.0587C41.5133 29.0333 40.3667 29.9507 39.22 30.9253C39.1627 30.9827 39.22 31.0973 39.3347 31.04C40.7107 30.0653 41.972 29.0333 43.2333 27.944C44.4947 27.7147 45.756 27.428 47.0173 27.1413C46.1 28.0013 45.1827 28.8613 44.3227 29.7787C43.004 30.008 41.628 30.18 40.3093 30.352C40.08 30.352 40.1373 30.696 40.3667 30.696C41.5707 30.5813 42.7173 30.4093 43.9213 30.2373C43.4053 30.7533 42.8893 31.2693 42.4307 31.7853C39.908 32.3013 37.3853 32.76 34.8627 33.1613C34.6333 33.2187 34.6907 33.5627 34.92 33.5053C37.328 33.1613 39.736 32.8173 42.144 32.3587C42.144 32.3587 42.144 32.3587 42.2013 32.3587C45.3547 31.7853 48.508 31.1547 51.604 30.352C51.604 30.4093 51.6613 30.4667 51.7187 30.4093C51.776 30.352 51.8333 30.2947 51.8907 30.2947C52.808 30.0653 53.7827 29.7787 54.7 29.492C54.872 29.4347 54.8147 29.2053 54.6427 29.2053C53.9547 29.32 53.2667 29.492 52.5787 29.6067C53.324 28.9187 54.1267 28.1733 54.872 27.428C55.1013 27.3133 55.388 27.256 55.6747 27.1413C55.7893 27.084 55.732 26.912 55.6173 26.9693C55.5027 27.0267 55.388 27.0267 55.2733 27.084C58.9427 23.472 62.3253 19.5733 65.8227 15.732C65.8227 15.732 65.8227 15.6747 65.7653 15.6747C62.096 19.688 58.1973 23.4147 54.4133 27.256C53.152 27.6 51.8907 27.944 50.6867 28.288C51.6613 27.3133 52.636 26.3387 53.5533 25.3067C53.84 25.192 54.184 25.1347 54.4707 25.02C54.5853 24.9627 54.528 24.7333 54.4133 24.7907C54.2413 24.848 54.1267 24.848 53.9547 24.9053C57.2227 21.408 60.4333 17.8533 63.7013 14.2987C64.9627 12.808 68.116 11.7187 70.008 10.4573ZM48.1067 30.5813C46.3293 30.9253 44.552 31.3267 42.832 31.6707C43.4053 31.1547 43.9787 30.6387 44.552 30.0653C46.1573 29.7787 47.7627 29.492 49.3107 29.0907C48.9093 29.5493 48.508 29.9507 48.1067 30.4093C48.0493 30.524 48.0493 30.5813 48.1067 30.5813ZM49.884 28.976C51.2027 28.632 52.464 28.288 53.7827 27.8293C53.152 28.46 52.5213 29.148 51.948 29.7787C50.744 30.008 49.54 30.2947 48.336 30.524C48.852 30.0653 49.368 29.492 49.884 28.976ZM49.7693 28.632C48.2213 29.0333 46.616 29.3773 45.0107 29.664C45.928 28.7467 46.9027 27.8867 47.82 26.9693C49.368 26.6253 50.9733 26.224 52.5213 25.7653C51.604 26.6827 50.6867 27.6573 49.7693 28.632ZM47.5907 26.5107C46.3293 26.7973 45.068 27.084 43.8067 27.3707C45.24 26.1093 46.616 24.848 47.9347 23.472C49.0813 23.3 50.228 23.128 51.432 22.956C50.1133 24.16 48.852 25.3067 47.5907 26.5107ZM48.1067 23.3C49.0813 22.3253 50.056 21.2933 51.0307 20.2613C53.0373 19.4013 55.1013 18.5413 57.0507 17.624C55.2733 19.344 53.4387 21.0067 51.604 22.6693C50.5147 22.956 49.3107 23.128 48.1067 23.3ZM52.98 25.2493C51.4893 25.5933 49.9987 25.9373 48.508 26.2813C49.6547 25.1347 50.744 23.988 51.8907 22.8987C53.2667 22.6693 54.5853 22.3827 55.904 22.096C55.9613 22.096 55.9613 21.924 55.904 21.9813C54.6427 22.2107 53.3813 22.44 52.12 22.6693C53.7827 21.0067 55.4453 19.2867 57.1653 17.6813C59.2293 16.764 61.236 15.732 63.1853 14.6427C59.86 18.1973 56.42 21.6947 52.98 25.2493ZM3.96 57.4707C6.31067 48.3547 12.56 40.9587 19.8413 35.2253C28.212 28.632 37.9587 23.816 47.648 19.4587C52.4067 17.3373 57.28 15.5027 62.096 13.496C47.7627 21.064 31.136 24.676 19.956 37.1173C16 41.4747 12.8467 46.52 9.75067 51.508C6.94134 56.0373 4.70534 60.7387 4.70534 66.128C4.648 77.136 12.1587 86.1947 21.2747 91.584C27.9253 95.4827 35.5507 97.776 43.2907 98.2347C47.1893 98.464 51.088 98.2347 54.872 97.5467C56.7067 97.2027 58.5413 96.8013 60.3187 96.228C67.4853 93.8773 74.0213 89.9787 79.0667 84.2454C86.692 75.7027 88.412 65.44 90.3613 54.5467C91.508 48.0107 94.088 42.8507 98.4453 37.8627C101.828 34.0213 105.497 30.2947 106.931 25.2493C107.217 24.2173 107.447 23.2427 107.561 22.2107C107.733 23.1853 107.791 24.16 107.791 25.1347C107.733 25.2493 107.676 25.364 107.676 25.4787C107.676 26.1093 107.676 26.74 107.676 27.3133C107.619 27.772 107.561 28.2307 107.504 28.632C106.701 33.448 104.007 37.0027 101.025 40.7293C95.0627 48.1827 94.776 56.6107 93.1707 65.6693C89.8453 84.8187 73.7347 97.604 55.1587 100.757C38.5893 103.509 19.8413 99.324 8.03067 86.8253C6.48267 85.22 4.93467 83.4427 3.96 81.436C2.69867 78.9133 2.64134 75.9893 2.52667 73.2374C2.412 68.02 2.584 62.6307 3.96 57.4707ZM2.98534 92.3867C2.98534 92.3294 2.98534 92.272 2.928 92.2147C3.04267 92.444 3.15734 92.6734 3.272 92.8454C3.15734 92.6734 3.04267 92.5014 2.98534 92.3867ZM48.3933 113.944C47.132 114.001 45.928 114.059 44.6667 114.059C45.6413 113.543 46.6733 113.027 47.648 112.511C49.024 112.453 50.4573 112.281 51.8333 112.109C50.744 112.74 49.712 113.313 48.5653 113.772C48.4507 113.829 48.4507 113.887 48.3933 113.944ZM42.7173 110.217C42.316 110.217 41.9147 110.16 41.5133 110.16C40.596 110.103 39.736 110.045 38.8187 109.931C39.4493 109.644 40.08 109.3 40.7107 108.956C42.0867 109.071 43.4627 109.128 44.896 109.128C44.208 109.529 43.4627 109.873 42.7173 110.217ZM45.756 109.128C46.6733 109.128 47.5907 109.071 48.508 109.013C47.648 109.415 46.788 109.816 45.928 110.217C45.24 110.217 44.4947 110.217 43.8067 110.217C44.4373 109.931 45.1253 109.529 45.756 109.128ZM38.876 108.096C38.876 108.039 38.876 108.039 38.876 107.981C38.876 107.58 38.188 107.465 38.0733 107.867C38.0733 107.924 38.0733 107.981 38.016 108.039C37.2133 107.924 36.4107 107.809 35.608 107.695C36.2387 107.351 36.8693 107.007 37.5 106.605C39.392 106.892 41.284 107.007 43.176 107.121C42.4307 107.523 41.6853 107.981 40.8827 108.383C40.252 108.268 39.564 108.211 38.876 108.096ZM38.0733 108.669C38.188 108.899 38.532 108.899 38.704 108.727C39.1053 108.784 39.4493 108.841 39.8507 108.899C39.22 109.243 38.532 109.529 37.9013 109.816C36.2387 109.587 34.576 109.3 32.9707 109.013C33.6013 108.727 34.232 108.44 34.8627 108.096C35.8947 108.325 36.984 108.497 38.0733 108.669ZM36.8693 110.275C36.0667 110.619 35.3213 110.963 34.5187 111.249C33.028 110.963 31.5373 110.676 30.0467 110.275C30.7347 109.988 31.4227 109.701 32.1107 109.357C33.6587 109.701 35.264 110.045 36.8693 110.275ZM37.844 110.389C39.048 110.561 40.252 110.676 41.5133 110.791C40.596 111.192 39.736 111.536 38.8187 111.823C37.672 111.708 36.5827 111.593 35.4933 111.421C36.2387 111.077 37.0413 110.733 37.844 110.389ZM42.5453 110.848C43.176 110.905 43.864 110.905 44.4947 110.905C43.692 111.307 42.832 111.651 42.0293 111.995C41.284 111.995 40.596 111.937 39.8507 111.88C40.8253 111.593 41.6853 111.249 42.5453 110.848ZM45.9853 110.905C47.304 110.905 48.5653 110.848 49.884 110.733C49.1387 111.135 48.336 111.536 47.5907 111.937C46.2147 112.052 44.8387 112.052 43.4627 112.052C44.3227 111.651 45.1253 111.307 45.9853 110.905ZM54.0693 110.791C53.7827 110.963 53.5533 111.077 53.2667 111.249C53.0947 111.307 52.8653 111.307 52.6933 111.364C51.432 111.536 50.1707 111.708 48.9093 111.823C49.6547 111.421 50.4 111.02 51.1453 110.619C53.324 110.389 55.5027 109.988 57.624 109.472C57.0507 109.816 56.42 110.217 55.7893 110.561C55.5027 110.561 55.2733 110.676 55.216 110.905C54.9293 110.963 54.5853 111.077 54.2987 111.135C54.4707 110.905 54.2987 110.676 54.0693 110.791ZM100.108 51.336C99.8787 51.7373 99.6493 52.196 99.4773 52.6547C99.592 52.368 99.7067 52.0813 99.764 51.7373C99.8214 51.6227 99.6493 51.508 99.592 51.68C98.388 54.432 97.4707 57.2987 96.7827 60.2227C96.152 63.032 95.4067 66.2427 95.636 69.1667C95.636 69.396 95.98 69.396 95.98 69.1667C96.5533 66.3573 96.6107 63.4333 97.2413 60.5667C97.528 59.1907 97.872 57.8147 98.2733 56.4387C98.1013 57.356 97.9293 58.3307 97.8147 59.3053C97.184 65.7267 97.7573 71.8614 95.0053 77.9387C92.4253 83.672 88.3547 88.7747 84.628 93.7627C81.016 98.5213 77.1173 103.108 72.244 106.605C67.0267 110.275 60.8347 112.281 54.6427 113.313C53.0373 113.6 51.432 113.772 49.8267 113.887C51.0307 113.313 52.1773 112.683 53.2667 111.937C53.9547 111.823 54.5853 111.708 55.2733 111.593C55.3307 111.708 55.5027 111.823 55.6747 111.823C56.0187 111.88 56.1907 111.708 56.3053 111.479C56.42 111.421 56.592 111.307 56.7067 111.249C58.8853 110.733 61.064 110.045 63.128 109.243C63.1853 109.357 63.3 109.472 63.4147 109.415C63.5867 109.357 63.7587 109.357 63.8733 109.3C64.16 109.243 64.332 109.013 64.2747 108.727C64.676 108.555 65.1347 108.325 65.536 108.153C65.708 108.039 65.5933 107.752 65.4213 107.867C64.9627 108.039 64.4467 108.211 63.988 108.383C63.7587 108.325 63.5293 108.383 63.4147 108.612C61.9813 109.128 60.4907 109.587 59.0573 109.988C59.7453 109.644 60.4333 109.243 61.064 108.841C61.2933 108.727 61.3507 108.555 61.3507 108.383C61.752 108.268 62.096 108.153 62.4973 107.981C62.612 107.924 62.5547 107.809 62.44 107.809C62.0387 107.924 61.6947 107.981 61.2933 108.096C61.1213 107.809 60.7773 107.58 60.376 107.809C59.9173 108.096 59.4013 108.383 58.9427 108.669C56.8213 109.128 54.6427 109.529 52.5213 109.816C52.8653 109.587 53.2667 109.415 53.6107 109.185C53.668 109.128 53.6107 109.013 53.5533 109.013C52.8653 109.3 52.1773 109.644 51.5467 109.931C50.1707 110.103 48.7947 110.217 47.3613 110.275C48.164 109.873 48.9093 109.472 49.712 109.013C50.056 109.013 50.3427 108.956 50.6867 108.899C50.744 109.071 50.916 109.185 51.26 109.185C51.3747 109.185 51.432 109.185 51.5467 109.185C51.776 109.128 51.948 108.956 51.948 108.784C54.4707 108.44 56.9933 107.981 59.4013 107.293C59.4587 107.293 59.4587 107.121 59.344 107.179C56.8213 107.637 54.2413 108.039 51.6613 108.268C51.604 108.211 51.4893 108.153 51.3747 108.153C51.26 108.096 51.2027 108.096 51.088 108.153C51.088 108.096 51.0307 107.981 50.916 108.039C50.6293 108.153 50.2853 108.325 49.9987 108.497C48.9093 108.555 47.82 108.612 46.6733 108.669C47.0747 108.383 47.4187 108.096 47.82 107.809C47.8773 107.752 47.82 107.637 47.7627 107.695C47.1893 108.039 46.616 108.325 46.1 108.669C45.6987 108.669 45.2973 108.669 44.896 108.669C44.6093 108.669 44.38 108.669 44.0933 108.669C44.6093 108.555 44.6667 107.695 44.036 107.58C43.348 107.465 43.176 108.497 43.8067 108.669C43.1187 108.669 42.4307 108.612 41.7427 108.555C42.4307 108.153 43.1187 107.752 43.8067 107.293C44.7813 107.351 45.6987 107.351 46.616 107.351C50.1707 107.351 54.7 107.637 57.8533 105.573C57.9107 105.516 57.8533 105.459 57.796 105.459C56.1333 106.319 54.2987 106.433 52.464 106.548C50.4 106.663 48.336 106.777 46.272 106.777C45.6987 106.777 45.1253 106.777 44.6093 106.72C44.8387 106.548 45.1253 106.376 45.3547 106.204C45.412 106.147 45.3547 106.032 45.24 106.089C44.896 106.319 44.552 106.491 44.1507 106.72C42.144 106.663 40.1947 106.491 38.188 106.319C38.188 106.261 38.1307 106.204 38.016 106.204C37.9587 106.204 37.9013 106.261 37.9013 106.261C36.4107 106.089 34.8627 105.917 33.372 105.745C33.2 105.745 33.2 105.975 33.3147 105.975C34.5187 106.261 35.78 106.491 37.0413 106.663C36.3533 107.007 35.7227 107.351 35.0347 107.695C33.3147 107.408 31.5947 107.064 29.932 106.72C29.8173 106.663 29.7027 106.949 29.8747 106.949C31.308 107.408 32.7413 107.809 34.232 108.096C33.6013 108.383 33.028 108.727 32.3973 109.013C32.0533 108.956 31.652 108.899 31.308 108.784C27.5813 108.039 23.7973 107.351 20.0707 106.261C19.956 106.261 19.8987 106.376 20.0133 106.376C23.5107 107.58 27.0653 108.383 30.6773 109.185C30.964 109.243 31.308 109.3 31.5947 109.357C30.964 109.644 30.276 109.988 29.6453 110.275C24.256 108.841 19.1533 106.663 14.2227 103.911C14.1653 103.853 14.0507 104.025 14.108 104.083C18.5227 107.121 23.5107 109.3 28.728 110.733C28.4987 110.848 28.2693 110.905 28.0973 111.02C27.9827 111.077 28.04 111.249 28.1547 111.192C28.4413 111.077 28.728 110.963 29.072 110.848C30.5053 111.249 31.996 111.536 33.4293 111.823C33.2573 111.88 33.1427 111.937 32.9707 111.995C32.684 112.109 32.856 112.453 33.1427 112.396C33.544 112.281 33.9453 112.109 34.2893 111.995C35.3213 112.167 36.3533 112.281 37.3853 112.396C37.328 112.396 37.2707 112.453 37.156 112.453C36.9267 112.511 37.0413 112.912 37.328 112.855C37.7293 112.74 38.1307 112.625 38.532 112.511C38.8187 112.511 39.1053 112.568 39.392 112.568C40.08 112.625 40.8253 112.683 41.5133 112.683C41.5707 112.797 41.6853 112.912 41.8573 112.855C41.972 112.797 42.0867 112.74 42.2013 112.683C43.5773 112.74 45.0107 112.74 46.3867 112.683C45.756 113.027 45.1253 113.371 44.4947 113.715C44.3227 113.829 44.3227 114.059 44.4947 114.173C35.608 114.116 26.7213 112.052 18.6947 108.153C13.1333 105.401 6.712 101.56 4.01734 95.6547C5.22133 97.4893 6.712 99.0947 8.31734 100.241C8.48934 100.356 8.71867 100.184 8.604 99.9547C7.4 98.4067 5.96667 97.0307 4.82 95.4254C4.82 95.4254 4.82 95.368 4.76267 95.368C5.336 96.1133 5.96667 96.8014 6.712 97.432C6.82667 97.5467 6.99867 97.3747 6.94134 97.26C6.25334 96.4 5.56534 95.4827 4.87734 94.5654C5.73734 95.54 6.65467 96.4574 7.62934 97.3174C7.744 97.432 7.916 97.26 7.80134 97.1454C5.96667 95.196 4.18934 93.1894 2.64134 90.9534C2.35467 89.176 2.29734 87.284 2.24 85.5067C3.32934 89.2907 5.336 93.1894 8.54667 95.2533C8.71867 95.368 8.948 95.196 8.776 95.024C7.4 93.2467 5.79467 91.6987 4.648 89.692C3.55867 87.9147 2.69867 85.9653 2.18267 83.9013C4.07467 87.628 6.59734 91.1254 9.98 93.648C10.0947 93.7627 10.324 93.5907 10.2093 93.4187C7.17067 90.1507 4.304 86.8827 2.12534 82.984C2.068 81.8947 2.01067 80.8627 1.95334 79.7733C2.24 80.8627 2.64134 81.8947 3.21467 82.8693C7.17067 89.9213 15.0253 95.8267 22.3067 99.0374C30.276 102.535 38.876 104.255 47.5333 103.853C66.224 102.993 84.456 94.3934 92.2533 76.792C93.3427 74.2693 93.3427 70.3707 93.9733 67.7333C93.8587 69.568 93.8013 71.46 93.8587 73.2374C93.8587 73.352 94.088 73.352 94.088 73.2374C94.776 68.0773 94.7187 62.86 96.0373 57.7573C97.2413 53.056 99.42 48.6987 102.803 45.144C102.86 45.0293 102.745 44.9147 102.631 44.972C99.764 47.552 97.8147 50.9347 96.496 54.5467C97.5853 50.0747 99.1333 45.7173 102.172 41.9333C104.351 39.2387 106.3 36.6013 107.619 33.5627C107.504 35.3973 107.332 37.232 106.931 39.0093C106.128 40.4427 105.039 41.6467 103.605 42.6787C103.491 42.7933 103.605 43.0227 103.777 42.9653C104.867 42.392 105.784 41.5893 106.529 40.672C106.013 42.392 105.268 44.0547 104.236 45.66C102.975 47.4373 101.312 49.2147 100.108 51.336Z" fill="#5B5B69"/>
<path d="M93.1133 78.0534C90.2467 82.64 87.4373 87.2267 84.1693 91.584C84.456 90.8387 84.6853 90.036 84.9147 89.2334C86.2907 87.628 87.4947 85.908 88.584 84.1307C88.6413 84.016 88.4693 83.9587 88.412 84.016C87.4373 85.5067 86.348 86.8827 85.2013 88.2014C85.316 87.6854 85.488 87.1694 85.6027 86.7107C85.316 87.3414 85.0293 88.0294 84.6853 88.7174C84.0547 89.4054 83.424 90.036 82.7933 90.6667C83.08 89.9787 83.3667 89.2334 83.6533 88.5454C83.768 88.316 83.424 88.2014 83.3093 88.3734C82.8507 89.4054 82.4493 90.38 81.9907 91.412C79.7547 93.476 77.232 95.2534 74.5373 96.8587C74.4227 96.916 74.5373 97.088 74.652 97.088C77.1173 95.9414 79.4107 94.4507 81.4747 92.616C81.36 92.8454 81.3027 93.0174 81.188 93.2467C80.6147 94.508 79.9267 95.8267 79.5827 97.1454C77.1173 99.7827 74.2507 102.076 70.8107 103.337C70.696 103.395 70.7533 103.509 70.868 103.452C74.3653 102.477 77.1173 100.356 79.5827 97.8334C79.64 97.8334 79.64 97.8334 79.64 97.776C79.6973 97.7187 79.6973 97.7187 79.6973 97.6614C80.844 96.4574 81.876 95.196 82.8507 93.9347C84.2267 92.1574 85.5453 90.38 86.864 88.5454C86.5773 89.1187 86.348 89.7494 86.2333 90.3227C86.176 90.4947 86.4627 90.6094 86.5773 90.4374C87.3227 89.348 87.8387 87.972 88.3547 86.768C88.412 86.6534 88.3547 86.5387 88.2973 86.424C90.132 83.7294 91.7947 80.92 93.228 77.996C93.3427 78.0534 93.1707 77.996 93.1133 78.0534ZM83.252 92.8454C83.1947 92.9027 83.1373 93.0174 83.08 93.0747C82.3347 94.0494 81.532 95.024 80.7293 95.9987C81.0733 95.196 81.4173 94.336 81.704 93.5334C81.9333 93.0174 82.1053 92.5014 82.3347 91.928C82.9653 91.3547 83.5387 90.7814 84.112 90.1507C83.768 91.068 83.424 91.9854 83.252 92.8454Z" fill="#5B5B69"/>
<path d="M15.2547 99.152C15.14 99.152 15.0827 99.324 15.1973 99.324C15.3693 99.3813 15.3693 99.2093 15.2547 99.152Z" fill="#5B5B69"/>
<path d="M14.1648 102.419C14.2215 102.419 14.2215 102.363 14.1648 102.363C14.1082 102.363 14.1082 102.419 14.1648 102.419Z" fill="#5B5B69"/>
<path d="M50.8013 103.681C46.96 104.255 43.2907 104.083 39.5067 103.509C39.4493 103.509 39.4493 103.567 39.5067 103.567C43.1187 104.828 47.132 104.828 50.8587 103.911C50.9733 103.911 50.9733 103.681 50.8013 103.681Z" fill="#5B5B69"/>
<path d="M71.2693 27.3133C71.1547 27.428 71.2693 27.7147 71.4413 27.6C72.588 26.9693 73.792 26.2813 74.7093 25.4213C74.7667 25.364 74.7093 25.192 74.5947 25.2493C73.448 25.708 72.3013 26.5107 71.2693 27.3133Z" fill="#5B5B69"/>
<path d="M80.844 19.6879C81.8187 19.1719 82.7933 18.6559 83.7107 17.9679C83.8254 17.9106 83.7107 17.6812 83.596 17.7386C82.5067 18.1972 81.4173 18.8279 80.328 19.4012C79.5253 19.8599 78.4933 20.2039 77.8053 20.8919C78.8947 20.7772 79.9267 20.1466 80.844 19.6879Z" fill="#5B5B69"/>
<path d="M79.3533 21.0641C80.5573 21.0067 81.7613 20.2041 82.7933 19.6881C83.94 19.1721 85.0293 18.5987 86.0613 17.9107C86.1187 17.8534 86.0613 17.7961 86.004 17.7961C84.6853 18.2547 83.424 18.8281 82.1627 19.4014C81.2453 19.9174 80.0987 20.3187 79.3533 21.0641Z" fill="#5B5B69"/>
<path d="M92.3107 20.6627C92.5973 20.7774 92.8267 20.892 93.1707 20.7774C93.4574 20.72 93.6867 20.4907 93.8014 20.2614C93.8587 20.1467 93.744 19.9747 93.572 20.032C93.2853 20.1467 92.8267 20.4334 92.4827 20.3187C92.196 20.2614 92.0813 20.548 92.3107 20.6627Z" fill="#5B5B69"/>
<path d="M35.8947 66.2426C37.2707 66.0706 38.5893 65.4973 39.6787 64.6373C38.5893 65.4973 37.328 66.0706 35.8947 66.2426Z" fill="#5B5B69"/>
<path d="M67.8293 70.7147C63.7013 73.1227 59.7454 75.7027 55.732 78.2827C59.86 75.8174 63.9307 73.4094 67.8867 70.7721C67.944 70.7721 67.8867 70.6574 67.8293 70.7147Z" fill="#5B5B69"/>
<path d="M78.8373 76.5053C76.4293 77.824 74.0787 79.028 71.4987 79.9453C71.212 80.06 71.384 80.5187 71.6707 80.404C74.2507 79.544 76.8307 78.3973 79.0093 76.7347C79.124 76.6773 79.0093 76.3907 78.8373 76.5053Z" fill="#5B5B69"/>
<path d="M63.2426 52.1386C63.3 52.0813 63.2426 52.0813 63.2426 52.1386C62.6693 52.5399 62.096 52.9413 61.5227 53.3426C62.1533 52.9413 62.6693 52.5399 63.2426 52.1386Z" fill="#5B5B69"/>
<path d="M60.72 57.2414C63.472 55.6934 66.052 53.8014 68.8613 52.368C65.9947 53.744 63.0133 55.0054 60.6053 57.0694C60.4907 57.1267 60.6053 57.2987 60.72 57.2414Z" fill="#5B5B69"/>
<path d="M71.3267 59.9934C71.2694 60.0507 71.3267 60.1654 71.384 60.1081C74.5947 58.0441 77.6334 55.5787 80.7294 53.4001V53.3427C77.6334 55.5214 74.3654 57.5854 71.3267 59.9934Z" fill="#5B5B69"/>
<path d="M75.3973 60.1081C71.1547 60.3948 66.912 60.9107 62.612 61.3694C62.3827 61.3694 62.44 61.7708 62.6693 61.7134C66.74 61.3121 70.868 60.9681 74.9387 60.3948C74.652 60.6241 74.308 60.9108 74.0213 61.1401C73.8493 61.2548 74.0213 61.4841 74.1933 61.3694C74.824 60.9681 75.4547 60.6241 76.028 60.2227C76.3147 60.1654 76.6587 60.1654 76.9453 60.1081C77.06 60.1081 77.06 59.9361 76.9453 59.9361C76.7733 59.9361 76.6013 59.9361 76.4293 59.9934C79.812 57.7574 83.0227 55.2348 86.2907 52.8268C86.52 52.6548 86.2907 52.3108 86.004 52.4828C82.564 55.0054 78.8373 57.3561 75.3973 60.1081Z" fill="#5B5B69"/>
<path d="M84.7427 56.6106C80.9013 59.3626 77.06 62.2866 73.62 65.5546C73.5053 65.6693 73.62 65.8413 73.792 65.7839C77.6333 63.0893 81.3027 59.8786 84.7427 56.6106C84.8 56.6106 84.8 56.6106 84.7427 56.6106Z" fill="#5B5B69"/>
<path d="M82.908 61.8853C79.124 64.8667 75.168 67.6187 71.1547 70.3133C71.04 70.3707 71.1547 70.4853 71.2693 70.428C75.4547 68.02 79.3534 65.2107 83.1374 62.172C83.3094 62 83.08 61.7133 82.908 61.8853Z" fill="#5B5B69"/>
<path d="M80.9013 66.9306C78.78 68.5933 76.372 70.084 74.4227 71.976C74.308 72.0906 74.48 72.2626 74.5947 72.148C76.888 70.772 79.0093 68.88 81.1307 67.2746C81.36 67.16 81.1307 66.7586 80.9013 66.9306Z" fill="#5B5B69"/>
<path d="M30.6773 56.8973C28.04 59.248 25.116 61.4266 22.5933 63.9493C25.6893 62.172 28.384 59.592 30.7347 57.012C30.792 56.9546 30.7347 56.84 30.6773 56.8973Z" fill="#5B5B69"/>
<path d="M30.6773 58.1013C29.1293 59.592 27.8107 61.1973 26.2053 62.5733C26.148 62.6307 26.2053 62.7453 26.2627 62.688C27.9253 61.4267 29.6453 60.0507 30.9067 58.3307C31.0787 58.1013 30.8493 57.9293 30.6773 58.1013Z" fill="#5B5B69"/>
<path d="M19.3253 44.6853C15.8853 48.24 12.732 52.024 9.52134 55.808C9.40667 55.98 9.63601 56.152 9.75067 55.98C13.076 52.3107 16.4587 48.6987 19.4973 44.8573C19.6693 44.6853 19.44 44.5707 19.3253 44.6853Z" fill="#5B5B69"/>
<path d="M55.6173 30.4094C55.56 30.4667 55.6747 30.5814 55.732 30.524C59.8027 27.5427 63.1853 23.2427 66.2813 19.3441C66.2813 19.3441 66.2813 19.2867 66.2813 19.3441C64.676 21.3507 62.956 23.2427 61.1787 25.0774C59.4013 26.9694 57.3947 28.5747 55.6173 30.4094Z" fill="#5B5B69"/>
<path d="M60.6053 29.0907C60.4907 29.2054 60.6627 29.3774 60.7773 29.2627C64.1027 26.9694 66.74 23.4147 69.3773 20.376C69.3773 20.376 69.3773 20.3187 69.32 20.376C67.944 21.924 66.4533 23.3574 65.02 24.7907C63.5867 26.224 61.924 27.5427 60.6053 29.0907Z" fill="#5B5B69"/>
<path d="M66.8547 25.88C65.9373 26.6827 65.02 27.428 64.16 28.288C64.1027 28.3453 64.2173 28.46 64.2747 28.4027C65.2493 27.7147 66.1093 26.912 67.0267 26.1667C67.1987 25.9947 67.0267 25.708 66.8547 25.88Z" fill="#5B5B69"/>
<path d="M22.192 78.6839C19.956 80.6906 17.72 82.7546 15.5413 84.8186C15.4267 84.9333 15.5413 85.1053 15.656 84.9906C17.892 82.9266 20.0707 80.8626 22.2493 78.7412C22.3067 78.7412 22.2493 78.6839 22.192 78.6839Z" fill="#5B5B69"/>
<path d="M76.9453 11.3174C79.812 9.02408 82.6213 6.44408 85.4306 4.03609C85.488 3.97875 85.4306 3.86408 85.316 3.92142C82.2773 5.98542 79.1813 8.39342 76.716 11.0881C76.6587 11.2601 76.8307 11.4321 76.9453 11.3174Z" fill="#5B5B69"/>
<path d="M78.2067 11.9479C78.0347 12.1199 78.2067 12.3493 78.436 12.2346C80.7867 10.8586 82.9653 9.13861 85.144 7.59061C85.316 7.47595 85.144 7.13195 84.9147 7.30395C82.6787 8.79461 80.328 10.2279 78.2067 11.9479Z" fill="#5B5B69"/>
<path d="M38.532 81.7801C37.0987 82.4107 35.8373 83.328 34.4613 84.1307C34.232 84.3027 34.4613 84.6467 34.748 84.4747C36.0667 83.672 37.4427 82.9267 38.6467 82.0094C38.7613 81.8947 38.6467 81.7227 38.532 81.7801Z" fill="#5B5B69"/>
<path d="M40.252 63.6627C42.0293 62.344 43.864 61.0253 45.6413 59.6493C45.6987 59.592 45.6413 59.5347 45.584 59.592C43.7493 60.8533 41.9147 62.172 40.1373 63.4907C40.0227 63.548 40.1373 63.72 40.252 63.6627Z" fill="#5B5B69"/>
<path d="M35.952 64.8093C38.9907 62.5733 41.972 60.28 44.896 57.872C44.9534 57.8147 44.896 57.7 44.8387 57.7573C41.7427 59.936 38.704 62.172 35.78 64.5226C35.608 64.6946 35.78 64.924 35.952 64.8093Z" fill="#5B5B69"/>
<path d="M38.8187 59.5347C39.6787 58.9613 40.596 58.4453 41.456 57.8147C41.5707 57.7573 41.456 57.5853 41.3413 57.6427C40.424 58.1587 39.5067 58.732 38.5893 59.3053C38.4747 59.3627 38.6467 59.6493 38.8187 59.5347Z" fill="#5B5B69"/>
<path d="M57.9107 59.7067C57.8533 59.7067 57.8533 59.7641 57.9107 59.7067C61.924 60.0507 66.1093 59.7067 70.0653 58.9041C70.18 58.9041 70.18 58.7321 70.0653 58.7321C69.4347 58.7894 68.8613 58.8467 68.2307 58.9041C71.6707 56.8401 74.996 54.6041 78.264 52.3107C78.264 52.3107 78.264 52.2534 78.264 52.3107C74.7667 54.4321 71.2693 56.6107 67.944 58.9614C64.5613 59.3054 61.236 59.5347 57.9107 59.7067Z" fill="#5B5B69"/>
<path d="M56.1907 59.3054C58.828 59.1334 61.4653 58.9614 64.1027 58.732H64.16C65.364 58.6174 66.568 58.5027 67.7147 58.388C67.8293 58.388 67.8293 58.1587 67.7147 58.216C66.7973 58.2734 65.88 58.2734 64.9627 58.3307C68.0013 56.6107 70.868 54.604 73.7347 52.6547C70.6387 54.4894 67.428 56.2667 64.4467 58.388C61.6947 58.56 58.9427 58.7894 56.1333 59.0187C55.904 58.9614 55.9613 59.3054 56.1907 59.3054Z" fill="#5B5B69"/>
<path d="M24.8867 76.964C22.0773 77.9387 19.268 78.7987 16.344 79.4867C16.7453 79.0854 17.204 78.6267 17.6053 78.2254C19.8413 77.824 22.02 77.2507 24.1987 76.5054C24.3707 76.448 24.256 76.2187 24.084 76.276C22.1347 76.792 20.128 77.308 18.1213 77.652C19.0387 76.6774 19.956 75.6454 20.8733 74.6707C21.5613 74.3841 22.3067 74.0974 22.9947 73.8107C23.1093 73.7534 23.052 73.5814 22.9373 73.6387C22.4213 73.8107 21.9053 73.9827 21.4467 74.1547C21.6187 73.9827 21.7333 73.868 21.9053 73.696C21.9627 73.6387 21.848 73.5814 21.848 73.6387C21.6187 73.8681 21.3893 74.04 21.2173 74.2694C20.0707 74.6707 18.8667 75.0147 17.6627 75.3587C18.1787 74.7854 18.752 74.212 19.268 73.5814C19.3253 73.524 19.2107 73.4667 19.1533 73.5241C18.5227 74.1547 17.8347 74.8427 17.204 75.4734C16.172 75.76 15.1973 76.0467 14.1653 76.3334C15.1973 75.244 16.2867 74.212 17.4333 73.1801C18.064 73.0081 18.6947 72.8934 19.3827 72.7214C19.4973 72.7214 19.44 72.5494 19.3253 72.5494C18.6947 72.664 18.1213 72.7787 17.4907 72.8934C17.4333 72.8934 17.4333 72.8934 17.376 72.8934C16.2867 73.1227 15.2547 73.2947 14.1653 73.5241C15.3693 72.2627 16.5733 71.0014 17.72 69.7401C17.7773 69.6827 17.6627 69.5681 17.6053 69.6254C16.172 70.9441 14.7387 72.32 13.3627 73.696C13.3053 73.696 13.248 73.7534 13.1333 73.7534C13.0187 73.7534 12.9613 73.9254 13.0187 74.0401C11.8147 75.244 10.668 76.5054 9.57867 77.824C11.012 76.62 12.4453 75.3014 13.764 73.9254C14.796 73.6961 15.828 73.524 16.86 73.2947C14.9107 74.8427 13.1907 76.6774 11.7 78.6267C11.5853 78.7987 11.8147 78.9707 11.9293 78.7987C12.5027 78.1107 13.076 77.4227 13.6493 76.792C14.624 76.5627 15.5987 76.3334 16.5733 76.0467C15.1973 77.48 13.8213 78.9707 12.4453 80.4614C12.3307 80.576 12.5027 80.6907 12.6173 80.6334C14.108 79.0854 15.5413 77.5374 17.032 75.9894C18.1787 75.6454 19.3253 75.3014 20.472 74.9C19.44 75.8747 18.3507 76.8494 17.2613 77.8814C16.516 77.996 15.828 78.1107 15.0827 78.2254C14.796 78.2827 14.8533 78.7414 15.14 78.684C15.656 78.6267 16.172 78.5694 16.688 78.4547C15.2547 79.8307 13.8787 81.264 12.6747 82.812C12.6747 82.812 12.6747 82.8694 12.732 82.8694C13.8213 82.0094 14.8533 81.092 15.828 80.1174C18.924 79.4294 22.02 78.5694 24.944 77.308C25.116 77.136 25.0013 76.964 24.8867 76.964Z" fill="#5B5B69"/>
<path d="M24.3707 49.6733C20.988 50.4759 17.6053 51.508 14.2227 52.4826C13.936 52.54 14.108 52.9986 14.3947 52.884C17.72 51.9093 21.1027 51.0493 24.428 49.9026C24.6 49.9026 24.5427 49.6159 24.3707 49.6733Z" fill="#5B5B69"/>
<path d="M49.884 33.448C46.5013 34.1934 43.1187 35.168 39.6787 35.9707C43.1187 35.2827 46.5587 34.5947 49.9413 33.6774C50.056 33.62 49.9987 33.448 49.884 33.448Z" fill="#5B5B69"/>
<path d="M35.3787 36.9453C35.8373 36.8306 36.296 36.716 36.7547 36.6586C36.296 36.7733 35.8373 36.8306 35.3787 36.888C35.3213 36.888 35.3213 36.9453 35.3787 36.9453Z" fill="#5B5B69"/>
<path d="M50.1133 32.4159C45.9853 33.2186 41.8573 34.0786 37.672 34.8239C37.5 34.8813 37.5 35.168 37.7293 35.1106C41.9147 34.3653 46.0427 33.5626 50.1133 32.5306C50.228 32.5306 50.228 32.3586 50.1133 32.4159Z" fill="#5B5B69"/>
<path d="M33.544 40.156C30.792 40.5573 28.04 41.1307 25.2307 41.6467C25.0013 41.704 25.0587 42.048 25.288 41.9907C28.04 41.4747 30.8493 40.9587 33.544 40.3853C33.716 40.328 33.716 40.0987 33.544 40.156Z" fill="#5B5B69"/>
<path d="M51.2026 81.2639C46.96 82.9839 42.6027 84.5892 38.188 85.8506C37.9013 85.9079 38.0733 86.3666 38.36 86.3092C42.7747 84.9906 47.0747 83.3852 51.2026 81.3786C51.3173 81.3786 51.26 81.2639 51.2026 81.2639Z" fill="#5B5B69"/>
<path d="M51.1453 83.672C48.0493 84.8187 44.8387 85.5066 41.5707 85.736C41.2267 85.736 41.284 86.252 41.628 86.252C45.0107 86.0227 48.164 85.22 51.2027 83.7867C51.26 83.7867 51.2027 83.672 51.1453 83.672Z" fill="#5B5B69"/>
<path d="M51.0307 85.048C48.7373 85.6214 46.3867 86.252 44.0933 86.94C43.9213 86.9974 44.036 87.284 44.208 87.2267C46.5013 86.596 48.7947 85.908 51.088 85.22C51.1453 85.1054 51.088 84.9907 51.0307 85.048Z" fill="#5B5B69"/>
<path d="M21.0454 82.7547C20.9307 82.7547 20.9307 82.9267 21.0454 82.9267C22.708 82.64 24.256 82.1814 25.7467 81.436C25.804 81.3787 25.7467 81.3214 25.6893 81.3214C24.256 82.0094 22.708 82.468 21.0454 82.7547Z" fill="#5B5B69"/>
<path d="M26.2053 92.5013C27.5813 92.5013 28.8427 92.2146 30.0467 91.4693C30.1613 91.412 30.0467 91.24 29.932 91.24C28.728 91.6413 27.4667 91.928 26.2053 91.9853C25.8613 92.0426 25.9187 92.5013 26.2053 92.5013Z" fill="#5B5B69"/>
<path d="M28.556 93.2467C30.3907 93.0746 32.1107 92.7306 33.8307 92.0426C34.0027 91.9853 33.888 91.756 33.716 91.8133C31.996 92.272 30.276 92.616 28.4987 92.7306C28.1547 92.7306 28.212 93.2467 28.556 93.2467Z" fill="#5B5B69"/>
<path d="M23.568 96.3427C23.6253 96.3427 23.6253 96.2854 23.568 96.228C17.8347 94.68 13.8213 89.9787 9.75066 86.0227C9.636 85.908 9.52133 86.08 9.636 86.1947C13.6493 90.2653 17.4907 95.4253 23.568 96.3427Z" fill="#5B5B69"/>
<path d="M60.7773 97.604C66.9693 95.9413 73.5627 93.7053 78.5507 89.5773C83.8827 85.22 86.52 78.684 88.3547 72.2626C88.3547 72.148 88.24 72.148 88.1827 72.2053C85.66 78.684 83.424 85.2773 77.748 89.692C72.7027 93.648 66.568 95.2533 60.6053 97.26C60.4333 97.3173 60.548 97.6613 60.7773 97.604Z" fill="#5B5B69"/>
<path d="M90.648 66.5294C91.164 64.0641 91.2213 61.4841 91.7373 59.0187C92.2533 56.3814 92.9413 53.7441 93.744 51.1641C93.8013 51.0494 93.6293 50.9921 93.572 51.1067C92.6547 53.5721 91.9093 56.0947 91.336 58.7321C90.7627 61.2547 90.1893 64.0067 90.304 66.5867C90.3613 66.7014 90.648 66.7014 90.648 66.5294Z" fill="#5B5B69"/>
<path d="M77.232 39.7547C76.716 40.3854 76.2573 40.9587 75.7413 41.5894C74.136 42.0481 72.588 42.5067 70.9827 42.9081C71.384 42.3347 71.8427 41.7614 72.244 41.1881C73.0467 40.2134 73.9067 39.2961 74.824 38.4361C74.996 38.2641 74.7093 37.9774 74.5373 38.1494C73.0467 39.5827 71.2693 41.2454 70.2373 43.1374C68.116 43.7107 65.9373 44.1694 63.7587 44.6281C63.5293 44.6854 63.5867 45.0294 63.816 44.9721C65.88 44.5707 68.0013 44.1121 70.008 43.5387C69.8933 43.7107 69.7787 43.9401 69.7213 44.1121C69.664 44.2267 69.836 44.2841 69.8933 44.2267C70.1227 43.9401 70.4093 43.6534 70.6387 43.3667C72.3013 42.9081 73.9067 42.3921 75.512 41.8761C75.4547 41.9334 75.3973 41.9907 75.3973 42.0481C74.8813 42.6787 74.1933 43.3094 73.8493 44.1121C73.792 44.2267 73.964 44.3987 74.0787 44.2841C74.7667 43.8254 75.2827 43.0227 75.7987 42.3921C76.4293 41.6467 77.0027 40.9014 77.6333 40.1561C77.8053 39.8121 77.404 39.5254 77.232 39.7547Z" fill="#5B5B69"/>
<path d="M80.5 39.5827C79.9267 40.2133 79.3534 40.9013 78.78 41.532C78.264 42.1053 77.6334 42.6787 77.3467 43.3667C77.2893 43.4813 77.4614 43.596 77.5187 43.5387C78.1494 43.1373 78.6654 42.4493 79.1814 41.876C79.7547 41.2453 80.328 40.5573 80.9587 39.9267C81.0734 39.6973 80.672 39.3533 80.5 39.5827Z" fill="#5B5B69"/>
<path d="M83.08 38.8373C82.4493 39.7546 81.6467 40.5573 80.7293 41.188C80.6147 41.2453 80.7293 41.4173 80.844 41.36C81.876 40.844 82.736 40.0413 83.3667 39.0666C83.5387 38.8946 83.1947 38.608 83.08 38.8373Z" fill="#5B5B69"/>
<path d="M64.1026 37.232C66.568 36.7733 69.0333 36.3146 71.4413 35.7413C71.556 35.684 71.556 35.512 71.4413 35.512C68.976 35.856 66.5107 36.372 64.0453 36.8306C63.8733 36.888 63.8733 37.2893 64.1026 37.232Z" fill="#5B5B69"/>
<path d="M25.6893 105.229C25.2307 105.172 25.116 105.86 25.5747 105.917C26.0333 105.975 26.148 105.287 25.6893 105.229Z" fill="#5B5B69"/>
<path d="M31.5373 103.567C31.3653 103.796 31.3653 103.911 31.3653 104.197C31.308 104.713 32.0533 104.828 32.168 104.312C32.2253 104.025 32.2827 103.911 32.168 103.681C32.1107 103.395 31.7093 103.337 31.5373 103.567Z" fill="#5B5B69"/>
</svg>
